<svg width="25" height="25" viewBox="0 0 25 25" fill="none" xmlns="http://www.w3.org/2000/svg">
<path d="M21.5909 0H3.40909C1.5263 0 0 1.5263 0 3.40909V21.5909C0 23.4737 1.5263 25 3.40909 25H21.5909C23.4737 25 25 23.4737 25 21.5909V3.40909C25 1.5263 23.4737 0 21.5909 0Z" fill="#0077B5"/>
<path d="M9.00648 6.81818C9.00648 7.23959 8.88152 7.65154 8.6474 8.00193C8.41328 8.35231 8.08051 8.62541 7.69118 8.78668C7.30185 8.94794 6.87344 8.99014 6.46012 8.90792C6.04681 8.82571 5.66716 8.62278 5.36918 8.3248C5.0712 8.02682 4.86827 7.64717 4.78606 7.23386C4.70385 6.82055 4.74604 6.39214 4.90731 6.00281C5.06857 5.61347 5.34167 5.28071 5.69206 5.04658C6.04245 4.81246 6.45439 4.6875 6.8758 4.6875C7.44089 4.6875 7.98284 4.91198 8.38242 5.31156C8.782 5.71114 9.00648 6.25309 9.00648 6.81818ZM8.52353 10.3693V19.7827C8.5239 19.8521 8.51055 19.9209 8.48423 19.9852C8.45792 20.0495 8.41916 20.1079 8.37018 20.1571C8.32121 20.2064 8.26299 20.2455 8.19887 20.2721C8.13474 20.2988 8.06598 20.3125 7.99654 20.3125H5.7508C5.68136 20.3127 5.61256 20.2991 5.54837 20.2727C5.48417 20.2462 5.42584 20.2073 5.37674 20.1582C5.32764 20.109 5.28872 20.0507 5.26223 19.9865C5.23574 19.9223 5.2222 19.8535 5.22239 19.7841V10.3693C5.22239 10.2292 5.27806 10.0948 5.37716 9.99568C5.47625 9.89658 5.61066 9.84091 5.7508 9.84091H7.99654C8.13644 9.84129 8.27047 9.89712 8.36926 9.99618C8.46805 10.0952 8.52353 10.2294 8.52353 10.3693ZM20.2622 15.2699V19.8267C20.2624 19.8906 20.2499 19.9538 20.2256 20.0128C20.2012 20.0719 20.1654 20.1255 20.1203 20.1706C20.0751 20.2158 20.0215 20.2516 19.9625 20.2759C19.9035 20.3003 19.8402 20.3127 19.7764 20.3125H17.3616C17.2977 20.3127 17.2345 20.3003 17.1755 20.2759C17.1164 20.2516 17.0628 20.2158 17.0177 20.1706C16.9725 20.1255 16.9367 20.0719 16.9124 20.0128C16.8881 19.9538 16.8756 19.8906 16.8758 19.8267V15.4105C16.8758 14.7514 17.069 12.5241 15.1528 12.5241C13.6684 12.5241 13.3659 14.0483 13.3062 14.733V19.8267C13.3062 19.9543 13.256 20.0768 13.1664 20.1677C13.0769 20.2586 12.9551 20.3106 12.8275 20.3125H10.4951C10.4314 20.3125 10.3683 20.2999 10.3094 20.2755C10.2506 20.2511 10.1971 20.2153 10.1521 20.1701C10.1071 20.125 10.0715 20.0714 10.0472 20.0125C10.0229 19.9536 10.0106 19.8904 10.0107 19.8267V10.3281C10.0106 10.2644 10.0229 10.2013 10.0472 10.1423C10.0715 10.0834 10.1071 10.0298 10.1521 9.9847C10.1971 9.93957 10.2506 9.90377 10.3094 9.87934C10.3683 9.85491 10.4314 9.84233 10.4951 9.84233H12.8275C12.9563 9.84233 13.0799 9.89351 13.171 9.98462C13.2621 10.0757 13.3133 10.1993 13.3133 10.3281V11.1491C13.8644 10.3224 14.6812 9.68466 16.4241 9.68466C20.2849 9.68466 20.2622 13.2898 20.2622 15.2699Z" fill="white"/>
</svg>
