<svg width="26" height="25" viewBox="0 0 26 25" fill="none" xmlns="http://www.w3.org/2000/svg">
<path d="M9.01924 20.1009C8.84542 20.1333 8.76949 20.2149 8.79126 20.345C8.81293 20.4751 8.91058 20.5186 9.08417 20.4751C9.25799 20.4318 9.33386 20.3557 9.31203 20.2473C9.29048 20.128 9.19283 20.0791 9.01924 20.1009ZM8.09144 20.2312C7.91779 20.2312 7.83103 20.2906 7.83103 20.4102C7.83103 20.5512 7.92332 20.6107 8.10768 20.5891C8.28133 20.5891 8.36821 20.5294 8.36821 20.4102C8.36821 20.2693 8.27591 20.2094 8.09144 20.2312ZM6.82193 20.182C6.77861 20.3015 6.84918 20.3827 7.03349 20.4263C7.19624 20.4911 7.29937 20.4587 7.3427 20.3286C7.37531 20.2094 7.30473 20.1228 7.13114 20.0681C6.96833 20.0249 6.86531 20.0623 6.82193 20.182Z" fill="black"/>
<path d="M23.6288 1.3752C22.7118 0.458456 21.6078 0 20.316 0H4.6883C3.39696 0 2.29258 0.458456 1.37545 1.3752C0.458539 2.29211 0 3.39629 0 4.68746V20.3126C0 21.6038 0.458539 22.7079 1.37545 23.6246C2.29252 24.5415 3.39696 25 4.6883 25H8.33478C8.57334 25 8.75255 24.9918 8.87189 24.9758C8.99117 24.9594 9.11045 24.8888 9.2299 24.7639C9.34941 24.6393 9.40894 24.4575 9.40894 24.2188C9.40894 24.1864 9.40609 23.8171 9.40073 23.1119C9.3952 22.4064 9.39252 21.8477 9.39252 21.4353L9.01808 21.5005C8.77935 21.5438 8.47818 21.5629 8.11457 21.5574C7.75114 21.5519 7.37391 21.5141 6.98328 21.4435C6.59242 21.3729 6.22899 21.2102 5.89253 20.9554C5.55623 20.7002 5.3175 20.3666 5.17638 19.9544L5.01354 19.5798C4.90503 19.3305 4.7342 19.0537 4.50083 18.7501C4.26746 18.4462 4.03146 18.24 3.79272 18.1315L3.67874 18.0501C3.60285 17.9959 3.53232 17.9305 3.46715 17.8546C3.40209 17.7785 3.35329 17.7024 3.32073 17.6267C3.28817 17.5506 3.3152 17.4882 3.40209 17.4392C3.48899 17.3905 3.64619 17.3663 3.8742 17.3663L4.19966 17.4151C4.41679 17.4584 4.68523 17.5885 5.00555 17.8056C5.32565 18.0226 5.58879 18.3047 5.79502 18.6518C6.04476 19.0968 6.34565 19.4356 6.69853 19.669C7.05113 19.9025 7.40664 20.0192 7.76471 20.0192C8.12278 20.0192 8.43205 19.992 8.69262 19.938C8.95291 19.8836 9.19712 19.802 9.42513 19.6936C9.5228 18.9666 9.78874 18.4075 10.2227 18.017C9.60417 17.9518 9.04802 17.8543 8.55407 17.7239C8.06041 17.5936 7.55027 17.3822 7.02399 17.0891C6.49749 16.7961 6.06073 16.4328 5.71343 15.9985C5.36619 15.5643 5.08122 14.9946 4.8589 14.2896C4.63648 13.5841 4.52523 12.7702 4.52523 11.848C4.52523 10.5351 4.95407 9.41734 5.81139 8.49512C5.40975 7.50775 5.44767 6.40111 5.92525 5.17488C6.23999 5.07717 6.70674 5.15048 7.32527 5.39464C7.94392 5.63898 8.39687 5.84791 8.68458 6.02127C8.9723 6.19469 9.20282 6.34131 9.3765 6.4608C10.386 6.17867 11.4278 6.03763 12.5021 6.03763C13.5764 6.03763 14.6183 6.17867 15.6279 6.4608L16.2465 6.07018C16.6699 5.80966 17.169 5.57097 17.7443 5.35405C18.3195 5.13708 18.7589 5.07734 19.0629 5.17505C19.5511 6.40128 19.5948 7.50792 19.1929 8.49524C20.0502 9.41756 20.4792 10.5353 20.4792 11.8481C20.4792 12.7705 20.3679 13.5872 20.1455 14.2977C19.9232 15.0084 19.6358 15.5783 19.2828 16.0069C18.9302 16.4355 18.4906 16.796 17.9643 17.0892C17.4379 17.3821 16.9278 17.5939 16.434 17.7238C15.9401 17.8541 15.384 17.9521 14.7654 18.0172C15.3294 18.5053 15.6115 19.2755 15.6115 20.3282V24.2183C15.6115 24.4028 15.6384 24.5519 15.6927 24.6659C15.7473 24.7798 15.834 24.8582 15.9534 24.9019C16.0732 24.9453 16.1785 24.9724 16.271 24.9831C16.3635 24.994 16.4962 24.9995 16.6698 24.9995H20.3163C21.6077 24.9995 22.7121 24.541 23.6288 23.6241C24.5459 22.7072 25.0044 21.603 25.0044 20.3119V4.68746C25.0043 3.39629 24.5457 2.29194 23.6288 1.3752Z" fill="black"/>
<path d="M4.94663 18.1963C4.87075 18.2503 4.88159 18.3372 4.97924 18.4565C5.0879 18.565 5.17461 18.5813 5.23977 18.5053C5.31564 18.4512 5.30481 18.3644 5.20699 18.2448C5.09856 18.1473 5.01179 18.131 4.94663 18.1963ZM4.40968 17.7894C4.37718 17.8655 4.41515 17.9306 4.52363 17.9847C4.61034 18.0391 4.68109 18.0284 4.73519 17.9523C4.76768 17.8762 4.72972 17.811 4.62123 17.7566C4.51275 17.724 4.44223 17.7349 4.40968 17.7894ZM5.45132 18.8311C5.35355 18.8852 5.35355 18.9831 5.45132 19.124C5.54898 19.2652 5.64104 19.3031 5.72798 19.2379C5.82569 19.1618 5.82569 19.0588 5.72798 18.9285C5.64127 18.7878 5.54898 18.7549 5.45132 18.8311ZM6.02111 19.5633C5.9234 19.6503 5.94495 19.7529 6.08622 19.8727C6.21625 20.0026 6.32479 20.019 6.41162 19.9211C6.4985 19.8345 6.47678 19.7315 6.34651 19.6121C6.21648 19.4822 6.10794 19.4657 6.02111 19.5633Z" fill="black"/>
</svg>
