<svg width="40" height="40" viewBox="0 0 40 40" fill="none" xmlns="http://www.w3.org/2000/svg">
    <rect opacity="0.12" x="3.33337" y="3.33301" width="33.3333" height="33.3333" rx="10" fill="#4E3797"/>
    <path fill-rule="evenodd" clip-rule="evenodd" d="M19.3334 2.33301H19.2876C16.526 2.333 14.3922 2.333 12.684 2.47257C10.9546 2.61387 9.5735 2.90317 8.33948 3.53194C6.2697 4.58654 4.58691 6.26933 3.5323 8.33911C2.90353 9.57314 2.61423 10.9542 2.47294 12.6836C2.33337 14.3919 2.33337 16.5257 2.33337 19.2872V19.333V20.6663V20.7121C2.33337 23.4737 2.33337 25.6075 2.47294 27.3158C2.61423 29.0451 2.90353 30.4262 3.5323 31.6602C4.58691 33.73 6.2697 35.4128 8.33948 36.4674C9.5735 37.0962 10.9546 37.3855 12.684 37.5268C14.3922 37.6664 16.526 37.6663 19.2875 37.6663H19.2876H19.3334H20.6667H20.7125H20.7126C23.4741 37.6663 25.6079 37.6664 27.3161 37.5268C29.0455 37.3855 30.4266 37.0962 31.6606 36.4674C33.7304 35.4128 35.4132 33.73 36.4678 31.6602C37.0965 30.4262 37.3859 29.0451 37.5271 27.3158C37.6667 25.6075 37.6667 23.4737 37.6667 20.7122V20.7121V20.6663V19.333V19.2872V19.2872C37.6667 16.5256 37.6667 14.3918 37.5271 12.6836C37.3859 10.9542 37.0965 9.57314 36.4678 8.33911C35.4132 6.26933 33.7304 4.58654 31.6606 3.53194C30.4266 2.90317 29.0455 2.61387 27.3161 2.47257C25.6079 2.333 23.474 2.333 20.7125 2.33301H20.6667H19.3334ZM9.24746 5.31395C10.1526 4.85278 11.2411 4.59712 12.8468 4.46593C14.4642 4.33379 16.5166 4.33301 19.3334 4.33301H20.6667C23.4835 4.33301 25.5359 4.33379 27.1533 4.46593C28.7589 4.59712 29.8475 4.85278 30.7526 5.31395C32.4461 6.17681 33.8229 7.55363 34.6858 9.24709C35.1469 10.1522 35.4026 11.2408 35.5338 12.8465C35.6659 14.4638 35.6667 16.5162 35.6667 19.333V20.6663C35.6667 23.4831 35.6659 25.5355 35.5338 27.1529C35.4026 28.7586 35.1469 29.8472 34.6858 30.7523C33.8229 32.4457 32.4461 33.8225 30.7526 34.6854C29.8475 35.1466 28.7589 35.4022 27.1533 35.5334C25.5359 35.6656 23.4835 35.6663 20.6667 35.6663H19.3334C16.5166 35.6663 14.4642 35.6656 12.8468 35.5334C11.2411 35.4022 10.1526 35.1466 9.24746 34.6854C7.554 33.8225 6.17718 32.4457 5.31432 30.7523C4.85315 29.8472 4.59748 28.7586 4.46629 27.1529C4.33415 25.5355 4.33337 23.4831 4.33337 20.6663V19.333C4.33337 16.5163 4.33415 14.4638 4.46629 12.8465C4.59748 11.2408 4.85315 10.1522 5.31432 9.24709C6.17718 7.55363 7.554 6.17681 9.24746 5.31395ZM21 13.333C21 12.7807 20.5523 12.333 20 12.333C19.4478 12.333 19 12.7807 19 13.333V18.9997H13.3334C12.7811 18.9997 12.3334 19.4474 12.3334 19.9997C12.3334 20.552 12.7811 20.9997 13.3334 20.9997H19V26.6663C19 27.2186 19.4478 27.6663 20 27.6663C20.5523 27.6663 21 27.2186 21 26.6663V20.9997H26.6667C27.219 20.9997 27.6667 20.552 27.6667 19.9997C27.6667 19.4474 27.219 18.9997 26.6667 18.9997H21V13.333Z" fill="#4E3797"/>
</svg>
