<svg width="24" height="24" viewBox="0 0 24 24" fill="none" xmlns="http://www.w3.org/2000/svg">
<rect opacity="0.12" x="2" y="2" width="20" height="20" rx="5" fill="#3E2C78"/>
<path fill-rule="evenodd" clip-rule="evenodd" d="M10 1.25H9.96644C8.59472 1.25 7.51929 1.24999 6.65494 1.32061C5.77479 1.39252 5.04769 1.54138 4.38955 1.87671C3.30762 2.42798 2.42798 3.30762 1.87671 4.38955C1.54138 5.04769 1.39252 5.77479 1.32061 6.65494C1.24999 7.51929 1.25 8.59472 1.25 9.96644V10V14V14.0336C1.25 15.4053 1.24999 16.4807 1.32061 17.3451C1.39252 18.2252 1.54138 18.9523 1.87671 19.6104C2.42798 20.6924 3.30762 21.572 4.38955 22.1233C5.04769 22.4586 5.77479 22.6075 6.65494 22.6794C7.51927 22.75 8.59469 22.75 9.96637 22.75H9.96642H10H14H14.0336H14.0336C15.4053 22.75 16.4807 22.75 17.3451 22.6794C18.2252 22.6075 18.9523 22.4586 19.6104 22.1233C20.6924 21.572 21.572 20.6924 22.1233 19.6104C22.4586 18.9523 22.6075 18.2252 22.6794 17.3451C22.75 16.4807 22.75 15.4053 22.75 14.0336V14.0336V14V10V9.96642V9.96637C22.75 8.59469 22.75 7.51927 22.6794 6.65494C22.6075 5.77479 22.4586 5.04769 22.1233 4.38955C21.572 3.30762 20.6924 2.42798 19.6104 1.87671C18.9523 1.54138 18.2252 1.39252 17.3451 1.32061C16.4807 1.24999 15.4053 1.25 14.0336 1.25H14H10ZM5.07054 3.21322C5.48197 3.00359 5.9897 2.87996 6.77708 2.81563C7.57322 2.75058 8.58749 2.75 10 2.75H14C15.4125 2.75 16.4268 2.75058 17.2229 2.81563C18.0103 2.87996 18.518 3.00359 18.9295 3.21322C19.7291 3.62068 20.3793 4.27085 20.7868 5.07054C20.9964 5.48197 21.12 5.9897 21.1844 6.77708C21.2494 7.57322 21.25 8.58749 21.25 10V14C21.25 15.4125 21.2494 16.4268 21.1844 17.2229C21.12 18.0103 20.9964 18.518 20.7868 18.9295C20.3793 19.7291 19.7291 20.3793 18.9295 20.7868C18.518 20.9964 18.0103 21.12 17.2229 21.1844C16.4268 21.2494 15.4125 21.25 14 21.25H10C8.58749 21.25 7.57322 21.2494 6.77708 21.1844C5.9897 21.12 5.48197 20.9964 5.07054 20.7868C4.27085 20.3793 3.62068 19.7291 3.21322 18.9295C3.00359 18.518 2.87996 18.0103 2.81563 17.2229C2.75058 16.4268 2.75 15.4125 2.75 14V10C2.75 8.58749 2.75058 7.57322 2.81563 6.77708C2.87996 5.9897 3.00359 5.48197 3.21322 5.07054C3.62068 4.27085 4.27085 3.62068 5.07054 3.21322ZM11.5303 8.53022C11.8232 8.23733 11.8232 7.76245 11.5303 7.46956C11.2374 7.17667 10.7626 7.17667 10.4697 7.46957L6.46967 11.4696C6.17678 11.7625 6.17678 12.2374 6.46967 12.5303L10.4697 16.5303C10.7626 16.8232 11.2374 16.8232 11.5303 16.5303C11.8232 16.2374 11.8232 15.7625 11.5303 15.4696L8.81066 12.75H17C17.4142 12.75 17.75 12.4142 17.75 12C17.75 11.5857 17.4142 11.25 17 11.25H8.81064L11.5303 8.53022Z" fill="#3E2C78"/>
</svg>
