<svg width="24" height="24" viewBox="0 0 24 24" fill="none" xmlns="http://www.w3.org/2000/svg">
<rect x="15.6475" y="4" width="6" height="14.007" rx="3" transform="rotate(46.1047 15.6475 4)" fill="#E5E6E9"/>
<path d="M20.7707 10.1798C20.4669 9.8866 19.9744 9.8866 19.6706 10.1798L11.197 18.3969C9.67789 19.8639 7.21485 19.8641 5.69555 18.3973C4.17624 16.9306 4.1761 14.5524 5.69515 13.0854L13.902 5.12897C14.8207 4.25601 16.2984 4.26745 17.2025 5.15453C18.0962 6.03143 18.0964 7.43833 17.2029 8.31544L8.99609 16.2719C8.68857 16.5563 8.20355 16.5563 7.89606 16.2719C7.59236 15.9785 7.59236 15.503 7.89606 15.2097L15.2028 8.12242C15.5012 7.824 15.4927 7.34847 15.1837 7.06027C14.8822 6.77911 14.4042 6.77911 14.1027 7.06027L6.79602 14.1476C5.88448 15.0276 5.88437 16.4544 6.79573 17.3346C6.79562 17.3344 6.79584 17.3347 6.79573 17.3346C7.71948 18.1857 9.17318 18.186 10.0969 17.3348L18.303 9.37766C19.8026 7.89235 19.7712 5.51446 18.2329 4.0665C16.722 2.64436 14.3125 2.64453 12.8019 4.06682L4.59511 12.0232C2.4683 14.0768 2.4683 17.4063 4.59511 19.4598C6.72192 21.5134 10.1702 21.5134 12.297 19.4598L20.7707 11.245C21.0753 10.9524 21.0766 10.4769 20.7736 10.1827C20.7726 10.1817 20.7716 10.1808 20.7707 10.1798Z" fill="#344054"/>
</svg>
