<svg width="24" height="24" viewBox="0 0 24 24" fill="none" xmlns="http://www.w3.org/2000/svg">
<path opacity="0.12" d="M4.82356 7.88373L3.56977 14.1527C3.23685 15.8173 4.12118 17.4984 5.67243 18.1879C9.67308 19.9659 14.3274 19.9659 18.3281 18.1879C18.5236 18.101 18.7086 17.9983 18.8819 17.8819L6.05273 5.05273C5.46047 5.87761 5.03317 6.83569 4.82356 7.88373Z" fill="#3E2C78"/>
<path fill-rule="evenodd" clip-rule="evenodd" d="M3.53033 1.46967C3.23744 1.17678 2.76256 1.17678 2.46967 1.46967C2.17678 1.76256 2.17678 2.23744 2.46967 2.53033L5.0901 5.15076C4.61918 5.93112 4.27483 6.80163 4.08788 7.7364L2.83409 14.0054C2.43136 16.019 3.50027 18.0431 5.36758 18.873C6.0494 19.176 6.74922 19.4298 7.46118 19.6343L7.56494 19.8678C8.34391 21.6205 10.082 22.75 12 22.75C13.918 22.75 15.6561 21.6205 16.4351 19.8678L16.5388 19.6343C17.2508 19.4298 17.9506 19.176 18.6324 18.873C18.6738 18.8546 18.7148 18.8356 18.7554 18.8161L21.4697 21.5303C21.7626 21.8232 22.2374 21.8232 22.5303 21.5303C22.8232 21.2374 22.8232 20.7626 22.5303 20.4697L19.412 17.3513L6.58282 4.52216L3.53033 1.46967ZM15.8894 18.2581C15.8353 18.2662 15.7824 18.2802 15.7315 18.2997C13.2911 18.9284 10.7088 18.9283 8.26841 18.2997C8.21763 18.2802 8.16474 18.2662 8.11072 18.2581C7.38369 18.0623 6.66986 17.8103 5.97679 17.5023C4.74161 16.9533 4.04184 15.6151 4.30496 14.2995L5.55875 8.03057C5.68558 7.39644 5.90099 6.79947 6.19049 6.25115L17.6154 17.6761C17.0513 17.9064 16.4746 18.1004 15.8894 18.2581ZM9.44875 20.0731C11.1375 20.3372 12.8625 20.3372 14.5512 20.0731C13.9242 20.808 12.9973 21.25 12 21.25C11.0027 21.25 10.0758 20.808 9.44875 20.0731ZM12 1.25C10.5268 1.25 9.13089 1.64868 7.92775 2.35267C7.57024 2.56186 7.45 3.02126 7.65919 3.37877C7.86837 3.73628 8.32777 3.85652 8.68528 3.64733C9.66446 3.07439 10.7997 2.75 12 2.75C15.1312 2.75 17.8272 4.96014 18.4413 8.03057L19.6951 14.2995C19.74 14.5242 19.7569 14.7488 19.748 14.9699C19.7313 15.3837 20.0534 15.7327 20.4672 15.7494C20.8811 15.766 21.2301 15.444 21.2468 15.0301C21.2604 14.6918 21.2345 14.3481 21.1659 14.0054L19.9121 7.7364C19.1578 3.96483 15.8463 1.25 12 1.25Z" fill="#3E2C78"/>
</svg>
