<svg width="24" height="24" viewBox="0 0 24 24" fill="none" xmlns="http://www.w3.org/2000/svg">
<path opacity="0.12" d="M20 22V10C20 7.19974 20 5.79961 19.455 4.73005C18.9757 3.78924 18.2108 3.02433 17.27 2.54497C16.2004 2 14.8003 2 12 2C9.19974 2 7.79961 2 6.73005 2.54497C5.78924 3.02433 5.02433 3.78924 4.54497 4.73005C4 5.79961 4 7.19974 4 10V22L6.27567 20.8622L6.27569 20.8622C8.37459 19.8127 9.42404 19.288 10.5248 19.0815C11.4998 18.8985 12.5002 18.8985 13.4752 19.0815C14.576 19.288 15.6254 19.8127 17.7243 20.8622L17.7243 20.8622L20 22Z" fill="#3E2C78"/>
<path fill-rule="evenodd" clip-rule="evenodd" d="M11.9664 1.25L12 1.25L12.0336 1.25C13.4053 1.25 14.4807 1.24999 15.3451 1.32061C16.2252 1.39252 16.9523 1.54138 17.6104 1.87671C18.6924 2.42798 19.572 3.30762 20.1233 4.38955C20.4586 5.04769 20.6075 5.77479 20.6794 6.65494C20.75 7.51928 20.75 8.59471 20.75 9.96642V10V22C20.75 22.2599 20.6154 22.5013 20.3943 22.638C20.1732 22.7746 19.8971 22.7871 19.6646 22.6708L17.3889 21.533C15.2511 20.4641 14.3102 20.0012 13.3369 19.8186C12.4533 19.6528 11.5467 19.6528 10.6631 19.8186C9.68979 20.0012 8.74887 20.4641 6.61108 21.533L4.33541 22.6708C4.10292 22.7871 3.82681 22.7746 3.6057 22.638C3.38459 22.5013 3.25 22.2599 3.25 22V10L3.25 9.96644C3.25 8.59472 3.24999 7.51929 3.32061 6.65494C3.39252 5.77479 3.54138 5.04769 3.87671 4.38955C4.42798 3.30762 5.30762 2.42798 6.38955 1.87671C7.04769 1.54138 7.77479 1.39252 8.65494 1.32061C9.51929 1.24999 10.5947 1.25 11.9664 1.25ZM8.77708 2.81563C7.9897 2.87996 7.48197 3.00359 7.07054 3.21322C6.27085 3.62068 5.62068 4.27085 5.21322 5.07054C5.00359 5.48197 4.87996 5.9897 4.81563 6.77708C4.75058 7.57322 4.75 8.58749 4.75 10V20.7865L5.94026 20.1913L6.05765 20.1326C8.04468 19.139 9.18181 18.5703 10.3865 18.3443C11.4529 18.1443 12.5471 18.1443 13.6135 18.3443C14.8182 18.5703 15.9553 19.139 17.9423 20.1326L18.0597 20.1913L19.25 20.7865V10C19.25 8.58749 19.2494 7.57322 19.1844 6.77708C19.12 5.9897 18.9964 5.48197 18.7868 5.07054C18.3793 4.27085 17.7291 3.62068 16.9295 3.21322C16.518 3.00359 16.0103 2.87996 15.2229 2.81563C14.4268 2.75058 13.4125 2.75 12 2.75C10.5875 2.75 9.57322 2.75058 8.77708 2.81563Z" fill="#3E2C78"/>
</svg>
