<svg width="45" height="46" viewBox="0 0 45 46" fill="none" xmlns="http://www.w3.org/2000/svg">
<g clip-path="url(#clip0_2689_14089)">
<path d="M20.9823 23.5592C20.9823 22.5697 20.9823 21.5802 20.9823 20.5906C21.2091 20.4139 21.4743 20.4992 21.7143 20.5101C22.8794 20.5618 23.9029 20.177 24.852 19.5398C25.6392 19.012 26.1575 18.2521 26.6339 17.4573C27.4558 17.4573 28.279 17.4621 29.1009 17.4537C29.3133 17.4513 29.4069 17.4946 29.4357 17.7435C29.5653 18.8689 29.7009 19.9955 29.8953 21.1112C29.9421 21.3782 30.026 21.7052 30.3668 21.8723C30.9776 22.1705 31.4503 22.0996 31.9831 21.5982C32.5458 21.0692 33.129 20.5618 33.7098 20.052C34.5797 19.2885 35.4652 18.5406 36.3232 17.7627C36.5511 17.5559 36.7671 17.4513 37.0731 17.4525C39.017 17.4621 40.962 17.4165 42.9047 17.4718C44.0854 17.5054 44.7441 16.6806 44.7321 15.631C44.6973 12.4544 44.7225 9.27781 44.7177 6.10123C44.7153 4.7991 44.6733 3.49576 44.6949 2.19363C44.7105 1.1524 43.939 0.577681 42.9947 0.580086C37.5663 0.592109 32.1379 0.584895 26.7095 0.588502C26.3567 0.588502 25.9968 0.575276 25.6608 0.723164C25.53 0.699117 25.398 0.67988 25.2696 0.649821C24.1657 0.391318 23.3114 1.06222 23.3066 2.19363C23.3042 2.83327 23.3018 3.47412 23.2994 4.11376C23.0366 4.15464 22.847 3.9815 22.6418 3.87209C21.3267 3.16752 19.9168 2.86814 18.4349 2.86814C15.8971 2.86814 13.3593 2.86213 10.8215 2.87415C10.4087 2.87655 9.99238 2.93547 9.58441 3.0052C8.4565 3.19878 7.41018 3.61359 6.43825 4.21596C6.43825 3.52702 6.45385 2.83688 6.43225 2.14914C6.40106 1.17284 5.76031 0.589704 4.77878 0.608942C3.95444 0.625775 3.37849 1.27504 3.37729 2.19723C3.37489 4.01036 3.37729 5.82229 3.37729 7.63542C3.08451 8.56843 2.70414 9.47139 2.64894 10.4741C2.54815 12.2825 2.47136 14.0932 2.67534 15.8931C2.89493 17.8252 3.98924 19.1827 5.70871 20.0412C6.64704 20.5089 7.66096 20.5509 8.68328 20.5005C8.68328 21.5501 8.68328 22.5997 8.68328 23.6494C7.99933 23.653 7.30819 23.5953 6.63264 23.6758C5.67511 23.7901 5.00556 24.4032 4.46441 25.1667C4.34441 25.1667 4.22442 25.1751 4.10563 25.1691C2.52415 25.085 0.88028 26.2933 0.499909 27.7938C0.123138 29.2823 0.215531 30.8213 0.390718 32.3038C0.682295 34.7698 2.13778 36.5024 4.35641 37.5821C4.594 37.6975 4.71519 37.8526 4.80278 38.0931C5.49633 39.994 6.64104 41.5751 8.23932 42.8099C10.6403 44.6651 13.3581 45.36 16.3603 44.9765C18.5657 44.6951 20.4652 43.7597 22.0971 42.2724C23.4026 41.0833 24.3409 39.6381 24.9384 37.9753C24.9984 37.8093 25.086 37.6903 25.2504 37.6194C26.1119 37.2502 26.8247 36.6936 27.481 36.0154C28.3054 35.1642 28.8489 34.1879 29.1681 33.0577C29.5749 31.6149 29.4573 30.1396 29.3937 28.6836C29.3433 27.5414 28.7805 26.5723 27.829 25.8773C27.0443 25.3038 26.1563 25.1138 25.2024 25.1679C25.0572 24.9816 24.9252 24.782 24.7656 24.61C24.1597 23.956 23.4206 23.6301 22.5158 23.6386C22.0071 23.6434 21.4851 23.7504 20.9847 23.5604L20.9823 23.5592Z" fill="white"/>
<path d="M25.6621 0.723164C25.9981 0.575276 26.3593 0.588502 26.7108 0.588502C32.1392 0.584895 37.5676 0.592109 42.996 0.580086C43.9403 0.577681 44.7119 1.1524 44.6963 2.19483C44.6759 3.49696 44.7179 4.8003 44.7191 6.10243C44.7239 9.27901 44.6987 12.4556 44.7335 15.6322C44.7455 16.6818 44.0867 17.5066 42.906 17.473C40.9633 17.4177 39.0183 17.4621 37.0744 17.4537C36.7685 17.4525 36.5525 17.5583 36.3245 17.7639C35.4666 18.5418 34.5822 19.2897 33.7111 20.0532C33.1303 20.563 32.5472 21.0704 31.9844 21.5994C31.4517 22.1008 30.9801 22.1729 30.3682 21.8735C30.0262 21.7064 29.9422 21.3794 29.8966 21.1124C29.7022 19.9967 29.5666 18.8701 29.437 17.7447C29.4082 17.497 29.3158 17.4537 29.1023 17.4549C28.2803 17.4621 27.4572 17.4585 26.6352 17.4585C26.9796 16.4065 27.1656 15.3364 27.1056 14.2206C27.0672 13.5028 27.0828 12.7814 27.102 12.0636C27.1428 10.5595 26.8932 9.11069 26.3185 7.72078C26.3881 5.80906 26.3521 3.89614 26.3329 1.98442C26.3293 1.6141 26.1433 1.26662 25.8541 1.00211C25.7689 0.923955 25.6429 0.875861 25.6621 0.725569V0.723164Z" fill="#8373B6"/>
<path d="M23.3003 40.9729C22.9403 41.4346 22.5395 41.8686 22.0955 42.2726C20.4625 43.7587 18.563 44.6941 16.3588 44.9767C13.3566 45.3602 10.6388 44.6653 8.23781 42.8101C6.63953 41.5753 5.49482 39.9942 4.80127 38.0933C4.71368 37.8528 4.59129 37.6977 4.3549 37.5823C2.13627 36.5014 0.680785 34.77 0.389208 32.304C0.214021 30.8215 0.120428 29.2825 0.498399 27.794C0.87877 26.2935 2.52264 25.0852 4.10412 25.1693C4.22291 25.1754 4.3429 25.1693 4.4629 25.1681C4.28411 25.7044 4.09452 26.2334 4.10052 26.8153C4.11372 28.1343 4.12452 29.4533 4.09452 30.771C4.08372 31.2207 4.23611 31.3169 4.65368 31.3061C5.7444 31.2772 6.83751 31.2953 7.92943 31.2977C8.3542 31.2977 8.71417 31.5934 8.76696 32.0034C8.99375 33.7528 9.80129 35.1608 11.2136 36.2164C12.5191 37.1927 14.0034 37.5775 15.598 37.3839C17.0919 37.2012 18.3686 36.5327 19.3885 35.382C20.2165 34.449 20.7468 33.3945 20.8932 32.1549C20.9604 31.5814 21.252 31.3001 21.8316 31.2977C22.9079 31.2953 23.9854 31.2808 25.0617 31.3049C25.4457 31.3133 25.5813 31.2231 25.5717 30.8119C25.5441 29.5687 25.5429 28.3243 25.5693 27.0811C25.5837 26.409 25.4949 25.7729 25.2021 25.1681C26.156 25.1152 27.044 25.3052 27.8287 25.8775C28.7802 26.5725 29.3442 27.5428 29.3934 28.6838C29.457 30.1398 29.5746 31.6163 29.1678 33.0579C28.8498 34.1869 28.3063 35.1632 27.4807 36.0156C26.8244 36.6938 26.1128 37.2504 25.2501 37.6196C25.0857 37.6905 24.9969 37.8095 24.9381 37.9755C24.5434 39.0732 24.001 40.0771 23.3014 40.9741" fill="#CAD3D8"/>
<path d="M26.3169 7.71844C26.8929 9.10955 27.1413 10.5572 27.1005 12.0613C27.0813 12.7803 27.0657 13.5017 27.1041 14.2183C27.164 15.3341 26.9769 16.4041 26.6337 17.4562C26.1561 18.2509 25.6378 19.0096 24.8518 19.5386C23.9027 20.1759 22.8804 20.5606 21.7141 20.5089C21.4729 20.4981 21.2089 20.4127 20.9821 20.5895C20.1242 20.456 19.2603 20.5005 18.3975 20.5005C15.159 20.4981 11.9204 20.5005 8.68307 20.5005C7.66075 20.5498 6.64682 20.5089 5.7085 20.0412C3.98903 19.184 2.89471 17.8253 2.67513 15.8931C2.47114 14.0944 2.54794 12.2825 2.64873 10.4742C2.70513 9.47265 3.0843 8.56849 3.37708 7.63548C4.16182 6.28405 5.12054 5.08772 6.43924 4.21602C7.41117 3.61245 8.45749 3.19885 9.5854 3.00527C9.99337 2.93553 10.4097 2.87662 10.8225 2.87421C13.3603 2.86219 15.8981 2.8682 18.4359 2.8682C19.9178 2.8682 21.3265 3.16758 22.6428 3.87216C22.848 3.98157 23.0376 4.15471 23.3003 4.11383C23.3195 4.25931 23.4119 4.33866 23.5295 4.42042C23.9675 4.72702 24.3419 5.10696 24.727 5.47608C25.4014 6.12414 25.8622 6.91768 26.3181 7.71724L26.3169 7.71844ZM15.1206 17.4574C17.2744 17.4574 19.4282 17.437 21.5821 17.4646C22.9296 17.4814 24.0491 16.4691 24.0407 14.9878C24.0335 13.8792 24.0263 12.7695 24.0443 11.6609C24.0539 11.0621 23.9687 10.4742 23.8139 9.91151C23.3807 8.32442 22.428 7.14973 20.9065 6.4668C19.9574 6.04118 18.9975 6.01713 18.1227 6.57141C17.32 7.08 16.4825 7.35413 15.5489 7.46835C14.1091 7.6451 12.7808 7.39261 11.57 6.60267C10.8609 6.13977 10.0858 6.1025 9.31542 6.24798C8.50668 6.40068 7.85633 6.89364 7.26958 7.46715C6.31805 8.39896 5.7169 9.53157 5.6497 10.8481C5.57171 12.3715 5.6257 13.9033 5.6689 15.4302C5.6869 16.0735 6.02407 16.6013 6.53883 16.9945C7.10159 17.4225 7.73634 17.4862 8.43589 17.473C10.6641 17.4309 12.8923 17.4574 15.1206 17.4574Z" fill="#DCE4EA"/>
<path d="M25.2019 25.1666C25.4946 25.7714 25.5834 26.4074 25.569 27.0795C25.5426 28.3228 25.5438 29.5672 25.5714 30.8104C25.581 31.2216 25.4454 31.3118 25.0615 31.3034C23.9852 31.2781 22.9076 31.2925 21.8313 31.2961C21.2518 31.2973 20.9602 31.5787 20.893 32.1534C20.7466 33.3942 20.2163 34.4475 19.3883 35.3805C18.3684 36.5311 17.0917 37.1996 15.5978 37.3824C14.0043 37.5772 12.5188 37.1912 11.2133 36.2149C9.80105 35.1593 8.99351 33.7513 8.76673 32.0019C8.71393 31.5919 8.35396 31.2973 7.92919 31.2961C6.83728 31.2937 5.74536 31.2769 4.65344 31.3046C4.23468 31.3154 4.08349 31.2192 4.09429 30.7695C4.12428 29.4517 4.11468 28.1328 4.10029 26.8138C4.09429 26.2319 4.28267 25.7029 4.46266 25.1666C5.00382 24.4031 5.67336 23.7887 6.63089 23.6757C7.30644 23.5952 7.99759 23.6529 8.68153 23.6493C12.5932 23.6493 16.5049 23.6493 20.4178 23.6493C20.611 23.6493 20.8078 23.6733 20.983 23.5591C21.4846 23.7491 22.0053 23.642 22.5141 23.6372C23.4188 23.6288 24.1579 23.9547 24.7639 24.6087C24.9235 24.7819 25.0567 24.9802 25.2007 25.1666H25.2019ZM17.8416 31.2973C17.994 29.6658 16.5217 28.2266 14.8515 28.2254C13.0708 28.2254 11.7377 29.6081 11.7533 31.3094C11.7689 32.9902 13.204 34.403 14.8827 34.3609C16.3118 34.326 17.9256 33.1646 17.8416 31.2973Z" fill="#DCE4EA"/>
<path d="M20.9831 23.559C20.8079 23.6733 20.6111 23.6492 20.4179 23.6492C16.5062 23.6492 12.5945 23.6492 8.68164 23.6492C8.68164 22.5996 8.68164 21.5499 8.68164 20.5003C11.9202 20.5003 15.1587 20.4991 18.3961 20.5003C19.2588 20.5003 20.1228 20.4558 20.9807 20.5893C20.9807 21.5788 20.9807 22.5683 20.9807 23.5578L20.9831 23.559Z" fill="#CAD3D8"/>
<path d="M26.3166 7.71831C25.8606 6.91876 25.3999 6.12521 24.7255 5.47715C24.3403 5.10683 23.966 4.72689 23.528 4.4215C23.4104 4.33974 23.318 4.26038 23.2988 4.1149C23.3012 3.47405 23.3036 2.83441 23.306 2.19476C23.3108 1.06336 24.164 0.392457 25.2691 0.65096C25.3987 0.681019 25.5307 0.700256 25.6602 0.724303C25.641 0.874595 25.767 0.922689 25.8522 1.00084C26.1414 1.26536 26.3274 1.61283 26.331 1.98315C26.3502 3.89487 26.3874 5.8078 26.3166 7.71951V7.71831Z" fill="#CAD3D8"/>
<path d="M6.44018 4.21734C5.12149 5.08904 4.16276 6.28537 3.37802 7.6368C3.37802 5.82367 3.37562 4.01174 3.37802 2.19862C3.37802 1.27642 3.95638 0.625956 4.77951 0.610326C5.76104 0.591088 6.40179 1.17302 6.43299 2.15052C6.45578 2.83946 6.43898 3.5284 6.43898 4.21734H6.44018Z" fill="#CAD3D8"/>
<path d="M15.1215 17.4573C12.8933 17.4573 10.6638 17.4308 8.4368 17.4729C7.73726 17.4861 7.10251 17.4236 6.53975 16.9944C6.02499 16.6024 5.68782 16.0734 5.66982 15.4301C5.62782 13.9031 5.57262 12.3714 5.65062 10.848C5.71781 9.53023 6.31897 8.39882 7.27049 7.46701C7.85605 6.8935 8.5076 6.40054 9.31634 6.24784C10.0879 6.10236 10.8618 6.13963 11.571 6.60253C12.7817 7.39367 14.1112 7.64496 15.5499 7.46821C16.4846 7.35399 17.3221 7.07986 18.1237 6.57127C18.9984 6.01699 19.9583 6.04104 20.9074 6.46666C22.4289 7.14959 23.3817 8.32308 23.8148 9.91137C23.9684 10.4753 24.0548 11.0632 24.0452 11.6608C24.026 12.7693 24.0344 13.8791 24.0416 14.9876C24.0512 16.4689 22.9317 17.4825 21.583 17.4645C19.4292 17.4368 17.2753 17.4573 15.1215 17.4573ZM20.8918 11.7053C21.0094 11.2941 20.8487 10.8901 20.6231 10.5053C20.2463 9.86448 19.5144 9.66849 18.8304 9.95225C18.5268 10.0785 18.4308 10.3286 18.282 10.5582C17.8225 11.2664 17.7349 12.2163 18.2713 12.9617C18.7128 13.5761 19.2348 13.7504 19.7867 13.5821C20.4035 13.3945 21.0262 12.6311 20.8918 11.7053ZM11.7402 11.7401C11.7641 11.2929 11.5482 10.9454 11.3562 10.5546C11.109 10.0508 10.6962 9.86808 10.2631 9.81759C9.8047 9.76348 9.36553 10.0208 9.09435 10.4212C8.5136 11.2796 8.5388 12.2211 9.12915 13.0615C9.57552 13.6987 10.5366 13.8238 11.0742 13.3188C11.5302 12.8908 11.7761 12.3762 11.7414 11.7413L11.7402 11.7401ZM14.8131 15.1836C15.0363 15.1824 15.2607 15.1824 15.4839 15.1824C15.5139 15.1824 15.5439 15.1824 15.5739 15.1812C15.9602 15.1488 16.271 14.853 16.319 14.4791C16.3718 14.0691 16.1846 13.855 15.797 13.7312C15.2103 13.5436 14.6187 13.6579 14.0296 13.6482C13.654 13.6422 13.2664 14.039 13.2568 14.3696C13.246 14.7436 13.6408 15.156 14.0524 15.1812C14.3056 15.1969 14.5587 15.1836 14.8131 15.1836Z" fill="#0A365E"/>
<path d="M17.8404 31.2976C17.9244 33.1648 16.3105 34.3251 14.8814 34.3611C13.2028 34.4032 11.7677 32.9905 11.7521 31.3096C11.7365 29.6095 13.0696 28.2256 14.8503 28.2256C16.5217 28.2256 17.994 29.666 17.8404 31.2976Z" fill="#91D8DB"/>
<path d="M20.891 11.7055C21.0254 12.6325 20.4027 13.3948 19.7859 13.5823C19.234 13.7507 18.712 13.5763 18.2704 12.9619C17.7353 12.2165 17.8229 11.2678 18.2812 10.5585C18.43 10.3288 18.526 10.0787 18.8296 9.95248C19.5135 9.66872 20.2443 9.86471 20.6222 10.5056C20.8478 10.8891 21.0098 11.2943 20.891 11.7055Z" fill="#91D8DB"/>
<path d="M11.7405 11.7403C11.7753 12.3751 11.5293 12.8897 11.0733 13.3178C10.5358 13.8227 9.57586 13.6977 9.12829 13.0605C8.53914 12.22 8.51274 11.2786 9.09349 10.4201C9.36467 10.0185 9.80384 9.76123 10.2622 9.81654C10.6954 9.86824 11.1081 10.051 11.3553 10.5536C11.5473 10.9443 11.7621 11.2918 11.7393 11.7391L11.7405 11.7403Z" fill="#91D8DB"/>
<path d="M14.8143 15.1837C14.5611 15.1837 14.3067 15.1957 14.0536 15.1813C13.642 15.156 13.2472 14.7448 13.258 14.3697C13.2676 14.0378 13.6552 13.6423 14.0308 13.6483C14.6187 13.6579 15.2115 13.5437 15.7982 13.7313C16.1858 13.8551 16.373 14.0691 16.3202 14.4791C16.2722 14.853 15.9614 15.1488 15.5751 15.1813C15.5451 15.1837 15.5151 15.1825 15.4851 15.1825C15.2619 15.1825 15.0375 15.1825 14.8143 15.1825V15.1837Z" fill="#91D8DB"/>
</g>
<defs>
<clipPath id="clip0_2689_14089">
<rect width="44.4962" height="44.4962" fill="white" transform="translate(0.236328 0.580078)"/>
</clipPath>
</defs>
</svg>
