<svg width="20" height="20" viewBox="0 0 20 20" fill="none" xmlns="http://www.w3.org/2000/svg">
<rect opacity="0.12" x="1.66699" y="1.6665" width="16.6667" height="16.6667" rx="6" fill="#22272F"/>
<path fill-rule="evenodd" clip-rule="evenodd" d="M7.16699 0.833496C7.16699 0.557354 6.94313 0.333496 6.66699 0.333496C6.39085 0.333496 6.16699 0.557354 6.16699 0.833496V1.2522C5.38333 1.32787 4.74479 1.47345 4.17004 1.76629C3.13515 2.2936 2.29376 3.13499 1.76646 4.16988C1.45207 4.78689 1.30742 5.47744 1.23677 6.34212C1.16699 7.19625 1.16699 8.26317 1.16699 9.64394V9.66683V10.3335V10.3564C1.16699 11.7372 1.16699 12.8041 1.23677 13.6582C1.30742 14.5229 1.45207 15.2134 1.76646 15.8304C2.29376 16.8653 3.13515 17.7067 4.17004 18.234C4.78706 18.5484 5.47761 18.6931 6.34229 18.7637C7.19641 18.8335 8.26331 18.8335 9.64407 18.8335H9.64409H9.66699H10.3337H10.3566H10.3566C11.7373 18.8335 12.8042 18.8335 13.6584 18.7637C14.523 18.6931 15.2136 18.5484 15.8306 18.234C16.8655 17.7067 17.7069 16.8653 18.2342 15.8304C18.5486 15.2134 18.6932 14.5229 18.7639 13.6582C18.8337 12.8041 18.8337 11.7372 18.8337 10.3564V10.3564V10.3335V9.66683V9.64393V9.6439C18.8337 8.26315 18.8337 7.19625 18.7639 6.34212C18.6932 5.47744 18.5486 4.78689 18.2342 4.16988C17.7069 3.13499 16.8655 2.2936 15.8306 1.76629C15.2559 1.47345 14.6173 1.32787 13.8337 1.2522V0.833496C13.8337 0.557354 13.6098 0.333496 13.3337 0.333496C13.0575 0.333496 12.8337 0.557354 12.8337 0.833496V1.19091C12.1391 1.16683 11.325 1.16683 10.3566 1.16683H10.3565H10.3337H9.66699H9.64411H9.64409C8.67561 1.16683 7.86153 1.16683 7.16699 1.19091V0.833496ZM4.62404 2.6573C5.02661 2.45218 5.50179 2.32837 6.16699 2.25735V3.3335C6.16699 3.60964 6.39085 3.8335 6.66699 3.8335C6.94313 3.8335 7.16699 3.60964 7.16699 3.3335V2.19147C7.84441 2.16703 8.65753 2.16683 9.66699 2.16683H10.3337C11.3431 2.16683 12.1562 2.16703 12.8337 2.19147V3.3335C12.8337 3.60964 13.0575 3.8335 13.3337 3.8335C13.6098 3.8335 13.8337 3.60964 13.8337 3.3335V2.25735C14.4989 2.32837 14.974 2.45218 15.3766 2.6573C16.2233 3.08873 16.9118 3.77714 17.3432 4.62387C17.5738 5.07642 17.7016 5.62072 17.7672 6.42355C17.8333 7.23223 17.8337 8.25845 17.8337 9.66683V10.3335C17.8337 11.7419 17.8333 12.7681 17.7672 13.5768C17.7016 14.3796 17.5738 14.9239 17.3432 15.3765C16.9118 16.2232 16.2233 16.9116 15.3766 17.343C14.9241 17.5736 14.3798 17.7014 13.5769 17.767C12.7683 17.8331 11.742 17.8335 10.3337 17.8335H9.66699C8.25861 17.8335 7.2324 17.8331 6.42372 17.767C5.62088 17.7014 5.07658 17.5736 4.62404 17.343C3.77731 16.9116 3.08889 16.2232 2.65746 15.3765C2.42688 14.9239 2.29905 14.3796 2.23345 13.5768C2.16738 12.7681 2.16699 11.7419 2.16699 10.3335V9.66683C2.16699 8.25845 2.16738 7.23223 2.23345 6.42355C2.29905 5.62072 2.42688 5.07642 2.65746 4.62387C3.08889 3.77714 3.77731 3.08873 4.62404 2.6573ZM5.83366 6.16683C5.55752 6.16683 5.33366 6.39069 5.33366 6.66683C5.33366 6.94297 5.55752 7.16683 5.83366 7.16683H10.0003H14.167C14.4431 7.16683 14.667 6.94297 14.667 6.66683C14.667 6.39069 14.4431 6.16683 14.167 6.16683H10.0003H5.83366ZM6.66699 11.6668C7.12723 11.6668 7.50033 11.2937 7.50033 10.8335C7.50033 10.3733 7.12723 10.0002 6.66699 10.0002C6.20676 10.0002 5.83366 10.3733 5.83366 10.8335C5.83366 11.2937 6.20676 11.6668 6.66699 11.6668ZM6.66699 15.0002C7.12723 15.0002 7.50033 14.6271 7.50033 14.1668C7.50033 13.7066 7.12723 13.3335 6.66699 13.3335C6.20676 13.3335 5.83366 13.7066 5.83366 14.1668C5.83366 14.6271 6.20676 15.0002 6.66699 15.0002ZM10.8337 14.1668C10.8337 14.6271 10.4606 15.0002 10.0003 15.0002C9.54009 15.0002 9.16699 14.6271 9.16699 14.1668C9.16699 13.7066 9.54009 13.3335 10.0003 13.3335C10.4606 13.3335 10.8337 13.7066 10.8337 14.1668ZM13.3337 15.0002C13.7939 15.0002 14.167 14.6271 14.167 14.1668C14.167 13.7066 13.7939 13.3335 13.3337 13.3335C12.8734 13.3335 12.5003 13.7066 12.5003 14.1668C12.5003 14.6271 12.8734 15.0002 13.3337 15.0002ZM10.8337 10.8335C10.8337 11.2937 10.4606 11.6668 10.0003 11.6668C9.54009 11.6668 9.16699 11.2937 9.16699 10.8335C9.16699 10.3733 9.54009 10.0002 10.0003 10.0002C10.4606 10.0002 10.8337 10.3733 10.8337 10.8335ZM13.3337 11.6668C13.7939 11.6668 14.167 11.2937 14.167 10.8335C14.167 10.3733 13.7939 10.0002 13.3337 10.0002C12.8734 10.0002 12.5003 10.3733 12.5003 10.8335C12.5003 11.2937 12.8734 11.6668 13.3337 11.6668Z" fill="#22272F"/>
</svg>
