<svg width="20" height="20" viewBox="0 0 20 20" fill="none" xmlns="http://www.w3.org/2000/svg">
<g id="np_certificate_5804311_000000 1">
<path id="Vector" fill-rule="evenodd" clip-rule="evenodd" d="M6.93758 13.1563H4.43438C3.35392 13.1563 2.5 12.3196 2.5 11.3173V3.08906C2.5 2.08672 3.3539 1.25 4.43438 1.25H13.5938H13.6016H15.5657C16.6461 1.25 17.5 2.08672 17.5 3.08906V11.3173C17.5 12.3196 16.6461 13.1563 15.5657 13.1563H13.0625C12.9687 13.6173 12.7734 14.0423 12.5 14.4055V18.1251C12.5 18.3408 12.389 18.5415 12.2054 18.6556C12.0218 18.7697 11.7929 18.7814 11.5992 18.6861L9.97339 17.8861L8.40777 18.6822C8.21402 18.7806 7.98355 18.7712 7.79839 18.6579C7.61324 18.5447 7.49995 18.3423 7.49995 18.1251V14.4055C7.22651 14.0422 7.03132 13.6173 6.93758 13.1563ZM11.25 15.3953C10.8672 15.5633 10.4445 15.6563 9.99998 15.6563C9.55544 15.6563 9.1328 15.5633 8.74998 15.3953V17.1063L9.68592 16.6305C9.86092 16.5414 10.068 16.5399 10.2445 16.6266L11.25 17.1211V15.3953ZM13.0625 11.9063H15.5657C15.9313 11.9063 16.2501 11.6563 16.2501 11.3173V3.08906C16.2501 2.75 15.9313 2.5 15.5657 2.5H4.43448C4.06886 2.5 3.7501 2.75 3.7501 3.08906V11.3173C3.7501 11.6563 4.06886 11.9063 4.43448 11.9063H6.93768C7.22752 10.4805 8.48924 9.40632 10.0001 9.40632C11.5109 9.40632 12.7727 10.4805 13.0625 11.9063ZM6.87488 6.87512C6.52956 6.87512 6.24988 6.59544 6.24988 6.25012C6.24988 5.9048 6.52956 5.62512 6.87488 5.62512H13.1249C13.4702 5.62512 13.7499 5.9048 13.7499 6.25012C13.7499 6.59544 13.4702 6.87512 13.1249 6.87512H6.87488ZM9.99988 10.6563C8.96472 10.6563 8.12488 11.4962 8.12488 12.5313C8.12488 13.5665 8.96472 14.4063 9.99988 14.4063C11.035 14.4063 11.8749 13.5665 11.8749 12.5313C11.8749 11.4962 11.035 10.6563 9.99988 10.6563Z" fill="#98A2B3"/>
</g>
</svg>
