<svg width="15" height="15" viewBox="0 0 15 15" fill="none" xmlns="http://www.w3.org/2000/svg">
<g id="np_checkbox_798261_000000 1" clip-path="url(#clip0_3349_17613)">
<g id="Group">
<path id="Vector" d="M14.226 0.744141L1.62603 0.744141C1.20603 0.744141 0.926025 1.02414 0.926025 1.44414L0.926025 14.0441C0.926025 14.4641 1.20603 14.7441 1.62603 14.7441L14.226 14.7441C14.646 14.7441 14.926 14.4641 14.926 14.0441L14.926 1.44414C14.926 1.02414 14.646 0.744141 14.226 0.744141ZM13.526 13.3441L2.32603 13.3441L2.32603 2.14414L13.526 2.14414L13.526 13.3441Z" fill="#98A2B3"/>
<path id="Vector_2" d="M6.03607 10.3341C6.17607 10.4741 6.31607 10.5441 6.52607 10.5441C6.73607 10.5441 6.87607 10.4741 7.01607 10.3341L11.9161 5.43414C12.1961 5.15414 12.1961 4.73414 11.9161 4.45414C11.6361 4.17414 11.2161 4.17414 10.9361 4.45414L6.52607 8.86414L4.91607 7.25414C4.63607 6.97414 4.21607 6.97414 3.93607 7.25414C3.65607 7.53414 3.65607 7.95414 3.93607 8.23414L6.03607 10.3341Z" fill="#98A2B3"/>
</g>
</g>
<defs>
<clipPath id="clip0_3349_17613">
<rect width="14" height="14" fill="white" transform="translate(0.926025 0.744141)"/>
</clipPath>
</defs>
</svg>
