<svg width="41" height="41" viewBox="0 0 41 41" fill="none" xmlns="http://www.w3.org/2000/svg">
<path d="M12.71 29.5198H19.5037L20.1235 31.3776H20.1219C20.5496 32.662 21.7219 33.5541 23.0752 33.6198H23.2354C24.5342 33.623 25.7114 32.859 26.2399 31.6723L27.1912 29.5198L30.0004 32.3289C30.641 32.9695 31.6788 32.9695 32.3194 32.3289C32.9616 31.6867 32.9616 30.6489 32.3194 30.0082L29.5199 27.1911L31.6724 26.2398C33.1763 25.5719 33.953 23.8951 33.4886 22.3159C33.165 21.2573 32.3418 20.4245 31.2864 20.0898L29.5199 19.5036V12.7099C29.5199 9.76621 27.1336 7.37988 24.1899 7.37988H12.7099C9.76621 7.37988 7.37988 9.76621 7.37988 12.7099V24.1899C7.37988 27.1336 9.76636 29.5198 12.71 29.5198ZM30.34 23.2353L25.42 25.4198L23.2355 30.3398L19.68 19.6798L30.34 23.2353ZM10.66 12.7098C10.66 11.5775 11.5777 10.6598 12.71 10.6598H24.19C24.733 10.6598 25.2551 10.876 25.6395 11.2603C26.0238 11.6447 26.24 12.1668 26.24 12.7098V18.4079L20.7178 16.5677C19.539 16.1754 18.2385 16.4813 17.3609 17.3605C16.4816 18.2382 16.1757 19.5386 16.5681 20.7174L18.4083 26.2397H12.7101C11.5778 26.2397 10.6601 25.322 10.6601 24.1897L10.66 12.7098Z" fill="#73B6A6"/>
</svg>
