<svg width="24" height="24" viewBox="0 0 24 24" fill="none" xmlns="http://www.w3.org/2000/svg">
<rect opacity="0.12" x="2" y="2" width="20" height="20" rx="10" fill="#3E2C78"/>
<path fill-rule="evenodd" clip-rule="evenodd" d="M2.75 12C2.75 6.89137 6.89137 2.75 12 2.75C17.1086 2.75 21.25 6.89137 21.25 12C21.25 17.1086 17.1086 21.25 12 21.25C6.89137 21.25 2.75 17.1086 2.75 12ZM12 1.25C6.06294 1.25 1.25 6.06294 1.25 12C1.25 17.9371 6.06294 22.75 12 22.75C17.9371 22.75 22.75 17.9371 22.75 12C22.75 6.06294 17.9371 1.25 12 1.25ZM12.7502 7.53508C12.7502 7.12086 12.4144 6.78508 12.0002 6.78508C11.586 6.78508 11.2502 7.12086 11.2502 7.53508V12.0002C11.2502 12.251 11.3755 12.4851 11.5842 12.6242L14.933 14.8568C15.2777 15.0866 15.7433 14.9934 15.9731 14.6488C16.2028 14.3041 16.1097 13.8385 15.7651 13.6087L12.7502 11.5988V7.53508Z" fill="#3E2C78"/>
</svg>
