<svg width="21" height="21" viewBox="0 0 21 21" fill="none" xmlns="http://www.w3.org/2000/svg">
    <path d="M10.4983 1.66468C10.7277 1.66468 10.957 1.66802 11.0488 1.67304C11.4533 1.69811 11.3983 3.91548 11.7961 3.99507C12.1556 4.06696 13.5477 4.56343 13.8638 4.74899C13.883 4.76069 13.9055 4.7657 13.9314 4.7657C14.3351 4.7657 15.4494 3.42754 15.8481 3.42754C15.8782 3.42754 15.9049 3.43506 15.9257 3.45178C16.0717 3.56378 16.6388 4.031 16.769 4.16056C17.0576 4.44724 15.6063 6.09719 15.8515 6.42055C16.0733 6.71309 16.8349 7.98189 16.9516 8.33043C16.9992 8.47085 17.3228 8.50094 17.719 8.50094C18.0017 8.50094 18.322 8.4859 18.6048 8.4859C19.0076 8.4859 19.3329 8.51682 19.3638 8.66477C19.4013 8.84447 19.5398 9.56748 19.5548 9.75051C19.5882 10.1559 17.4254 10.4852 17.4029 10.8914C17.382 11.2583 17.1543 12.7211 17.0209 13.0637C16.8732 13.4423 18.8459 14.5147 18.654 14.8732C18.5681 15.0354 18.2086 15.6781 18.1043 15.8286C18.0743 15.8712 18.0168 15.8896 17.9392 15.8896C17.4855 15.8896 16.3386 15.2652 15.8823 15.2652C15.8106 15.2652 15.7564 15.2803 15.7247 15.3154C15.4761 15.5862 14.3576 16.5516 14.039 16.733C13.687 16.9336 14.5036 19.0139 14.1299 19.1712C13.9606 19.2422 13.2717 19.498 13.0957 19.5481C13.0856 19.5515 13.0748 19.5523 13.0648 19.5523C12.6753 19.5523 12.0113 17.6207 11.6185 17.6207C11.6127 17.6207 11.6068 17.6216 11.601 17.6224C11.42 17.6508 10.9604 17.6642 10.5008 17.6642C10.0413 17.6642 9.58166 17.6508 9.40068 17.6224C9.39484 17.6216 9.389 17.6207 9.38316 17.6207C8.99032 17.6207 8.32638 19.5523 7.93686 19.5523C7.92602 19.5523 7.91601 19.5506 7.906 19.5481C7.73001 19.498 7.04105 19.2422 6.87173 19.1712C6.49722 19.014 7.31462 16.9345 6.96181 16.733C6.64319 16.5507 5.52384 15.5862 5.27613 15.3154C5.2436 15.2803 5.18938 15.2652 5.11849 15.2652C4.66224 15.2652 3.51537 15.8896 3.06163 15.8896C2.98406 15.8896 2.92651 15.8712 2.89648 15.8286C2.79139 15.6781 2.43272 15.0354 2.34599 14.8732C2.15498 14.5147 4.12676 13.4423 3.97912 13.0637C3.84567 12.721 3.61797 11.2583 3.5971 10.8914C3.57458 10.4852 1.41188 10.1559 1.44519 9.75051C1.4602 9.56746 1.59949 8.84446 1.63619 8.66477C1.66705 8.51599 1.99235 8.4859 2.39521 8.4859C2.67713 8.4859 2.99742 8.50094 3.28101 8.50094C3.6772 8.50094 4.00082 8.47169 4.04838 8.33043C4.16515 7.98189 4.92667 6.71309 5.14853 6.42055C5.39457 6.09708 3.94328 4.4463 4.23186 4.16056C4.36198 4.03101 4.92915 3.56377 5.07512 3.45178C5.0968 3.43506 5.12266 3.42754 5.15269 3.42754C5.55138 3.42754 6.66571 4.7657 7.06942 4.7657C7.09528 4.7657 7.1178 4.76069 7.13699 4.74899C7.45311 4.56343 8.84519 4.06695 9.20552 3.99507C9.60338 3.91567 9.54834 1.69914 9.95286 1.67304C10.0396 1.66802 10.2689 1.66468 10.4983 1.66468ZM10.4984 0.221193C10.3274 0.221193 10.0171 0.222864 9.85861 0.232894C9.50747 0.254625 8.65503 0.43851 8.32389 1.66634C8.24465 1.96056 8.19377 2.29239 8.1454 2.61335C8.13622 2.67186 8.12538 2.74206 8.11454 2.81478C7.82177 2.91258 7.49898 3.02876 7.20538 3.14411C7.15117 3.09647 7.09862 3.0505 7.05525 3.01205C6.43135 2.46124 5.89254 1.9848 5.14936 1.9848C4.79738 1.9848 4.46625 2.09764 4.19182 2.30994C4.08673 2.39185 3.42781 2.92511 3.21511 3.13575C2.9699 3.3798 2.45609 4.06771 2.98072 5.20361C3.10834 5.48027 3.28184 5.76612 3.44948 6.04362C3.48117 6.09544 3.51787 6.15729 3.55624 6.22165C3.39693 6.47908 3.22177 6.7758 3.06746 7.05664C3.0024 7.05497 2.93651 7.0533 2.86978 7.05246C2.70713 7.04828 2.54449 7.0441 2.39184 7.0441C2.05904 7.0441 1.81466 7.06249 1.59947 7.10428C0.520994 7.31241 0.272449 8.12902 0.221566 8.37475C0.219898 8.38394 0.0330632 9.30671 0.00554182 9.63351C-0.0294893 10.059 0.0731036 10.8463 1.15491 11.3562C1.43017 11.4857 1.74627 11.5935 2.05155 11.6972C2.1091 11.7173 2.17833 11.7407 2.24923 11.7649C2.2926 12.0641 2.34848 12.4035 2.41021 12.7169C2.35432 12.762 2.30011 12.8055 2.25423 12.8415C1.99984 13.0446 1.73709 13.2544 1.5219 13.47C0.603569 14.3928 0.901352 15.2361 1.07232 15.5562C1.07649 15.5638 1.52357 16.3871 1.71207 16.657C2.01233 17.0891 2.50361 17.3366 3.05912 17.3366C3.55623 17.3366 4.06671 17.1376 4.60718 16.927C4.6639 16.9053 4.73146 16.8785 4.80153 16.8518C5.0284 17.054 5.28947 17.2764 5.53635 17.4753C5.52217 17.5472 5.50883 17.6157 5.49715 17.6734C5.43293 17.9919 5.36703 18.322 5.34118 18.6262C5.23025 19.9084 5.98425 20.3681 6.31373 20.506C6.49305 20.5821 7.2479 20.8655 7.50646 20.9398C7.64575 20.9799 7.79004 21 7.93601 21C8.98447 21 9.48158 20.0898 9.91948 19.2866C9.94867 19.2347 9.98203 19.1712 10.0179 19.1069C10.1847 19.1102 10.3515 19.111 10.5 19.111C10.6485 19.111 10.8145 19.1094 10.9813 19.1069C11.0171 19.1712 11.0513 19.2339 11.0805 19.2866C11.5193 20.0898 12.0164 21 13.064 21C13.2091 21 13.3526 20.9791 13.4919 20.9398C13.7513 20.8654 14.5061 20.5821 14.6863 20.506C15.0149 20.3681 15.7689 19.9076 15.6588 18.6254C15.633 18.3212 15.5663 17.9919 15.5029 17.6734C15.4912 17.6157 15.4778 17.5464 15.4637 17.4753C15.7097 17.2764 15.9708 17.054 16.1977 16.8518C16.2677 16.8785 16.3353 16.9053 16.392 16.927C16.9325 17.1376 17.443 17.3366 17.9401 17.3366C18.4956 17.3366 18.986 17.0892 19.2871 16.6579C19.4765 16.3862 19.9227 15.5637 19.9269 15.5562C20.0978 15.2378 20.3956 14.3936 19.4773 13.4717C19.2621 13.2552 18.9993 13.0454 18.745 12.8415C18.6991 12.8055 18.6457 12.762 18.589 12.7169C18.6507 12.4035 18.7066 12.0641 18.75 11.7649C18.8217 11.7398 18.8901 11.7164 18.9485 11.6972C19.2537 11.5936 19.5699 11.4857 19.8451 11.3562C20.9261 10.8463 21.0295 10.059 20.9945 9.63435C20.967 9.30755 20.7801 8.3831 20.7776 8.37392C20.7276 8.12986 20.4782 7.31242 19.3997 7.10428C19.1845 7.06249 18.941 7.0441 18.6073 7.0441C18.4547 7.0441 18.292 7.04828 18.1294 7.05246C18.0635 7.05413 17.9976 7.05581 17.9317 7.05664C17.7774 6.7758 17.6023 6.47992 17.4429 6.22165C17.4813 6.15729 17.5188 6.09544 17.5505 6.04362C17.7182 5.76695 17.8917 5.48027 18.0193 5.20361C18.1936 4.82498 18.5214 3.86627 17.7849 3.13575C17.5714 2.92428 16.9133 2.39101 16.8074 2.3091C16.5329 2.09764 16.2018 1.9848 15.8507 1.9848C15.1075 1.9848 14.5687 2.46124 13.9448 3.01205C13.9006 3.0505 13.8489 3.09647 13.7946 3.14411C13.501 3.0296 13.1783 2.91343 12.8855 2.81562C12.8738 2.7429 12.863 2.67269 12.8546 2.61418C12.8054 2.29322 12.7554 1.96139 12.6753 1.66718C12.3442 0.439336 11.4917 0.255447 11.1406 0.233729C10.9796 0.222027 10.6693 0.221193 10.4984 0.221193Z" fill="#3E2C78"/>
    <path d="M10.4979 15.1485C8.00066 15.1485 5.96875 13.1124 5.96875 10.6099C5.96875 8.10737 8.00058 6.07129 10.4979 6.07129C12.9951 6.07129 15.027 8.10737 15.027 10.6099C15.027 13.1124 12.9951 15.1485 10.4979 15.1485ZM10.4979 7.51475C8.79464 7.51475 7.41005 8.90308 7.41005 10.6099C7.41005 12.3167 8.79547 13.705 10.4979 13.705C12.2011 13.705 13.5865 12.3167 13.5865 10.6099C13.5865 8.90308 12.2011 7.51475 10.4979 7.51475Z" fill="#3E2C78"/>
</svg>
