<svg width="20" height="20" viewBox="0 0 20 20" fill="none" xmlns="http://www.w3.org/2000/svg">
<g id="np_copy_5783193_000000 1">
<path id="Vector" fill-rule="evenodd" clip-rule="evenodd" d="M6.5 4H5.875C5.37734 4 4.90078 4.19766 4.54922 4.54922C4.19766 4.90078 4 5.37734 4 5.875V17.125C4 17.6227 4.19766 18.0992 4.54922 18.4508C4.90078 18.8023 5.37734 19 5.875 19H14.625C15.1227 19 15.5992 18.8023 15.9508 18.4508C16.3023 18.0992 16.5 17.6227 16.5 17.125V16.5H17.75C18.2477 16.5 18.7242 16.3023 19.0758 15.9508C19.4273 15.5992 19.625 15.1227 19.625 14.625V3.375C19.625 2.87734 19.4273 2.40078 19.0758 2.04922C18.7242 1.69766 18.2477 1.5 17.75 1.5H8.375C7.33906 1.5 6.5 2.33906 6.5 3.375V4ZM5.875 5.25H14.625C14.7906 5.25 14.95 5.31562 15.0672 5.43281C15.1844 5.55 15.25 5.70937 15.25 5.87499V17.125C15.25 17.2906 15.1844 17.45 15.0672 17.5672C14.95 17.6844 14.7906 17.75 14.625 17.75H5.875C5.70938 17.75 5.55 17.6844 5.43282 17.5672C5.31563 17.45 5.25001 17.2906 5.25001 17.125V5.87499C5.25001 5.70937 5.31563 5.54999 5.43282 5.43281C5.55001 5.31562 5.70938 5.25 5.875 5.25ZM7.125 15.875H13.375C13.7203 15.875 14 15.5953 14 15.25C14 14.9047 13.7203 14.625 13.375 14.625H7.125C6.77968 14.625 6.5 14.9047 6.5 15.25C6.5 15.5953 6.77968 15.875 7.125 15.875ZM16.5 15.25H17.75C17.9156 15.25 18.075 15.1844 18.1922 15.0672C18.3094 14.95 18.375 14.7906 18.375 14.625V3.37501C18.375 3.20938 18.3094 3.05001 18.1922 2.93283C18.075 2.81564 17.9156 2.75002 17.75 2.75002H8.375C8.02968 2.75002 7.75 3.0297 7.75 3.37502V4.00002H14.625C15.1227 4.00002 15.5992 4.19767 15.9508 4.54924C16.3023 4.9008 16.5 5.37736 16.5 5.87502V15.25ZM7.125 13.375H13.375C13.7203 13.375 14 13.0953 14 12.75C14 12.4047 13.7203 12.125 13.375 12.125H7.125C6.77968 12.125 6.5 12.4047 6.5 12.75C6.5 13.0953 6.77968 13.375 7.125 13.375ZM7.125 10.875H13.375C13.7203 10.875 14 10.5953 14 10.25C14 9.90468 13.7203 9.625 13.375 9.625H7.125C6.77968 9.625 6.5 9.90468 6.5 10.25C6.5 10.5953 6.77968 10.875 7.125 10.875ZM7.125 8.375H13.375C13.7203 8.375 14 8.09532 14 7.75C14 7.40468 13.7203 7.125 13.375 7.125H7.125C6.77968 7.125 6.5 7.40468 6.5 7.75C6.5 8.09532 6.77968 8.375 7.125 8.375Z" fill="#667085"/>
</g>
</svg>
