<svg width="25" height="28" viewBox="0 0 25 28" fill="none" xmlns="http://www.w3.org/2000/svg">
    <g clip-path="url(#clip0_3473_18734)">
        <path d="M23.731 6.10216L13.8642 0.381385C13.4518 0.127128 12.9759 0 12.5 0C12.0241 0 11.5482 0.127128 11.1358 0.381385L1.26904 6.10216C0.475888 6.54711 0 7.40522 0 8.29512V19.7367C0 20.6266 0.475888 21.4529 1.26904 21.9296L11.1358 27.6504C11.9924 28.1271 13.0076 28.1271 13.8642 27.6504L23.731 21.9296C24.5241 21.4847 25 20.6266 25 19.7367V8.26334C25 7.37344 24.5241 6.54711 23.731 6.10216ZM11.3579 25.1396L2.31599 19.8956V9.37571L11.3261 14.6198V25.1396H11.3579ZM3.45812 7.437L12.5 2.16118L21.5419 7.40522L12.5 12.6493L3.45812 7.437ZM22.684 19.8956L13.6739 25.1396V14.6198L22.684 9.37571V19.8956Z"
              fill="#3E2C78"/>
    </g>
    <defs>
        <clipPath id="clip0_3473_18734">
            <rect width="25" height="28" fill="white"/>
        </clipPath>
    </defs>
</svg>
