<svg width="21" height="22" viewBox="0 0 21 22" fill="none" xmlns="http://www.w3.org/2000/svg">
<path d="M15.5732 2.66701H14.6669V1.62501C14.6669 1.04981 14.2001 0.583008 13.6249 0.583008C13.0497 0.583008 12.5829 1.04981 12.5829 1.62501V2.66701H8.41693V1.62501C8.41693 1.04981 7.95013 0.583008 7.37493 0.583008C6.79973 0.583008 6.33293 1.04981 6.33293 1.62501V2.66701H5.42668C4.00968 2.66701 2.65043 3.22951 1.64843 4.23146C0.646483 5.23438 0.0830078 6.59278 0.0830078 8.01071V16.0732C0.0830078 17.4902 0.646483 18.8495 1.64843 19.8515C2.65038 20.8535 4.00976 21.4169 5.42668 21.4169H15.5732C16.9902 21.4169 18.3494 20.8534 19.3514 19.8515C20.3534 18.8495 20.9169 17.4901 20.9169 16.0732V8.01071C20.9169 6.59273 20.3534 5.23446 19.3514 4.23146C18.3495 3.22951 16.9901 2.66701 15.5732 2.66701ZM2.16693 8.01076C2.16693 6.20998 3.62591 4.75001 5.42668 4.75001H6.33293V5.79201C6.33293 6.36721 6.79973 6.83303 7.37493 6.83303C7.95013 6.83303 8.41693 6.36721 8.41693 5.79201V4.75001H12.5839L12.583 5.79201C12.583 6.36721 13.0498 6.83303 13.625 6.83303C14.2002 6.83303 14.667 6.36721 14.667 5.79201V4.75001H15.5732C17.374 4.75001 18.833 6.20996 18.833 8.01076V8.91701H2.16696L2.16693 8.01076ZM18.8339 16.0733H18.833C18.833 17.874 17.374 19.333 15.5732 19.333H5.42671C3.62593 19.333 2.16696 17.874 2.16696 16.0733V11H18.833L18.8339 16.0733Z" fill="#463288"/>
</svg>
