<svg width="21" height="21" viewBox="0 0 21 21" fill="none" xmlns="http://www.w3.org/2000/svg">
<g id="calendar-dates" clip-path="url(#clip0_3325_22769)">
<path id="Icon" fill-rule="evenodd" clip-rule="evenodd" d="M7.35806 1.26978C7.35806 0.938405 7.08943 0.669775 6.75806 0.669775C6.42669 0.669775 6.15806 0.938405 6.15806 1.26978L6.15806 1.59805C5.40805 1.67681 4.78311 1.82437 4.21571 2.11347C3.162 2.65036 2.30531 3.50705 1.76842 4.56076C1.44566 5.19422 1.29932 5.89939 1.22817 6.77026C1.15805 7.62847 1.15805 8.69879 1.15806 10.0759L1.15806 10.1031L1.15806 10.7698L1.15806 10.797C1.15805 12.1741 1.15805 13.2444 1.22817 14.1026C1.29932 14.9735 1.44566 15.6787 1.76842 16.3121C2.30531 17.3658 3.162 18.2225 4.21571 18.7594C4.84917 19.0822 5.55434 19.2285 6.42521 19.2997C7.28344 19.3698 8.35377 19.3698 9.73091 19.3698L9.75806 19.3698L10.4247 19.3698L10.4519 19.3698C11.829 19.3698 12.8993 19.3698 13.7576 19.2997C14.6284 19.2285 15.3336 19.0822 15.9671 18.7594C17.0208 18.2225 17.8775 17.3658 18.4144 16.3121C18.7371 15.6787 18.8835 14.9735 18.9546 14.1026C19.0247 13.2444 19.0247 12.1741 19.0247 10.797L19.0247 10.7698L19.0247 10.1031L19.0247 10.0759C19.0247 8.69877 19.0247 7.62847 18.9546 6.77026C18.8835 5.89939 18.7371 5.19422 18.4144 4.56076C17.8775 3.50705 17.0208 2.65036 15.9671 2.11347C15.3997 1.82437 14.7747 1.67681 14.0247 1.59805L14.0247 1.26978C14.0247 0.938405 13.7561 0.669775 13.4247 0.669775C13.0934 0.669775 12.8247 0.938405 12.8247 1.26978L12.8247 1.52387C12.1514 1.5031 11.3698 1.50311 10.4519 1.50311L10.4247 1.50311L9.75806 1.50311L9.73084 1.50311C8.81297 1.50311 8.03138 1.5031 7.35806 1.52387L7.35806 1.26978ZM4.7605 3.18268C5.12636 2.99626 5.55808 2.87745 6.15806 2.80558L6.15806 3.76978C6.15806 4.10115 6.42669 4.36978 6.75806 4.36978C7.08943 4.36978 7.35806 4.10115 7.35806 3.76978L7.35806 2.72439C8.01303 2.70333 8.79489 2.70311 9.75806 2.70311L10.4247 2.70311C11.3879 2.70311 12.1697 2.70333 12.8247 2.72439L12.8247 3.76978C12.8247 4.10115 13.0934 4.36978 13.4247 4.36978C13.7561 4.36978 14.0247 4.10115 14.0247 3.76978L14.0247 2.80558C14.6247 2.87745 15.0564 2.99626 15.4223 3.18268C16.2502 3.60452 16.9233 4.27764 17.3451 5.10555C17.5674 5.54165 17.6935 6.07132 17.7586 6.86798C17.8243 7.67164 17.8247 8.69308 17.8247 10.1031L17.8247 10.7698C17.8247 12.1798 17.8243 13.2012 17.7586 14.0049C17.6935 14.8016 17.5674 15.3312 17.3451 15.7673C16.9233 16.5952 16.2502 17.2684 15.4223 17.6902C14.9862 17.9124 14.4565 18.0386 13.6599 18.1036C12.8562 18.1693 11.8348 18.1698 10.4247 18.1698L9.75806 18.1698C8.34802 18.1698 7.32659 18.1693 6.52293 18.1036C5.72627 18.0386 5.1966 17.9124 4.7605 17.6902C3.93258 17.2684 3.25947 16.5952 2.83763 15.7673C2.61542 15.3312 2.48927 14.8016 2.42418 14.0049C2.35852 13.2012 2.35806 12.1798 2.35806 10.7698L2.35806 10.1031C2.35806 8.69308 2.35852 7.67164 2.42418 6.86798C2.48927 6.07132 2.61542 5.54165 2.83763 5.10555C3.25947 4.27764 3.93259 3.60452 4.7605 3.18268ZM5.92472 6.50311C5.59335 6.50311 5.32472 6.77174 5.32472 7.10311C5.32472 7.43448 5.59335 7.70311 5.92472 7.70311L10.0914 7.70311L14.2581 7.70311C14.5894 7.70311 14.8581 7.43448 14.8581 7.10311C14.8581 6.77174 14.5894 6.50311 14.2581 6.50311L10.0914 6.50311L5.92472 6.50311ZM6.75806 12.1031C7.21829 12.1031 7.59139 11.73 7.59139 11.2698C7.59139 10.8095 7.21829 10.4364 6.75806 10.4364C6.29782 10.4364 5.92472 10.8095 5.92472 11.2698C5.92472 11.73 6.29782 12.1031 6.75806 12.1031ZM6.75806 15.4364C7.21829 15.4364 7.59139 15.0633 7.59139 14.6031C7.59139 14.1429 7.21829 13.7698 6.75806 13.7698C6.29782 13.7698 5.92472 14.1429 5.92472 14.6031C5.92472 15.0633 6.29782 15.4364 6.75806 15.4364ZM10.9247 14.6031C10.9247 15.0633 10.5516 15.4364 10.0914 15.4364C9.63115 15.4364 9.25806 15.0633 9.25806 14.6031C9.25806 14.1429 9.63115 13.7698 10.0914 13.7698C10.5516 13.7698 10.9247 14.1429 10.9247 14.6031ZM13.4247 15.4364C13.885 15.4364 14.2581 15.0633 14.2581 14.6031C14.2581 14.1429 13.885 13.7698 13.4247 13.7698C12.9645 13.7698 12.5914 14.1429 12.5914 14.6031C12.5914 15.0633 12.9645 15.4364 13.4247 15.4364ZM10.9247 11.2698C10.9247 11.73 10.5516 12.1031 10.0914 12.1031C9.63115 12.1031 9.25806 11.73 9.25806 11.2698C9.25806 10.8095 9.63115 10.4364 10.0914 10.4364C10.5516 10.4364 10.9247 10.8095 10.9247 11.2698ZM13.4247 12.1031C13.885 12.1031 14.2581 11.73 14.2581 11.2698C14.2581 10.8095 13.885 10.4364 13.4247 10.4364C12.9645 10.4364 12.5914 10.8095 12.5914 11.2698C12.5914 11.73 12.9645 12.1031 13.4247 12.1031Z" fill="#98A2B3"/>
</g>
<defs>
<clipPath id="clip0_3325_22769">
<rect width="20" height="20" fill="white" transform="translate(0.0914307 0.436523)"/>
</clipPath>
</defs>
</svg>
