<svg width="24" height="24" viewBox="0 0 24 24" fill="none" xmlns="http://www.w3.org/2000/svg">
<rect opacity="0.12" x="4" y="1" width="20" height="20" rx="6" fill="#272B47"/>
<path fill-rule="evenodd" clip-rule="evenodd" d="M10.3161 1H10.35H11.15H11.1839C12.8354 0.999996 14.1208 0.999993 15.1519 1.08424C16.1988 1.16977 17.0494 1.34588 17.8144 1.73571C19.0845 2.38285 20.1171 3.41547 20.7643 4.68556C21.1541 5.45065 21.3302 6.30124 21.4158 7.34814C21.5 8.37922 21.5 9.66461 21.5 11.316V11.35V12.15V12.184C21.5 13.8354 21.5 15.1208 21.4158 16.1519C21.3302 17.1988 21.1541 18.0494 20.7643 18.8144C20.1171 20.0845 19.0845 21.1171 17.8144 21.7643C17.0494 22.1541 16.1988 22.3302 15.1519 22.4158C14.1208 22.5 12.8354 22.5 11.184 22.5H11.15H10.35H10.316C8.66461 22.5 7.37922 22.5 6.34814 22.4158C5.30124 22.3302 4.45065 22.1541 3.68556 21.7643C2.41547 21.1171 1.38285 20.0845 0.735706 18.8144C0.345875 18.0494 0.169771 17.1988 0.084236 16.1519C-6.9797e-06 15.1208 -3.88026e-06 13.8354 5.36475e-08 12.1839V12.15V11.35V11.3161C-3.88026e-06 9.66462 -6.9797e-06 8.37922 0.084236 7.34814C0.169771 6.30124 0.345875 5.45065 0.735706 4.68556C1.38285 3.41547 2.41547 2.38285 3.68556 1.73571C4.45065 1.34588 5.30124 1.16977 6.34814 1.08424C7.37922 0.999993 8.66462 0.999996 10.3161 1ZM6.47029 2.57925C5.51615 2.65721 4.88493 2.80809 4.36655 3.07222C3.3787 3.57555 2.57555 4.3787 2.07222 5.36655C1.80809 5.88493 1.65721 6.51615 1.57925 7.47029C1.50058 8.43317 1.5 9.65747 1.5 11.35V12.15C1.5 13.8425 1.50058 15.0668 1.57925 16.0297C1.65721 16.9838 1.80809 17.6151 2.07222 18.1334C2.57555 19.1213 3.3787 19.9244 4.36655 20.4278C4.88493 20.6919 5.51615 20.8428 6.47029 20.9207C7.43317 20.9994 8.65747 21 10.35 21H11.15C12.8425 21 14.0668 20.9994 15.0297 20.9207C15.9838 20.8428 16.6151 20.6919 17.1334 20.4278C18.1213 19.9244 18.9244 19.1213 19.4278 18.1334C19.6919 17.6151 19.8428 16.9838 19.9207 16.0297C19.9994 15.0668 20 13.8425 20 12.15V11.35C20 9.65747 19.9994 8.43317 19.9207 7.47029C19.8428 6.51615 19.6919 5.88493 19.4278 5.36655C18.9244 4.3787 18.1213 3.57555 17.1334 3.07222C16.6151 2.80809 15.9838 2.65721 15.0297 2.57925C14.0668 2.50058 12.8425 2.5 11.15 2.5H10.35C8.65747 2.5 7.43317 2.50058 6.47029 2.57925Z" fill="#272B47"/>
</svg>
