<svg width="14" height="13" viewBox="0 0 14 13" fill="none" xmlns="http://www.w3.org/2000/svg">
<g id="edit-2" clip-path="url(#clip0_3317_17946)">
<path id="Icon" d="M9.83345 1.684C9.97398 1.54347 10.1408 1.43199 10.3244 1.35593C10.5081 1.27987 10.7049 1.24072 10.9036 1.24072C11.1024 1.24072 11.2992 1.27987 11.4828 1.35593C11.6664 1.43199 11.8333 1.54347 11.9738 1.684C12.1143 1.82454 12.2258 1.99138 12.3019 2.175C12.3779 2.35863 12.4171 2.55543 12.4171 2.75418C12.4171 2.95293 12.3779 3.14973 12.3019 3.33335C12.2258 3.51697 12.1143 3.68382 11.9738 3.82435L4.75011 11.048L1.80713 11.8507L2.60976 8.90769L9.83345 1.684Z" stroke="#667085" stroke-width="1.07018" stroke-linecap="round" stroke-linejoin="round"/>
</g>
<defs>
<clipPath id="clip0_3317_17946">
<rect width="12.8421" height="12.8421" fill="white" transform="translate(0.736816 0.0788574)"/>
</clipPath>
</defs>
</svg>
