<svg width="24" height="24" viewBox="0 0 24 24" fill="none" xmlns="http://www.w3.org/2000/svg">
<path opacity="0.12" fill-rule="evenodd" clip-rule="evenodd" d="M2.21799 15.092C2 15.5198 2 16.0799 2 17.2V18.8C2 19.9201 2 20.4802 2.21799 20.908C2.40973 21.2843 2.71569 21.5903 3.09202 21.782C3.51984 22 4.0799 22 5.2 22H6.8C7.9201 22 8.48016 22 8.90798 21.782C9.28431 21.5903 9.59027 21.2843 9.78201 20.908C10 20.4802 10 19.9201 10 18.8V17.2C10 16.0799 10 15.5198 9.78201 15.092C9.59027 14.7157 9.28431 14.4097 8.90798 14.218C8.48016 14 7.9201 14 6.8 14H5.2C4.0799 14 3.51984 14 3.09202 14.218C2.71569 14.4097 2.40973 14.7157 2.21799 15.092ZM14.218 15.092C14 15.5198 14 16.0799 14 17.2V18.8C14 19.9201 14 20.4802 14.218 20.908C14.4097 21.2843 14.7157 21.5903 15.092 21.782C15.5198 22 16.0799 22 17.2 22H18.8C19.9201 22 20.4802 22 20.908 21.782C21.2843 21.5903 21.5903 21.2843 21.782 20.908C22 20.4802 22 19.9201 22 18.8V17.2C22 16.0799 22 15.5198 21.782 15.092C21.5903 14.7157 21.2843 14.4097 20.908 14.218C20.4802 14 19.9201 14 18.8 14H17.2C16.0799 14 15.5198 14 15.092 14.218C14.7157 14.4097 14.4097 14.7157 14.218 15.092Z" fill="#3E2C78"/>
<path fill-rule="evenodd" clip-rule="evenodd" d="M5.2 1.25L5.16957 1.25C4.63541 1.24999 4.18956 1.24998 3.82533 1.27974C3.44545 1.31078 3.08879 1.37789 2.75153 1.54973C2.23408 1.81338 1.81338 2.23408 1.54973 2.75153C1.37789 3.08879 1.31078 3.44545 1.27974 3.82533C1.24998 4.18956 1.24999 4.63541 1.25 5.16957L1.25 5.2V6.8L1.25 6.83044C1.24999 7.36459 1.24998 7.81044 1.27974 8.17467C1.31078 8.55456 1.37789 8.91121 1.54973 9.24848C1.81338 9.76592 2.23408 10.1866 2.75153 10.4503C3.08879 10.6221 3.44545 10.6892 3.82533 10.7203C4.18955 10.75 4.63538 10.75 5.16951 10.75H5.16955H5.2H6.8H6.83045H6.83049C7.36462 10.75 7.81045 10.75 8.17467 10.7203C8.55456 10.6892 8.91121 10.6221 9.24848 10.4503C9.76592 10.1866 10.1866 9.76592 10.4503 9.24848C10.6221 8.91121 10.6892 8.55456 10.7203 8.17467C10.75 7.81045 10.75 7.36462 10.75 6.83049V6.83045V6.8V5.2V5.16955V5.16951C10.75 4.63538 10.75 4.18955 10.7203 3.82533C10.6892 3.44545 10.6221 3.08879 10.4503 2.75153C10.1866 2.23408 9.76592 1.81338 9.24848 1.54973C8.91121 1.37789 8.55456 1.31078 8.17467 1.27974C7.81044 1.24998 7.36459 1.24999 6.83044 1.25L6.8 1.25H5.2ZM3.43251 2.88624C3.52307 2.8401 3.66036 2.79822 3.94748 2.77476C4.24336 2.75058 4.62757 2.75 5.2 2.75H6.8C7.37243 2.75 7.75664 2.75058 8.05252 2.77476C8.33965 2.79822 8.47693 2.8401 8.56749 2.88624C8.80269 3.00608 8.99392 3.19731 9.11376 3.43251C9.1599 3.52307 9.20178 3.66036 9.22524 3.94748C9.24942 4.24336 9.25 4.62757 9.25 5.2V6.8C9.25 7.37243 9.24942 7.75664 9.22524 8.05252C9.20178 8.33965 9.1599 8.47693 9.11376 8.56749C8.99392 8.80269 8.80269 8.99392 8.56749 9.11376C8.47693 9.1599 8.33965 9.20178 8.05252 9.22524C7.75664 9.24942 7.37243 9.25 6.8 9.25H5.2C4.62757 9.25 4.24336 9.24942 3.94748 9.22524C3.66036 9.20178 3.52307 9.1599 3.43251 9.11376C3.19731 8.99392 3.00608 8.80269 2.88624 8.56749C2.8401 8.47693 2.79822 8.33965 2.77476 8.05252C2.75058 7.75664 2.75 7.37243 2.75 6.8V5.2C2.75 4.62757 2.75058 4.24336 2.77476 3.94748C2.79822 3.66036 2.8401 3.52307 2.88624 3.43251C3.00608 3.19731 3.19731 3.00608 3.43251 2.88624ZM5.2 13.25H5.16957C4.63541 13.25 4.18956 13.25 3.82533 13.2797C3.44545 13.3108 3.08879 13.3779 2.75153 13.5497C2.23408 13.8134 1.81338 14.2341 1.54973 14.7515C1.37789 15.0888 1.31078 15.4454 1.27974 15.8253C1.24998 16.1896 1.24999 16.6354 1.25 17.1696L1.25 17.2V18.8L1.25 18.8304C1.24999 19.3646 1.24998 19.8104 1.27974 20.1747C1.31078 20.5546 1.37789 20.9112 1.54973 21.2485C1.81338 21.7659 2.23408 22.1866 2.75153 22.4503C3.08879 22.6221 3.44545 22.6892 3.82533 22.7203C4.18952 22.75 4.6353 22.75 5.16936 22.75H5.16955H5.2H6.8H6.83045H6.83064C7.3647 22.75 7.81048 22.75 8.17467 22.7203C8.55456 22.6892 8.91121 22.6221 9.24848 22.4503C9.76592 22.1866 10.1866 21.7659 10.4503 21.2485C10.6221 20.9112 10.6892 20.5546 10.7203 20.1747C10.75 19.8105 10.75 19.3646 10.75 18.8305V18.8305V18.8V17.2V17.1695V17.1695C10.75 16.6354 10.75 16.1895 10.7203 15.8253C10.6892 15.4454 10.6221 15.0888 10.4503 14.7515C10.1866 14.2341 9.76592 13.8134 9.24848 13.5497C8.91121 13.3779 8.55456 13.3108 8.17467 13.2797C7.81044 13.25 7.36459 13.25 6.83044 13.25H6.8H5.2ZM3.43251 14.8862C3.52307 14.8401 3.66036 14.7982 3.94748 14.7748C4.24336 14.7506 4.62757 14.75 5.2 14.75H6.8C7.37243 14.75 7.75664 14.7506 8.05252 14.7748C8.33965 14.7982 8.47693 14.8401 8.56749 14.8862C8.80269 15.0061 8.99392 15.1973 9.11376 15.4325C9.1599 15.5231 9.20178 15.6604 9.22524 15.9475C9.24942 16.2434 9.25 16.6276 9.25 17.2V18.8C9.25 19.3724 9.24942 19.7566 9.22524 20.0525C9.20178 20.3396 9.1599 20.4769 9.11376 20.5675C8.99392 20.8027 8.80269 20.9939 8.56749 21.1138C8.47693 21.1599 8.33965 21.2018 8.05252 21.2252C7.75664 21.2494 7.37243 21.25 6.8 21.25H5.2C4.62757 21.25 4.24336 21.2494 3.94748 21.2252C3.66036 21.2018 3.52307 21.1599 3.43251 21.1138C3.19731 20.9939 3.00608 20.8027 2.88624 20.5675C2.8401 20.4769 2.79822 20.3396 2.77476 20.0525C2.75058 19.7566 2.75 19.3724 2.75 18.8V17.2C2.75 16.6276 2.75058 16.2434 2.77476 15.9475C2.79822 15.6604 2.8401 15.5231 2.88624 15.4325C3.00608 15.1973 3.19731 15.0061 3.43251 14.8862ZM17.1696 13.25H17.2H18.8H18.8304C19.3646 13.25 19.8104 13.25 20.1747 13.2797C20.5546 13.3108 20.9112 13.3779 21.2485 13.5497C21.7659 13.8134 22.1866 14.2341 22.4503 14.7515C22.6221 15.0888 22.6892 15.4454 22.7203 15.8253C22.75 16.1895 22.75 16.6353 22.75 17.1694V17.1695V17.2V18.8V18.8305V18.8306C22.75 19.3647 22.75 19.8105 22.7203 20.1747C22.6892 20.5546 22.6221 20.9112 22.4503 21.2485C22.1866 21.7659 21.7659 22.1866 21.2485 22.4503C20.9112 22.6221 20.5546 22.6892 20.1747 22.7203C19.8105 22.75 19.3647 22.75 18.8306 22.75H18.8305H18.8H17.2H17.1695H17.1694C16.6353 22.75 16.1895 22.75 15.8253 22.7203C15.4454 22.6892 15.0888 22.6221 14.7515 22.4503C14.2341 22.1866 13.8134 21.7659 13.5497 21.2485C13.3779 20.9112 13.3108 20.5546 13.2797 20.1747C13.25 19.8104 13.25 19.3646 13.25 18.8304V18.8V17.2V17.1696C13.25 16.6354 13.25 16.1896 13.2797 15.8253C13.3108 15.4454 13.3779 15.0888 13.5497 14.7515C13.8134 14.2341 14.2341 13.8134 14.7515 13.5497C15.0888 13.3779 15.4454 13.3108 15.8253 13.2797C16.1896 13.25 16.6354 13.25 17.1696 13.25ZM15.9475 14.7748C15.6604 14.7982 15.5231 14.8401 15.4325 14.8862C15.1973 15.0061 15.0061 15.1973 14.8862 15.4325C14.8401 15.5231 14.7982 15.6604 14.7748 15.9475C14.7506 16.2434 14.75 16.6276 14.75 17.2V18.8C14.75 19.3724 14.7506 19.7566 14.7748 20.0525C14.7982 20.3396 14.8401 20.4769 14.8862 20.5675C15.0061 20.8027 15.1973 20.9939 15.4325 21.1138C15.5231 21.1599 15.6604 21.2018 15.9475 21.2252C16.2434 21.2494 16.6276 21.25 17.2 21.25H18.8C19.3724 21.25 19.7566 21.2494 20.0525 21.2252C20.3396 21.2018 20.4769 21.1599 20.5675 21.1138C20.8027 20.9939 20.9939 20.8027 21.1138 20.5675C21.1599 20.4769 21.2018 20.3396 21.2252 20.0525C21.2494 19.7566 21.25 19.3724 21.25 18.8V17.2C21.25 16.6276 21.2494 16.2434 21.2252 15.9475C21.2018 15.6604 21.1599 15.5231 21.1138 15.4325C20.9939 15.1973 20.8027 15.0061 20.5675 14.8862C20.4769 14.8401 20.3396 14.7982 20.0525 14.7748C19.7566 14.7506 19.3724 14.75 18.8 14.75H17.2C16.6276 14.75 16.2434 14.7506 15.9475 14.7748ZM18.75 2C18.75 1.58579 18.4142 1.25 18 1.25C17.5858 1.25 17.25 1.58579 17.25 2V5.25H14C13.5858 5.25 13.25 5.58579 13.25 6C13.25 6.41421 13.5858 6.75 14 6.75H17.25V10C17.25 10.4142 17.5858 10.75 18 10.75C18.4142 10.75 18.75 10.4142 18.75 10V6.75H22C22.4142 6.75 22.75 6.41421 22.75 6C22.75 5.58579 22.4142 5.25 22 5.25H18.75V2Z" fill="#3E2C78"/>
</svg>
