<svg width="30" height="31" viewBox="0 0 30 31" fill="none" xmlns="http://www.w3.org/2000/svg">
<g clip-path="url(#clip0_3211_17625)">
<path d="M14.9705 0.560059C7.19857 0.560059 0.919922 7.14563 0.919922 15.2975C0.919922 23.4494 7.19857 30.035 14.9705 30.035C22.7425 30.035 29.0551 23.4494 29.0551 15.2975C29.0551 7.14563 22.7425 0.560059 14.9705 0.560059ZM11.916 19.8896C11.916 20.21 11.8482 20.3168 11.5427 20.3168C11.0336 20.2812 10.5924 20.2812 10.0834 20.3168C9.84579 20.3168 9.71003 20.2456 9.71003 19.9252V13.0905C9.71003 12.8413 9.77791 12.6989 10.0494 12.6989H11.5767C11.8142 12.6989 11.916 12.8413 11.916 13.0905V19.8896ZM10.7961 11.5598C10.0834 11.5598 9.5064 10.9546 9.5064 10.2426C9.5064 9.45949 10.0834 8.85432 10.7961 8.85432C11.5088 8.85432 12.0857 9.42389 12.0857 10.207C12.0857 10.9902 11.5427 11.5598 10.7961 11.5598ZM20.0613 20.3168C19.6201 20.2812 19.111 20.2812 18.6698 20.3168C18.3304 20.3168 18.2626 20.1744 18.2626 19.8896C18.2965 18.6793 18.2626 17.5046 18.2626 16.3298C18.2626 16.1163 18.2626 15.9027 18.2286 15.6891C18.0929 14.9415 17.7874 14.55 17.1087 14.55C16.362 14.5144 15.9208 14.8703 15.7511 15.6179C15.6832 16.0451 15.6154 16.4366 15.6154 16.8638V19.8184C15.6154 20.1744 15.5475 20.2812 15.2081 20.2812C14.7669 20.2456 14.2917 20.2456 13.8505 20.2812C13.5451 20.2812 13.4772 20.1388 13.4772 19.854V13.2328C13.4772 12.8531 13.6582 12.6633 14.0202 12.6633H15.2081C15.4457 12.6633 15.5814 12.8057 15.5475 13.0549V13.1261C15.5475 13.1261 15.4796 13.5176 15.6154 13.5888C15.785 13.6244 15.819 13.3752 15.9208 13.2684C16.4299 12.6989 17.0408 12.4497 17.7535 12.4497C19.0432 12.4497 20.0613 12.8413 20.4007 14.5144C20.4346 14.8703 20.4686 15.1907 20.4686 15.5467C20.5025 16.9706 20.4686 18.3945 20.5025 19.854C20.5025 20.1744 20.3668 20.2456 20.0953 20.2456L20.0613 20.3168Z" fill="white"/>
</g>
<defs>
<clipPath id="clip0_3211_17625">
<rect width="28.1351" height="29.4749" fill="white" transform="translate(0.919922 0.560059)"/>
</clipPath>
</defs>
</svg>
