<svg width="37" height="38" viewBox="0 0 37 38" fill="none" xmlns="http://www.w3.org/2000/svg">
<g id="np_checkbox_2788783_000000 1">
<g id="Group">
<path id="Vector" d="M22.6812 1.42505H14.3184C6.91844 1.42505 0.924805 7.45642 0.924805 14.8187V23.1437C0.924805 30.5437 6.95618 36.5373 14.3184 36.5373H22.6434C30.0434 36.5373 36.0371 30.5059 36.0371 23.1437V14.8187C36.0746 7.45642 30.0438 1.42505 22.6812 1.42505ZM32.3012 23.1814C32.3012 28.5087 27.9725 32.8392 22.6434 32.8392L14.3184 32.8377C8.99118 32.8377 4.6607 28.5091 4.6607 23.18L4.66214 14.8187C4.66214 9.49145 8.99077 5.16097 14.3199 5.16097H22.6449C27.9721 5.16097 32.3026 9.4896 32.3026 14.8187L32.3012 23.1814Z" fill="#5FAC99"/>
<path id="Vector_2" d="M16.7233 20.295L13.3196 16.6687C13.0233 16.3725 12.5796 16.3363 12.2833 16.6312L10.6183 18.1849C10.322 18.4812 10.2859 18.9249 10.5807 19.2212L16.2043 25.2525C16.5006 25.585 16.9819 25.585 17.2767 25.2525L26.489 15.3739C26.7853 15.0776 26.7477 14.5963 26.4514 14.3376L24.7864 12.7839C24.4901 12.4876 24.0088 12.5252 23.7501 12.8215L16.7233 20.295Z" fill="#5FAC99"/>
</g>
</g>
</svg>
