<svg width="24" height="24" viewBox="0 0 24 24" fill="none" xmlns="http://www.w3.org/2000/svg">
<path opacity="0.12" d="M12 21C13 21 22 16.0002 22 9.00043C22 5.50057 19 3.04405 16 3.00065C14.5 2.97894 13 3.50065 12 5.00059C11 3.50065 9.47405 3.00065 8 3.00065C5 3.00065 2 5.50057 2 9.00043C2 16.0002 11 21 12 21Z" fill="#3E2C78"/>
<path fill-rule="evenodd" clip-rule="evenodd" d="M16.7392 4.50056C15.4289 4.4816 14.2002 4.92735 13.374 6.16662C13.2349 6.37526 13.0008 6.50058 12.75 6.50058C12.4992 6.50058 12.2651 6.37526 12.126 6.16662C11.3043 4.93417 10.0534 4.50064 8.75 4.50064C6.12322 4.50064 3.5 6.70461 3.5 9.75042C3.5 12.9285 5.55478 15.7402 7.87509 17.8162C9.02178 18.8421 10.1994 19.6571 11.1454 20.2127C11.6187 20.4906 12.026 20.6989 12.3353 20.835C12.4905 20.9033 12.6122 20.9495 12.6996 20.9772C12.7202 20.9838 12.7369 20.9886 12.75 20.9922C12.7631 20.9886 12.7798 20.9838 12.8004 20.9772C12.8878 20.9495 13.0095 20.9033 13.1648 20.835C13.474 20.6989 13.8813 20.4906 14.3546 20.2127C15.3006 19.6571 16.4782 18.8421 17.6249 17.8162C19.9452 15.7402 22 12.9285 22 9.75042C22 6.71335 19.3841 4.53883 16.7392 4.50056ZM12.7484 4.56005C13.8783 3.3947 15.3481 2.98028 16.7609 3.00072C20.1159 3.04926 23.5 5.78776 23.5 9.75042C23.5 13.5721 21.0548 16.7602 18.6251 18.9341C17.3968 20.033 16.1369 20.9055 15.1142 21.5061C14.6031 21.8063 14.1432 22.0433 13.7688 22.208C13.5823 22.2901 13.4081 22.3581 13.2538 22.407C13.1184 22.45 12.9333 22.5 12.75 22.5C12.5667 22.5 12.3816 22.45 12.2462 22.407C12.0919 22.3581 11.9177 22.2901 11.7312 22.208C11.3568 22.0433 10.8969 21.8063 10.3858 21.5061C9.36308 20.9055 8.10323 20.033 6.87492 18.9341C4.44523 16.7602 2 13.5721 2 9.75042C2 5.79651 5.37678 3.00064 8.75 3.00064C10.1254 3.00064 11.61 3.39677 12.7484 4.56005Z" fill="#3E2C78"/>
</svg>
