<svg width="24" height="24" viewBox="0 0 24 24" fill="none" xmlns="http://www.w3.org/2000/svg">
<rect width="24" height="24" fill="white"/>
<path opacity="0.12" d="M22 12C22 17.5228 17.5228 22 12 22C6.47715 22 2 17.5228 2 12C2 6.47715 6.47715 2 12 2C17.5228 2 22 6.47715 22 12Z" fill="#3E2C78"/>
<path d="M10 9.00358C10.2016 8.33555 10.5996 7.77224 11.1235 7.41342C11.6473 7.05461 12.2632 6.92345 12.8621 7.04317C13.4609 7.16289 14.0041 7.52577 14.3954 8.06753C14.7867 8.60929 15.0009 9.29497 15 10.0031C15 12.0022 12.4271 13.0018 12.4271 13.0018M12.4957 17H12.5043" stroke="#3E2C78" stroke-width="1.33333" stroke-linecap="round" stroke-linejoin="round"/>
<path fill-rule="evenodd" clip-rule="evenodd" d="M12 2.75C6.89137 2.75 2.75 6.89137 2.75 12C2.75 17.1086 6.89137 21.25 12 21.25C17.1086 21.25 21.25 17.1086 21.25 12C21.25 6.89137 17.1086 2.75 12 2.75ZM1.25 12C1.25 6.06294 6.06294 1.25 12 1.25C17.9371 1.25 22.75 6.06294 22.75 12C22.75 17.9371 17.9371 22.75 12 22.75C6.06294 22.75 1.25 17.9371 1.25 12Z" fill="#3E2C78"/>
</svg>
