<svg width="24" height="24" viewBox="0 0 24 24" fill="none" xmlns="http://www.w3.org/2000/svg">
<path opacity="0.12" d="M22 17V11.845C22 10.433 22 9.72701 21.8204 9.07517C21.6613 8.49771 21.3998 7.95353 21.0483 7.46857C20.6514 6.92115 20.1001 6.48011 18.9976 5.59805L16.9976 3.99805C15.214 2.57118 14.3222 1.85774 13.3332 1.58413C12.4608 1.34279 11.5392 1.34279 10.6668 1.58413C9.67783 1.85774 8.78603 2.57118 7.00244 3.99805L5.00244 5.59805C3.89986 6.48011 3.34857 6.92115 2.95174 7.46857C2.6002 7.95353 2.33865 8.49771 2.17957 9.07517C2 9.72701 2 10.433 2 11.845V17C2 19.7614 4.23858 22 7 22C8.10457 22 9 21.1046 9 20V15.9999C9 14.3431 10.3431 12.9999 12 12.9999C13.6569 12.9999 15 14.3431 15 15.9999V20C15 21.1046 15.8954 22 17 22C19.7614 22 22 19.7614 22 17Z" fill="#3E2C78"/>
<path fill-rule="evenodd" clip-rule="evenodd" d="M13.1332 2.30718C12.3917 2.10203 11.6084 2.10203 10.8668 2.30718C10.4834 2.41325 10.0909 2.61075 9.55706 2.97716C9.01543 3.34893 8.37127 3.86366 7.47098 4.5839L5.47098 6.1839C4.33583 7.09202 3.88235 7.46289 3.559 7.90895C3.26019 8.32116 3.03787 8.78372 2.90265 9.27456C2.75633 9.8057 2.75002 10.3915 2.75002 11.8452V17.0002C2.75002 19.3474 4.65281 21.2502 7.00002 21.2502C7.69038 21.2502 8.25002 20.6906 8.25002 20.0002V16.0001C8.25002 13.9291 9.92895 12.2501 12 12.2501C14.0711 12.2501 15.75 13.9291 15.75 16.0001V20.0002C15.75 20.6906 16.3097 21.2502 17 21.2502C19.3472 21.2502 21.25 19.3474 21.25 17.0002V11.8452C21.25 10.3915 21.2437 9.8057 21.0974 9.27456C20.9622 8.78372 20.7398 8.32116 20.441 7.90895C20.1177 7.46289 19.6642 7.09201 18.5291 6.18389L16.5291 4.5839C15.6288 3.86366 14.9846 3.34893 14.443 2.97716C13.9092 2.61075 13.5166 2.41325 13.1332 2.30718ZM17 22.7502C15.4812 22.7502 14.25 21.519 14.25 20.0002V16.0001C14.25 14.7575 13.2427 13.7501 12 13.7501C10.7574 13.7501 9.75002 14.7575 9.75002 16.0001V20.0002C9.75002 21.519 8.5188 22.7502 7.00002 22.7502C3.82438 22.7502 1.25002 20.1758 1.25002 17.0002V11.8452C1.25002 11.8064 1.25001 11.768 1.25001 11.7301C1.24984 10.4282 1.24973 9.62683 1.45653 8.87617C1.63947 8.21209 1.94025 7.58628 2.34453 7.02858C2.80151 6.39817 3.4273 5.89767 4.44404 5.0845C4.47367 5.0608 4.50363 5.03684 4.53394 5.01259L6.53394 3.41259L6.55686 3.39426C7.42925 2.69634 8.11594 2.14698 8.70819 1.74046C9.31342 1.32504 9.86129 1.02902 10.4669 0.861479C11.4701 0.583934 12.5299 0.583934 13.5332 0.861479C14.1388 1.02902 14.6866 1.32504 15.2918 1.74046C15.8841 2.14698 16.5708 2.69634 17.4432 3.39427L17.4661 3.41259L19.4661 5.01259C19.4964 5.03683 19.5264 5.0608 19.556 5.0845C20.5727 5.89767 21.1985 6.39817 21.6555 7.02858C22.0598 7.58628 22.3606 8.21209 22.5435 8.87617C22.7503 9.62683 22.7502 10.4281 22.75 11.7301C22.75 11.768 22.75 11.8064 22.75 11.8452V17.0002C22.75 20.1758 20.1757 22.7502 17 22.7502Z" fill="#3E2C78"/>
</svg>
