<svg width="24" height="24" viewBox="0 0 24 24" fill="none" xmlns="http://www.w3.org/2000/svg">
<path opacity="0.12" d="M21.5149 15.9403L22 14H18.7127C18.0866 14 17.7735 14 17.4893 14.0863C17.2377 14.1627 17.0037 14.288 16.8006 14.4549C16.5711 14.6435 16.3975 14.904 16.0502 15.425L16.0501 15.425L15.9501 15.575L15.9501 15.575C15.6028 16.096 15.4291 16.3565 15.1997 16.5451C14.9966 16.712 14.7625 16.8373 14.5109 16.9137C14.2267 17 13.9137 17 13.2875 17H10.7127C10.0866 17 9.7735 17 9.48932 16.9137C9.23774 16.8373 9.00369 16.712 8.80057 16.5451C8.57113 16.3565 8.39747 16.096 8.05015 15.575L8.05015 15.575L7.95009 15.425C7.60277 14.904 7.42911 14.6435 7.19967 14.4549C6.99655 14.288 6.7625 14.1627 6.51092 14.0863C6.22675 14 5.91368 14 5.28753 14H2L2.48507 15.9403C3.02674 18.1069 3.29757 19.1903 3.90155 19.9969C4.43446 20.7086 5.14749 21.2653 5.96718 21.6097C6.8962 22 8.01287 22 10.2462 22H13.7538C15.9871 22 17.1038 22 18.0328 21.6097C18.8525 21.2653 19.5655 20.7086 20.0984 19.9969C20.7024 19.1903 20.9733 18.107 21.5149 15.9403L21.5149 15.9403Z" fill="#3E2C78"/>
<path fill-rule="evenodd" clip-rule="evenodd" d="M11.0573 1.25002L11.2461 1.25005H12.7537L12.9424 1.25002C14.9939 1.24962 16.2533 1.24937 17.3233 1.69892C18.2659 2.09497 19.0859 2.73521 19.6987 3.55366C20.3944 4.48269 20.6995 5.7045 21.1967 7.69484L21.2424 7.87796L21.8584 10.3419L21.8638 10.3634L21.8638 10.3636C21.9992 10.9053 22.0735 11.2024 22.1331 11.5003C22.463 13.1505 22.463 14.8496 22.133 16.4998C22.0735 16.7977 21.9992 17.0948 21.8638 17.6365L21.8638 17.6366L21.8583 17.6582L21.8436 17.7174L21.8436 17.7174L21.8435 17.7175C21.6828 18.3607 21.5844 18.7541 21.4487 19.1001C20.6828 21.0523 18.9148 22.4328 16.835 22.7023C16.4665 22.7501 16.061 22.7501 15.398 22.7501H15.3979L15.3368 22.75H8.66267L8.60164 22.7501H8.60147C7.93863 22.7501 7.53316 22.7501 7.16467 22.7024C5.08488 22.4328 3.31679 21.0523 2.55087 19.1C2.41516 18.7541 2.31684 18.3607 2.1561 17.7176L2.1561 17.7175L2.15609 17.7175L2.14129 17.6583L2.13589 17.6367C2.00046 17.095 1.92618 16.7979 1.86662 16.5C1.53664 14.8497 1.53665 13.1504 1.86665 11.5001C1.92622 11.2022 2.0005 10.9051 2.13594 10.3633L2.14133 10.3418L2.75737 7.87776L2.80313 7.69463C3.30031 5.70435 3.60551 4.48258 4.30114 3.55359C4.91398 2.73516 5.73397 2.09494 6.6766 1.6989C7.74658 1.24937 9.0059 1.24962 11.0573 1.25002ZM3.5965 17.2945C3.77667 18.0152 3.85142 18.3079 3.94726 18.5522C4.51337 19.9952 5.82022 21.0156 7.35746 21.2148C7.61771 21.2485 7.91983 21.25 8.66267 21.25H15.3368C16.0798 21.25 16.3819 21.2485 16.6422 21.2148C18.1794 21.0155 19.4862 19.9952 20.0523 18.5523C20.1482 18.3079 20.2229 18.0152 20.4031 17.2944C20.5453 16.7256 20.6104 16.4645 20.6622 16.2057C20.7584 15.7242 20.8229 15.2379 20.8555 14.75H18.7124C18.0395 14.75 17.8594 14.7577 17.7069 14.804C17.5497 14.8517 17.4034 14.93 17.2764 15.0344C17.1534 15.1355 17.0471 15.2812 16.6738 15.841L16.5738 15.9911L16.5218 16.0692C16.2258 16.5139 15.993 16.8636 15.6755 17.1245C15.3963 17.3541 15.0744 17.5263 14.7285 17.6314C14.3353 17.7508 13.9153 17.7505 13.381 17.7501H13.381L13.2872 17.75H10.7124L10.6186 17.7501H10.6186C10.0843 17.7505 9.66422 17.7508 9.27103 17.6314C8.92511 17.5263 8.6033 17.3541 8.324 17.1245C8.00655 16.8636 7.77379 16.5139 7.47774 16.0692L7.42576 15.9911L7.32571 15.841C6.95248 15.2812 6.84619 15.1355 6.72311 15.0344C6.59616 14.93 6.44988 14.8517 6.29264 14.804C6.14019 14.7577 5.96003 14.75 5.28719 14.75H3.14416C3.17676 15.238 3.24121 15.7243 3.33751 16.2059C3.38924 16.4647 3.45432 16.7258 3.5965 17.2945ZM3.14417 13.25H5.28719L5.38096 13.25C5.91526 13.2496 6.33533 13.2493 6.72852 13.3687C7.07444 13.4738 7.39625 13.646 7.67555 13.8755C7.993 14.1365 8.22576 14.4862 8.52181 14.9309L8.57379 15.009L8.67384 15.1591C9.04707 15.7189 9.15336 15.8646 9.27644 15.9657C9.40339 16.0701 9.54967 16.1484 9.70691 16.1961C9.85936 16.2424 10.0395 16.25 10.7124 16.25H13.2872C13.96 16.25 14.1402 16.2424 14.2926 16.1961C14.4499 16.1484 14.5962 16.0701 14.7231 15.9657C14.8462 15.8646 14.9525 15.7189 15.3257 15.1591L15.4258 15.009L15.4777 14.9309L15.4777 14.9309C15.7738 14.4861 16.0066 14.1365 16.324 13.8755C16.6033 13.646 16.9251 13.4738 17.271 13.3687C17.6642 13.2493 18.0843 13.2496 18.6186 13.25L18.7124 13.25H20.8555C20.8229 12.7622 20.7585 12.2759 20.6622 11.7944C20.6104 11.5356 20.5454 11.2745 20.4032 10.7057L19.7872 8.24175C19.2287 6.00749 18.9893 5.10879 18.498 4.45272C18.0451 3.84777 17.439 3.37455 16.7422 3.08182C15.9866 2.76435 15.0567 2.75005 12.7537 2.75005H11.2461C8.94313 2.75005 8.01323 2.76435 7.25761 3.08181C6.56088 3.37453 5.9548 3.84774 5.50183 4.45266C5.01058 5.10872 4.77116 6.00739 4.21258 8.24158L3.59654 10.7056C3.45435 11.2743 3.38927 11.5354 3.33753 11.7942C3.24123 12.2758 3.17678 12.7621 3.14417 13.25ZM8.99993 6.25005C8.58571 6.25005 8.24993 6.58583 8.24993 7.00005C8.24993 7.41426 8.58571 7.75005 8.99993 7.75005H14.9999C15.4141 7.75005 15.7499 7.41426 15.7499 7.00005C15.7499 6.58583 15.4141 6.25005 14.9999 6.25005H8.99993ZM9.99993 10.25C9.58571 10.25 9.24993 10.5858 9.24993 11C9.24993 11.4143 9.58571 11.75 9.99993 11.75H13.9999C14.4141 11.75 14.7499 11.4143 14.7499 11C14.7499 10.5858 14.4141 10.25 13.9999 10.25H9.99993Z" fill="#3E2C78"/>
</svg>
