<svg width="26" height="27" viewBox="0 0 26 27" fill="none" xmlns="http://www.w3.org/2000/svg">
    <path d="M13 3.07235e-06C8.87262 3.07235e-06 5.50684 1.41784 3.28778 4.29546C1.06872 7.17307 0 11.3836 0 16.875C0.00354294 17.2358 0.235009 17.5833 0.5645 17.7199C1.01563 17.7979 1.34039 17.7199 1.62499 17.4503C2.42449 22.4649 6.86851 27 12.3953 27C15.1434 27 17.5726 26.1598 19.415 24.5455C20.6739 23.4416 21.6434 21.9878 22.2871 20.2405C22.6012 20.2693 22.926 20.1182 23.109 19.857C24.6065 17.7296 26 15.8708 26 12.2727C26 9.77744 24.8745 7.98095 23.3641 7.31577C22.4394 5.21358 21.275 3.40261 19.6419 2.10938C17.9295 0.752656 15.7302 3.07235e-06 13 3.07235e-06ZM13 1.84091C15.4091 1.84091 17.1403 2.45933 18.5267 3.55719C19.9132 4.65505 20.9725 6.27183 21.8429 8.3319C21.9516 8.59437 22.1854 8.7993 22.457 8.86883C23.1148 9.03542 24.186 10.1249 24.186 12.2727C24.186 14.4767 23.6581 15.7149 22.8349 17.0093L22.3531 14.5452C22.2409 13.9627 21.4792 13.6271 20.9832 13.9411C20.5332 14.2192 20.166 14.4469 19.7739 14.6698C19.6901 13.9579 19.6511 13.2041 19.6511 11.966C19.6534 11.6376 19.468 11.3152 19.1858 11.1558C18.9035 10.9964 18.5363 11.006 18.2623 11.1798C16.2759 12.4394 14.7465 13.0195 12.3385 13.5385L12.6786 11.8318C12.7412 11.501 12.6066 11.139 12.3444 10.9317C12.0822 10.7244 11.7043 10.6812 11.4032 10.825L5.53627 13.6727L5.43235 13.0399C5.37802 12.7067 5.13002 12.4142 4.81234 12.3112C4.49584 12.2081 4.12622 12.3004 3.89237 12.5413L1.93669 14.526C2.21303 10.5147 3.16017 7.46307 4.72376 5.43653C6.58614 3.02154 9.26685 1.84091 13 1.84091ZM10.5436 13.2699L10.2979 14.5451C10.1846 15.1287 10.7691 15.7328 11.3466 15.6285C14.0876 15.1228 15.9323 14.5547 17.8654 13.5191C17.889 14.3785 17.9634 15.1683 18.1393 15.9545C18.2539 16.4147 18.4724 16.7144 18.8007 16.8654C19.1538 16.9829 19.4915 16.8546 19.7832 16.7312C20.1588 16.5598 20.5461 16.3393 20.8319 16.1751L21.1154 17.642C20.6595 20.0798 19.6486 21.9074 18.2244 23.1552C16.7411 24.4556 14.7866 25.1591 12.3953 25.1591C7.35007 25.1591 3.26173 20.2715 3.31615 15.7245L3.93023 15.1013C4.08848 15.9222 4.80413 16.0409 5.22455 15.8587L10.5436 13.2699ZM8.1344 17.134C7.58408 17.1447 7.00658 17.3533 6.5472 17.5846C6.08428 17.7752 5.85397 18.3984 6.07836 18.8514C6.30274 19.3045 6.93336 19.4878 7.3597 19.2242C7.6077 19.0983 7.90648 18.9952 8.10608 18.9749C8.30567 18.9545 8.33872 18.9617 8.4273 19.0516C8.75205 19.4291 9.39921 19.4531 9.74997 19.0995C10.1007 18.746 10.083 18.0904 9.71218 17.7572C9.26105 17.2993 8.65286 17.1315 8.1344 17.134ZM15.0785 17.7572C14.7088 18.0903 14.6899 18.746 15.0407 19.0995C15.3915 19.453 16.0374 19.4291 16.3634 19.0516C16.4519 18.9617 16.485 18.9545 16.6846 18.9749C16.8842 18.9952 17.1829 19.0983 17.431 19.2241C17.8573 19.4866 18.4879 19.3032 18.7123 18.8514C18.9367 18.3984 18.7064 17.7764 18.2435 17.5846C17.8868 17.4036 17.4298 17.1999 16.8736 17.1435C16.2111 17.122 15.4635 17.3808 15.0785 17.7572ZM13.5669 20.509C13.3354 20.5305 13.1134 20.6468 12.9622 20.8253C12.9268 20.8613 12.6009 21.0171 12.2442 21.0171C11.8876 21.0171 11.5616 20.8613 11.5262 20.8253C11.336 20.624 11.0526 20.5185 10.7798 20.5473C10.4397 20.5844 10.1315 20.8325 10.0193 21.1609C9.90709 21.4881 9.99684 21.8776 10.2413 22.1197C10.8105 22.6974 11.5427 22.858 12.2442 22.858C12.9457 22.858 13.6779 22.6974 14.2471 22.1197C14.5341 21.8657 14.6356 21.4186 14.4857 21.0627C14.3357 20.7079 13.946 20.473 13.5669 20.509Z" fill="#3E2C78"/>
</svg>