<svg width="24" height="24" viewBox="0 0 24 24" fill="none" xmlns="http://www.w3.org/2000/svg">
<path opacity="0.12" d="M8.28418 8.6C8.28418 8.03995 8.28418 7.75992 8.39317 7.54601C8.48905 7.35785 8.64203 7.20487 8.83019 7.10899C9.0441 7 9.32413 7 9.88418 7H12.6842C13.2442 7 13.5243 7 13.7382 7.10899C13.9263 7.20487 14.0793 7.35785 14.1752 7.54601C14.2842 7.75992 14.2842 8.03995 14.2842 8.6V20.4C14.2842 20.9601 14.2842 21.2401 14.1752 21.454C14.0793 21.6422 13.9263 21.7951 13.7382 21.891C13.5243 22 13.2442 22 12.6842 22H9.88418C9.32413 22 9.0441 22 8.83019 21.891C8.64203 21.7951 8.48905 21.6422 8.39317 21.454C8.28418 21.2401 8.28418 20.9601 8.28418 20.4V8.6Z" fill="#3E2C78"/>
<path fill-rule="evenodd" clip-rule="evenodd" d="M4.91957 1L4.95 1H5.06183L5.09226 1C5.62641 0.99999 6.07226 0.999981 6.4365 1.02974C6.81638 1.06078 7.17304 1.12789 7.5103 1.29973C8.02775 1.56338 8.44844 1.98408 8.71209 2.50153C8.88394 2.83879 8.95105 3.19545 8.98209 3.57533C9.01185 3.93957 9.01184 4.38542 9.01183 4.91957V4.95V21.75C9.01183 22.1642 8.67604 22.5 8.26183 22.5H1.75C1.33579 22.5 1 22.1642 1 21.75V4.95L1 4.91957C0.99999 4.38541 0.999981 3.93956 1.02974 3.57533C1.06078 3.19545 1.12789 2.83879 1.29973 2.50153C1.56338 1.98408 1.98408 1.56338 2.50153 1.29973C2.83879 1.12789 3.19545 1.06078 3.57533 1.02974C3.93956 0.999981 4.38541 0.99999 4.91957 1ZM3.69748 2.52476C3.41036 2.54822 3.27307 2.5901 3.18251 2.63624C2.94731 2.75608 2.75608 2.94731 2.63624 3.18251C2.5901 3.27307 2.54822 3.41036 2.52476 3.69748C2.50058 3.99336 2.5 4.37757 2.5 4.95V21H7.51183V4.95C7.51183 4.37757 7.51124 3.99336 7.48707 3.69748C7.46361 3.41036 7.42173 3.27307 7.37558 3.18251C7.25574 2.94731 7.06452 2.75608 6.82931 2.63624C6.73875 2.5901 6.60147 2.54822 6.31435 2.52476C6.01847 2.50058 5.63425 2.5 5.06183 2.5H4.95C4.37757 2.5 3.99336 2.50058 3.69748 2.52476Z" fill="#3E2C78"/>
<path fill-rule="evenodd" clip-rule="evenodd" d="M11.4537 6.1001L11.4842 6.1001H11.596L11.6264 6.1001C12.1606 6.10009 12.6064 6.10008 12.9707 6.12984C13.3506 6.16088 13.7072 6.22799 14.0445 6.39983C14.5619 6.66348 14.9826 7.08418 15.2463 7.60162C15.4181 7.93889 15.4852 8.29554 15.5163 8.67543C15.546 9.03966 15.546 9.48551 15.546 10.0197V10.0501V21.7429C15.546 22.1571 15.2102 22.4929 14.796 22.4929H8.28418C7.86997 22.4929 7.53418 22.1571 7.53418 21.7429V10.0501L7.53418 10.0197C7.53417 9.48551 7.53416 9.03966 7.56392 8.67543C7.59496 8.29554 7.66207 7.93889 7.83391 7.60162C8.09756 7.08418 8.51826 6.66348 9.03571 6.39983C9.37297 6.22799 9.72963 6.16088 10.1095 6.12984C10.4737 6.10008 10.9196 6.10009 11.4537 6.1001ZM10.2317 7.62486C9.94453 7.64831 9.80725 7.6902 9.71669 7.73634C9.48149 7.85618 9.29026 8.04741 9.17042 8.28261C9.12428 8.37317 9.0824 8.51045 9.05894 8.79758C9.03476 9.09346 9.03418 9.47767 9.03418 10.0501V20.9929H14.046V10.0501C14.046 9.47767 14.0454 9.09346 14.0212 8.79758C13.9978 8.51045 13.9559 8.37317 13.9098 8.28261C13.7899 8.04741 13.5987 7.85618 13.3635 7.73634C13.2729 7.6902 13.1357 7.64831 12.8485 7.62486C12.5526 7.60068 12.1684 7.6001 11.596 7.6001H11.4842C10.9118 7.6001 10.5275 7.60068 10.2317 7.62486Z" fill="#3E2C78"/>
<path fill-rule="evenodd" clip-rule="evenodd" d="M17.9537 9.54981L17.9842 9.54981H18.096L18.1264 9.54981C18.6606 9.54979 19.1064 9.54979 19.4707 9.57954C19.8506 9.61058 20.2072 9.67769 20.5445 9.84954C21.0619 10.1132 21.4826 10.5339 21.7463 11.0513C21.9181 11.3886 21.9852 11.7453 22.0163 12.1251C22.046 12.4894 22.046 12.9352 22.046 13.4694V13.4998V21.75C22.046 22.1642 21.7102 22.5 21.296 22.5H14.7842C14.37 22.5 14.0342 22.1642 14.0342 21.75V13.4998L14.0342 13.4694C14.0342 12.9352 14.0342 12.4894 14.0639 12.1251C14.095 11.7453 14.1621 11.3886 14.3339 11.0513C14.5976 10.5339 15.0183 10.1132 15.5357 9.84954C15.873 9.67769 16.2296 9.61058 16.6095 9.57954C16.9737 9.54979 17.4196 9.54979 17.9537 9.54981ZM16.7317 11.0746C16.4445 11.098 16.3073 11.1399 16.2167 11.186C15.9815 11.3059 15.7903 11.4971 15.6704 11.7323C15.6243 11.8229 15.5824 11.9602 15.5589 12.2473C15.5348 12.5432 15.5342 12.9274 15.5342 13.4998V21H20.546V13.4998C20.546 12.9274 20.5454 12.5432 20.5212 12.2473C20.4978 11.9602 20.4559 11.8229 20.4098 11.7323C20.2899 11.4971 20.0987 11.3059 19.8635 11.186C19.7729 11.1399 19.6357 11.098 19.3485 11.0746C19.0526 11.0504 18.6684 11.0498 18.096 11.0498H17.9842C17.4118 11.0498 17.0275 11.0504 16.7317 11.0746Z" fill="#3E2C78"/>
</svg>
