<svg width="24" height="24" viewBox="0 0 24 24" fill="none" xmlns="http://www.w3.org/2000/svg">
<rect opacity="0.12" x="22" y="22" width="12" height="20" rx="4" transform="rotate(-180 22 22)" fill="#22272F"/>
<path fill-rule="evenodd" clip-rule="evenodd" d="M15.4995 21.2504C14.0499 21.2504 13.4912 21.2423 13.0569 21.1106C12.0179 20.7955 11.2049 19.9825 10.8899 18.9436C10.7581 18.5092 10.75 17.9506 10.75 16.5009V16.0004C10.75 15.5862 10.4142 15.2504 10 15.2504C9.58579 15.2504 9.25 15.5862 9.25 16.0004V16.5009L9.24998 16.6439V16.6439C9.2497 17.9016 9.24952 18.7032 9.4544 19.3789C9.91486 20.8973 11.1031 22.0856 12.6216 22.546C13.2972 22.7509 14.0988 22.7507 15.3566 22.7505L15.4995 22.7504H16L16.0274 22.7504C16.9361 22.7505 17.6562 22.7505 18.2397 22.7106C18.8357 22.67 19.3436 22.5853 19.8177 22.3889C20.9816 21.9068 21.9063 20.9821 22.3884 19.8182C22.5848 19.344 22.6695 18.8361 22.7102 18.2401C22.75 17.6567 22.75 16.9366 22.75 16.0279V16.0278V16.0004V8.00041V7.97304C22.75 7.06436 22.75 6.3442 22.7102 5.76078C22.6695 5.16477 22.5848 4.65689 22.3884 4.18273C21.9063 3.01883 20.9816 2.0941 19.8177 1.61201C19.3436 1.41561 18.8357 1.33091 18.2397 1.29025C17.6563 1.25044 16.9361 1.25044 16.0275 1.25045H16.0274H16H15.5005L15.3574 1.25043H15.3574C14.0989 1.25015 13.2968 1.24997 12.6208 1.4551C11.103 1.91566 9.91523 3.10344 9.45468 4.62125C9.24956 5.29726 9.24975 6.0994 9.25004 7.35787V7.35789L9.25006 7.50084V7.50094L9.25 8.00036C9.24995 8.41457 9.5857 8.7504 9.99991 8.75045C10.4141 8.7505 10.75 8.41475 10.75 8.00054L10.7501 7.50103V7.50093C10.75 6.05037 10.7582 5.49141 10.8901 5.05679C11.2052 4.01829 12.0179 3.2056 13.0564 2.89047C13.491 2.75859 14.0499 2.75045 15.5005 2.75045H16C16.9422 2.75045 17.6112 2.75085 18.1376 2.78677C18.6572 2.82222 18.9828 2.88976 19.2437 2.99783C20.0401 3.32769 20.6728 3.96039 21.0026 4.75675C21.1107 5.01767 21.1782 5.34325 21.2137 5.86288C21.2496 6.38925 21.25 7.05828 21.25 8.00041L21.25 16.0004C21.25 16.9426 21.2496 17.6116 21.2137 18.138C21.1782 18.6577 21.1107 18.9832 21.0026 19.2442C20.6728 20.0405 20.0401 20.6732 19.2437 21.0031C18.9828 21.1111 18.6572 21.1787 18.1376 21.2141C17.6112 21.25 16.9421 21.2504 16 21.2504H15.4995ZM5.46967 16.5313C5.76256 16.8242 6.23744 16.8242 6.53033 16.5313C6.82322 16.2384 6.82322 15.7635 6.53033 15.4706L3.81066 12.7509L15 12.7509C15.4142 12.7509 15.75 12.4151 15.75 12.0009C15.75 11.5867 15.4142 11.2509 15 11.2509L3.81066 11.2509L6.53033 8.53127C6.82322 8.23837 6.82322 7.7635 6.53033 7.47061C6.23744 7.17771 5.76256 7.17771 5.46967 7.47061L1.46967 11.4706C1.17678 11.7635 1.17678 12.2384 1.46967 12.5313L5.46967 16.5313Z" fill="#22272F"/>
</svg>
