<svg width="24" height="24" viewBox="0 0 24 24" fill="none" xmlns="http://www.w3.org/2000/svg">
<path opacity="0.12" fill-rule="evenodd" clip-rule="evenodd" d="M14.9649 3.52424L10 6.99968L10 14.9997L14.9649 18.4751C16.5945 19.6158 17.4092 20.1861 18.0874 20.1565C18.678 20.1306 19.2269 19.8448 19.5868 19.3758C20 18.8372 20 17.8427 20 15.8536L20 6.14578C20 4.15668 20 3.16213 19.5868 2.62353C19.2269 2.15453 18.678 1.86874 18.0874 1.8429C17.4092 1.81322 16.5944 2.38356 14.9649 3.52424ZM9 15L6 15L6 19.5C6 20.3285 6.67157 21 7.5 21C8.32842 21 9 20.3285 9 19.5L9 15Z" fill="#3E2C78"/>
<path fill-rule="evenodd" clip-rule="evenodd" d="M15.395 4.13866C16.222 3.55976 16.8 3.1561 17.2552 2.89574C17.7184 2.63086 17.9362 2.587 18.0546 2.59218C18.4238 2.60833 18.7668 2.78695 18.9917 3.08007C19.0639 3.17415 19.1529 3.37772 19.2015 3.90904C19.2492 4.43131 19.25 5.1363 19.25 6.14577L19.25 7.9998L19.25 13.9998L19.25 15.8536C19.25 16.8631 19.2492 17.568 19.2015 18.0903C19.1529 18.6216 19.0639 18.8252 18.9917 18.9193C18.7668 19.2124 18.4238 19.391 18.0546 19.4072C17.9362 19.4124 17.7184 19.3685 17.2552 19.1036C16.8 18.8433 16.222 18.4396 15.395 17.8607L10.75 14.6092L10.75 7.39017L15.395 4.13866ZM20.75 14.6748L20.75 15.8536L20.75 15.8924C20.75 16.854 20.75 17.6281 20.6952 18.227C20.6405 18.8248 20.5228 19.3878 20.1818 19.8324C19.687 20.4772 18.9323 20.8702 18.1202 20.9057C17.5605 20.9302 17.0318 20.7038 16.5106 20.4057C15.9886 20.1072 15.3545 19.6634 14.5669 19.112L14.5668 19.1119L14.5667 19.1118L14.5666 19.1118L14.5348 19.0895L9.76393 15.7499L9.75 15.7499L9.75 19.5C9.75 20.7427 8.74264 21.75 7.5 21.75C6.25736 21.75 5.25 20.7427 5.25 19.5L5.25 15.691C2.98301 15.3315 1.25 13.3681 1.25 10.9999C1.25 8.37656 3.37665 6.24992 6 6.24992L9.76323 6.24992L14.5348 2.90981L14.5666 2.88754C15.3544 2.33609 15.9885 1.89218 16.5106 1.59363C17.0318 1.29558 17.5605 1.06912 18.1202 1.09361C18.9323 1.12915 19.687 1.5221 20.1818 2.16698C20.5228 2.6115 20.6405 3.17451 20.6952 3.77238C20.75 4.37123 20.75 5.14524 20.75 6.10677L20.75 6.10695L20.75 6.14577L20.75 7.32481C22.4617 7.67226 23.75 9.18558 23.75 10.9998C23.75 12.814 22.4617 14.3273 20.75 14.6748ZM20.75 13.1218C21.6239 12.8129 22.25 11.9795 22.25 10.9998C22.25 10.0201 21.6239 9.1867 20.75 8.87783L20.75 13.1218ZM9.25 7.74992L6 7.74992C4.20507 7.74992 2.75 9.20499 2.75 10.9999C2.75 12.7948 4.20507 14.2499 6 14.2499L9.25 14.2499L9.25 7.74992ZM7.5 20.25C7.91421 20.25 8.25 19.9143 8.25 19.5L8.25 15.75L6.75 15.75L6.75 19.5C6.75 19.9143 7.08578 20.25 7.5 20.25Z" fill="#3E2C78"/>
</svg>
