<svg width="37" height="38" viewBox="0 0 37 38" fill="none" xmlns="http://www.w3.org/2000/svg">
<g id="np_dots_3557370_000000 1">
<g id="Group">
<path id="Vector" d="M20.72 11.1712C20.72 12.3968 19.7257 13.3912 18.5 13.3912C17.2744 13.3912 16.28 12.3968 16.28 11.1712C16.28 9.94555 17.2744 8.95117 18.5 8.95117C19.7257 8.95117 20.72 9.94555 20.72 11.1712Z" fill="#98A2B3"/>
<path id="Vector_2" d="M20.72 19.3112C20.72 20.5368 19.7257 21.5312 18.5 21.5312C17.2744 21.5312 16.28 20.5368 16.28 19.3112C16.28 18.0856 17.2744 17.0912 18.5 17.0912C19.7257 17.0912 20.72 18.0856 20.72 19.3112Z" fill="#98A2B3"/>
<path id="Vector_3" d="M20.72 27.4512C20.72 28.6768 19.7257 29.6712 18.5 29.6712C17.2744 29.6712 16.28 28.6768 16.28 27.4512C16.28 26.2256 17.2744 25.2312 18.5 25.2312C19.7257 25.2312 20.72 26.2256 20.72 27.4512Z" fill="#98A2B3"/>
</g>
</g>
</svg>
