<svg width="24" height="24" viewBox="0 0 24 24" fill="none" xmlns="http://www.w3.org/2000/svg">
<path opacity="0.12" fill-rule="evenodd" clip-rule="evenodd" d="M4.5 9.5C3.125 9.5 2 10.625 2 12C2 13.375 3.125 14.5 4.5 14.5C5.875 14.5 7 13.375 7 12C7 10.625 5.875 9.5 4.5 9.5ZM19.5 9.5C18.125 9.5 17 10.625 17 12C17 13.375 18.125 14.5 19.5 14.5C20.875 14.5 22 13.375 22 12C22 10.625 20.875 9.5 19.5 9.5ZM9.5 12C9.5 10.625 10.625 9.5 12 9.5C13.375 9.5 14.5 10.625 14.5 12C14.5 13.375 13.375 14.5 12 14.5C10.625 14.5 9.5 13.375 9.5 12Z" fill="#3E2C78"/>
<path fill-rule="evenodd" clip-rule="evenodd" d="M1.25 12C1.25 10.2108 2.71079 8.75 4.5 8.75C6.28921 8.75 7.75 10.2108 7.75 12C7.75 13.7892 6.28921 15.25 4.5 15.25C2.71079 15.25 1.25 13.7892 1.25 12ZM4.5 10.25C3.53921 10.25 2.75 11.0392 2.75 12C2.75 12.9608 3.53921 13.75 4.5 13.75C5.46079 13.75 6.25 12.9608 6.25 12C6.25 11.0392 5.46079 10.25 4.5 10.25ZM16.25 12C16.25 10.2108 17.7108 8.75 19.5 8.75C21.2892 8.75 22.75 10.2108 22.75 12C22.75 13.7892 21.2892 15.25 19.5 15.25C17.7108 15.25 16.25 13.7892 16.25 12ZM19.5 10.25C18.5392 10.25 17.75 11.0392 17.75 12C17.75 12.9608 18.5392 13.75 19.5 13.75C20.4608 13.75 21.25 12.9608 21.25 12C21.25 11.0392 20.4608 10.25 19.5 10.25ZM12 8.75C10.2108 8.75 8.75 10.2108 8.75 12C8.75 13.7892 10.2108 15.25 12 15.25C13.7892 15.25 15.25 13.7892 15.25 12C15.25 10.2108 13.7892 8.75 12 8.75ZM10.25 12C10.25 11.0392 11.0392 10.25 12 10.25C12.9608 10.25 13.75 11.0392 13.75 12C13.75 12.9608 12.9608 13.75 12 13.75C11.0392 13.75 10.25 12.9608 10.25 12Z" fill="#3E2C78"/>
</svg>
