<svg width="24" height="23" viewBox="0 0 24 23" fill="none" xmlns="http://www.w3.org/2000/svg">
    <path d="M23.2933 0H14.1176C13.931 0 13.751 0.0731727 13.6186 0.20384C13.4863 0.334508 13.4122 0.512214 13.4122 0.696467V4.18134H0.706753C0.518818 4.18134 0.34016 4.25452 0.207786 4.38518C0.074115 4.51585 0 4.69356 0 4.87781V22.3035C0 22.4878 0.074115 22.6655 0.207786 22.7962C0.340136 22.9268 0.518804 23 0.706753 23H23.2932C23.4812 23 23.6598 22.9268 23.7935 22.7962C23.9259 22.6655 24 22.4878 24 22.3035V0.696493C24 0.512254 23.9259 0.334559 23.7922 0.203867C23.6599 0.0732028 23.4812 0 23.2933 0ZM14.823 1.39422H22.5879V4.18132H14.823V1.39422ZM22.5879 21.6057H1.41218V5.57554H22.5879V21.6057ZM18.5354 3.31127C18.2455 3.30604 18.0139 3.07345 18.0139 2.7873C18.0139 2.50245 18.2455 2.26855 18.5354 2.26333C18.8239 2.26856 19.0555 2.50114 19.0555 2.7873C19.0555 3.07345 18.8239 3.30605 18.5354 3.31127ZM16.4178 3.31127C16.1279 3.30604 15.8963 3.07345 15.8963 2.7873C15.8963 2.50245 16.1279 2.26855 16.4178 2.26333C16.7063 2.26856 16.9379 2.50114 16.9379 2.7873C16.9379 3.07345 16.7063 3.30605 16.4178 3.31127ZM20.6529 3.31127C20.3631 3.30604 20.1315 3.07345 20.1315 2.7873C20.1315 2.50245 20.3631 2.26855 20.6529 2.26333C20.9414 2.26856 21.1731 2.50114 21.1731 2.7873C21.1731 3.07345 20.9415 3.30605 20.6529 3.31127ZM8.97173 12.8708C9.72081 12.1233 9.94053 11.0036 9.53023 10.0327C9.11996 9.06315 8.1591 8.43071 7.09371 8.43071C6.02964 8.43071 5.06877 9.06312 4.6585 10.0327C4.24691 11.0035 4.46792 12.1233 5.217 12.8708C3.77573 13.5751 2.86121 15.0241 2.85857 16.6132V18.0074C2.85857 18.1917 2.93401 18.3694 3.06635 18.5C3.1987 18.6307 3.37737 18.7039 3.56532 18.7039H10.6234C10.8114 18.7039 10.99 18.6307 11.1224 18.5C11.2548 18.3694 11.3302 18.1917 11.3289 18.0074V16.6132C11.3275 15.0243 10.413 13.5752 8.97173 12.8708ZM7.09371 9.82492C7.76736 9.83407 8.30601 10.375 8.30601 11.0388C8.30601 11.7026 7.76601 12.2436 7.09371 12.254C6.42137 12.2435 5.88141 11.7026 5.88141 11.0388C5.88141 10.375 6.4214 9.83406 7.09371 9.82492ZM9.91668 17.3108H4.26938C3.82997 12.6813 10.3602 12.6839 9.91803 17.3095L9.91668 17.3108ZM13.465 8.90905H16.562C16.9511 8.90905 17.2674 9.22003 17.2674 9.60549C17.2674 9.99094 16.9511 10.3019 16.562 10.3019H13.4664C13.076 10.3019 12.7596 9.99094 12.7596 9.60549C12.7596 9.22004 13.076 8.90905 13.4664 8.90905H13.465ZM13.465 11.7367H20.4344C20.8248 11.7367 21.1398 12.0489 21.1398 12.4331C21.1398 12.8185 20.8248 13.1295 20.4344 13.1295H13.465H13.4664C13.076 13.1295 12.7596 12.8186 12.7596 12.4331C12.7596 12.049 13.076 11.7367 13.4664 11.7367H13.465ZM20.4344 15.9193H13.4373C13.0521 15.9115 12.7451 15.6018 12.7451 15.2216C12.7451 14.8426 13.0521 14.533 13.4373 14.5251H20.4344C20.8182 14.533 21.1266 14.8426 21.1266 15.2216C21.1266 15.6018 20.8182 15.9115 20.4344 15.9193ZM20.4344 18.7508H13.4373C13.0521 18.743 12.7451 18.4333 12.7451 18.0544C12.7451 17.6742 13.0521 17.3645 13.4373 17.3566H20.4344C20.8182 17.3645 21.1266 17.6742 21.1266 18.0544C21.1266 18.4333 20.8182 18.743 20.4344 18.7508Z"
          fill="white"/>
</svg>
