<svg width="22" height="21" viewBox="0 0 22 21" fill="none" xmlns="http://www.w3.org/2000/svg">
    <path d="M21.3522 0H12.9411C12.7701 0 12.6051 0.0668098 12.4837 0.186115C12.3624 0.305421 12.2945 0.467674 12.2945 0.635904V3.81775H0.647857C0.475583 3.81775 0.311813 3.88456 0.190471 4.00386C0.0679387 4.12317 0 4.28542 0 4.45365V20.3641C0 20.5323 0.0679387 20.6946 0.190471 20.8139C0.311791 20.9332 0.47557 21 0.647857 21H21.3521C21.5244 21 21.6882 20.9332 21.8107 20.8139C21.9321 20.6946 22 20.5323 22 20.3641V0.635929C22 0.467711 21.9321 0.305466 21.8095 0.18614C21.6882 0.0668373 21.5245 0 21.3522 0ZM13.5877 1.27298H20.7055V3.81772H13.5877V1.27298ZM20.7055 19.7269H1.2945V5.09071H20.7055V19.7269ZM16.9907 3.02333C16.725 3.01856 16.5127 2.8062 16.5127 2.54493C16.5127 2.28484 16.725 2.07128 16.9907 2.06652C17.2552 2.07129 17.4675 2.28365 17.4675 2.54493C17.4675 2.8062 17.2552 3.01857 16.9907 3.02333ZM15.0496 3.02333C14.7839 3.01856 14.5716 2.8062 14.5716 2.54493C14.5716 2.28484 14.7839 2.07128 15.0496 2.06652C15.3141 2.07129 15.5264 2.28365 15.5264 2.54493C15.5264 2.8062 15.3141 3.01857 15.0496 3.02333ZM18.9318 3.02333C18.6662 3.01856 18.4538 2.8062 18.4538 2.54493C18.4538 2.28484 18.6661 2.07128 18.9318 2.06652C19.1963 2.07129 19.4086 2.28365 19.4086 2.54493C19.4086 2.8062 19.1963 3.01857 18.9318 3.02333ZM8.22409 11.7516C8.91074 11.0691 9.11215 10.0467 8.73604 9.16028C8.35997 8.27505 7.47917 7.6976 6.50256 7.6976C5.52717 7.6976 4.64637 8.27502 4.27029 9.16028C3.893 10.0467 4.09559 11.0691 4.78225 11.7516C3.46109 12.3946 2.62278 13.7177 2.62035 15.1686V16.4416C2.62035 16.6098 2.68951 16.772 2.81083 16.8913C2.93215 17.0107 3.09593 17.0775 3.26821 17.0775H9.73815C9.91042 17.0775 10.0742 17.0107 10.1955 16.8913C10.3169 16.772 10.386 16.6098 10.3848 16.4416V15.1686C10.3836 13.7178 9.54525 12.3948 8.22409 11.7516ZM6.50256 8.97058C7.12008 8.97893 7.61384 9.47284 7.61384 10.0789C7.61384 10.685 7.11884 11.1789 6.50256 11.1884C5.88626 11.1789 5.39129 10.685 5.39129 10.0789C5.39129 9.47284 5.88629 8.97892 6.50256 8.97058ZM9.09029 15.8055H3.9136C3.51081 11.5785 9.49683 11.581 9.09153 15.8043L9.09029 15.8055ZM12.343 8.13435H15.1818C15.5385 8.13435 15.8284 8.41829 15.8284 8.77023C15.8284 9.12216 15.5385 9.40611 15.1818 9.40611H12.3442C11.9863 9.40611 11.6963 9.12216 11.6963 8.77023C11.6963 8.41829 11.9863 8.13435 12.3442 8.13435H12.343ZM12.343 10.7161H18.7315C19.0894 10.7161 19.3781 11.0012 19.3781 11.352C19.3781 11.7039 19.0894 11.9878 18.7315 11.9878H12.343H12.3442C11.9863 11.9878 11.6963 11.7039 11.6963 11.352C11.6963 11.0012 11.9863 10.7161 12.3442 10.7161H12.343ZM18.7315 14.535H12.3175C11.9645 14.5279 11.683 14.2451 11.683 13.898C11.683 13.552 11.9644 13.2692 12.3175 13.2621H18.7315C19.0833 13.2692 19.366 13.552 19.366 13.898C19.366 14.2451 19.0834 14.5279 18.7315 14.535ZM18.7315 17.1203H12.3175C11.9645 17.1132 11.683 16.8304 11.683 16.4844C11.683 16.1373 11.9644 15.8545 12.3175 15.8474H18.7315C19.0833 15.8545 19.366 16.1373 19.366 16.4844C19.366 16.8304 19.0834 17.1132 18.7315 17.1203Z"
          fill="#3E2C78"/>
</svg>
