<svg width="40" height="40" viewBox="0 0 40 40" fill="none" xmlns="http://www.w3.org/2000/svg">
<g id="plus-rec">
<rect id="Tone" opacity="0.12" x="3.33337" y="3.33337" width="33.3333" height="33.3333" rx="10" fill="#4E3797"/>
<path id="Icon" fill-rule="evenodd" clip-rule="evenodd" d="M19.3334 2.33337H19.2876C16.526 2.33337 14.3922 2.33337 12.684 2.47294C10.9546 2.61423 9.5735 2.90353 8.33948 3.5323C6.2697 4.58691 4.58691 6.2697 3.5323 8.33948C2.90353 9.5735 2.61423 10.9546 2.47294 12.684C2.33337 14.3922 2.33337 16.5261 2.33337 19.2876V19.3334V20.6667V20.7125C2.33337 23.474 2.33337 25.6079 2.47294 27.3161C2.61423 29.0455 2.90353 30.4266 3.5323 31.6606C4.58691 33.7304 6.2697 35.4132 8.33948 36.4678C9.5735 37.0965 10.9546 37.3859 12.684 37.5271C14.3922 37.6667 16.526 37.6667 19.2875 37.6667H19.2876H19.3334H20.6667H20.7125H20.7126C23.4741 37.6667 25.6079 37.6667 27.3161 37.5271C29.0455 37.3859 30.4266 37.0965 31.6606 36.4678C33.7304 35.4132 35.4132 33.7304 36.4678 31.6606C37.0965 30.4266 37.3859 29.0455 37.5271 27.3161C37.6667 25.6079 37.6667 23.4741 37.6667 20.7126V20.7125V20.6667V19.3334V19.2876V19.2875C37.6667 16.526 37.6667 14.3922 37.5271 12.684C37.3859 10.9546 37.0965 9.5735 36.4678 8.33948C35.4132 6.2697 33.7304 4.58691 31.6606 3.5323C30.4266 2.90353 29.0455 2.61423 27.3161 2.47294C25.6079 2.33337 23.474 2.33337 20.7125 2.33337H20.6667H19.3334ZM9.24746 5.31432C10.1526 4.85315 11.2411 4.59748 12.8468 4.46629C14.4642 4.33415 16.5166 4.33337 19.3334 4.33337H20.6667C23.4835 4.33337 25.5359 4.33415 27.1533 4.46629C28.7589 4.59748 29.8475 4.85315 30.7526 5.31432C32.4461 6.17718 33.8229 7.554 34.6858 9.24746C35.1469 10.1526 35.4026 11.2411 35.5338 12.8468C35.6659 14.4642 35.6667 16.5166 35.6667 19.3334V20.6667C35.6667 23.4835 35.6659 25.5359 35.5338 27.1533C35.4026 28.7589 35.1469 29.8475 34.6858 30.7526C33.8229 32.4461 32.4461 33.8229 30.7526 34.6858C29.8475 35.1469 28.7589 35.4026 27.1533 35.5338C25.5359 35.6659 23.4835 35.6667 20.6667 35.6667H19.3334C16.5166 35.6667 14.4642 35.6659 12.8468 35.5338C11.2411 35.4026 10.1526 35.1469 9.24746 34.6858C7.554 33.8229 6.17718 32.4461 5.31432 30.7526C4.85315 29.8475 4.59748 28.7589 4.46629 27.1533C4.33415 25.5359 4.33337 23.4835 4.33337 20.6667V19.3334C4.33337 16.5166 4.33415 14.4642 4.46629 12.8468C4.59748 11.2411 4.85315 10.1526 5.31432 9.24746C6.17718 7.554 7.554 6.17718 9.24746 5.31432ZM21 13.3334C21 12.7811 20.5523 12.3334 20 12.3334C19.4478 12.3334 19 12.7811 19 13.3334V19H13.3334C12.7811 19 12.3334 19.4478 12.3334 20C12.3334 20.5523 12.7811 21 13.3334 21H19V26.6667C19 27.219 19.4478 27.6667 20 27.6667C20.5523 27.6667 21 27.219 21 26.6667V21H26.6667C27.219 21 27.6667 20.5523 27.6667 20C27.6667 19.4478 27.219 19 26.6667 19H21V13.3334Z" fill="#4E3797"/>
</g>
</svg>
