<svg width="40" height="40" viewBox="0 0 40 40" fill="none" xmlns="http://www.w3.org/2000/svg">
    <rect width="40" height="40" rx="20" fill="#E7E8EA"/>
    <g opacity="0.12">
        <path d="M20 18C22.2091 18 24 16.2091 24 14C24 11.7909 22.2091 10 20 10C17.7909 10 16 11.7909 16 14C16 16.2091 17.7909 18 20 18Z"
              fill="#344054"/>
        <path d="M16.8 22C14.149 22 12 24.149 12 26.8C12 28.5673 13.4327 30 15.2 30H24.8C26.5673 30 28 28.5673 28 26.8C28 24.149 25.851 22 23.2 22H16.8Z"
              fill="#344054"/>
    </g>
    <path fill-rule="evenodd" clip-rule="evenodd"
          d="M16.75 14C16.75 12.2051 18.2051 10.75 20 10.75C21.7949 10.75 23.25 12.2051 23.25 14C23.25 15.7949 21.7949 17.25 20 17.25C18.2051 17.25 16.75 15.7949 16.75 14ZM20 9.25C17.3766 9.25 15.25 11.3766 15.25 14C15.25 16.6234 17.3766 18.75 20 18.75C22.6234 18.75 24.75 16.6234 24.75 14C24.75 11.3766 22.6234 9.25 20 9.25ZM16.8 21.25C13.7348 21.25 11.25 23.7348 11.25 26.8C11.25 28.9815 13.0185 30.75 15.2 30.75H24.8C26.9815 30.75 28.75 28.9815 28.75 26.8C28.75 23.7348 26.2652 21.25 23.2 21.25H16.8ZM23.2 22.75C25.4368 22.75 27.25 24.5632 27.25 26.8C27.25 28.1531 26.1531 29.25 24.8 29.25H15.2C13.8469 29.25 12.75 28.1531 12.75 26.8C12.75 24.5632 14.5632 22.75 16.8 22.75H23.2Z"
          fill="#344054"/>
</svg>
