<svg width="30" height="30" viewBox="0 0 30 30" fill="none" xmlns="http://www.w3.org/2000/svg">
<path d="M14.9997 0.833008C7.193 0.833008 0.833984 7.19475 0.833984 15.0015C0.833984 22.8082 7.193 29.1672 14.9997 29.1672C22.8065 29.1672 29.1655 22.8082 29.1655 15.0015C29.1655 7.19475 22.8065 0.833008 14.9997 0.833008ZM14.9997 3.66721C21.2751 3.66721 26.3353 8.72607 26.3353 15.0028C26.3353 21.2782 21.2765 26.3357 14.9997 26.3357C8.72436 26.3357 3.66686 21.2796 3.66686 15.0028C3.66686 8.72743 8.723 3.66721 14.9997 3.66721Z" fill="#8373B6"/>
<path d="M15.0359 7.896C14.66 7.896 14.2988 8.04608 14.0332 8.31171C13.7689 8.57867 13.6188 8.93861 13.6201 9.31444V16.3786C13.6201 17.1596 14.2536 17.7931 15.0359 17.7944H20.6871C21.468 17.7931 22.1015 17.1596 22.1029 16.3786C22.1029 16.0028 21.9541 15.6415 21.6885 15.3759C21.4228 15.1103 21.0629 14.9602 20.6871 14.9602H16.4517V9.31448C16.4517 8.93861 16.3029 8.57868 16.0373 8.31175C15.7717 8.04612 15.4118 7.89732 15.0359 7.896Z" fill="#8373B6"/>
</svg>
