<svg width="25" height="25" viewBox="0 0 25 25" fill="none" xmlns="http://www.w3.org/2000/svg">
<g id="Group 28100">
<g id="Group">
<path id="Vector" d="M17.0625 10.8017C17.1238 10.8641 17.1723 10.9381 17.205 11.0193C17.2377 11.1005 17.2541 11.1874 17.2533 11.2749C17.2524 11.3625 17.2343 11.449 17.1999 11.5296C17.1656 11.6101 17.1157 11.6831 17.0531 11.7443L14.1025 14.641C13.6054 15.1324 12.9347 15.4081 12.2358 15.4083C11.5445 15.4079 10.8806 15.1378 10.3851 14.6557L9.11913 13.411C9.05516 13.35 9.00397 13.2769 8.96853 13.1959C8.93308 13.1149 8.9141 13.0277 8.91268 12.9393C8.91126 12.8509 8.92743 12.7631 8.96025 12.681C8.99307 12.599 9.04189 12.5242 9.10387 12.4612C9.16584 12.3982 9.23974 12.3481 9.32125 12.3139C9.40276 12.2796 9.49026 12.262 9.57865 12.2619C9.66705 12.2618 9.75459 12.2793 9.83616 12.3134C9.91773 12.3475 9.99171 12.3974 10.0538 12.4603L11.3158 13.701C11.8331 14.201 12.6498 14.1983 13.1698 13.689L16.1198 10.793C16.1822 10.7316 16.2561 10.6831 16.3373 10.6503C16.4185 10.6175 16.5054 10.601 16.5929 10.6018C16.6805 10.6027 16.767 10.6207 16.8476 10.655C16.9282 10.6893 17.0012 10.7391 17.0625 10.8017ZM20.9198 12.7363C20.9198 17.1477 17.3311 20.7363 12.9198 20.7363C8.50847 20.7363 4.9198 17.1477 4.9198 12.7363C4.9198 8.32499 8.50847 4.73633 12.9198 4.73633C17.3311 4.73633 20.9198 8.32499 20.9198 12.7363ZM19.5865 12.7363C19.5865 9.06033 16.5958 6.06966 12.9198 6.06966C9.2438 6.06966 6.25313 9.06033 6.25313 12.7363C6.25313 16.4123 9.2438 19.403 12.9198 19.403C16.5958 19.403 19.5865 16.4123 19.5865 12.7363Z" fill="#98A2B3"/>
</g>
</g>
</svg>
