<svg width="20" height="20" viewBox="0 0 20 20" fill="none" xmlns="http://www.w3.org/2000/svg">
<path d="M10.5066 4.25693H15.6564C16.3874 4.25773 17.0881 4.54405 17.605 5.05308C18.1219 5.5621 18.4126 6.25225 18.4134 6.97212V13.0279C18.4134 13.2351 18.497 13.4338 18.6458 13.5803C18.7946 13.7268 18.9963 13.8091 19.2067 13.8091C19.4171 13.8091 19.6189 13.7268 19.7677 13.5803C19.9164 13.4338 20 13.2351 20 13.0279V6.97212C19.9987 5.83799 19.5406 4.75069 18.7263 3.94875C17.912 3.14681 16.808 2.69571 15.6564 2.69443H10.5066L11.8883 1.33373C12.0371 1.18722 12.1206 0.988502 12.1206 0.781296C12.1207 0.574091 12.0371 0.375369 11.8883 0.228848C11.7395 0.0823263 11.5378 7.3283e-06 11.3274 4.89267e-10C11.117 -7.32732e-06 10.9152 0.0822976 10.7664 0.228809L8.03053 2.92322C7.95687 2.99576 7.89843 3.08189 7.85856 3.17668C7.81869 3.27147 7.79817 3.37306 7.79817 3.47566C7.79817 3.57826 7.81869 3.67985 7.85856 3.77464C7.89843 3.86943 7.95687 3.95555 8.03053 4.0281L10.8476 6.80247C10.9964 6.94898 11.1982 7.03128 11.4086 7.03128C11.619 7.03127 11.8207 6.94895 11.9695 6.80243C12.1183 6.65591 12.2018 6.45719 12.2018 6.24998C12.2018 6.04278 12.1182 5.84406 11.9695 5.69755L10.5066 4.25693ZM0.793276 6.19087C1.00367 6.19087 1.20544 6.27318 1.35421 6.41969C1.50298 6.5662 1.58655 6.76492 1.58655 6.97212V13.0279C1.58738 13.7478 1.87812 14.4379 2.39499 14.9469C2.91185 15.4559 3.61263 15.7423 4.34358 15.7431H9.49337L8.03053 14.3025C7.88176 14.1559 7.79817 13.9572 7.79816 13.75C7.79815 13.5428 7.88173 13.3441 8.03049 13.1976C8.17926 13.0511 8.38104 12.9687 8.59143 12.9687C8.80183 12.9687 9.00361 13.051 9.15238 13.1975L11.9695 15.9719C12.0431 16.0445 12.1016 16.1306 12.1414 16.2254C12.1813 16.3202 12.2018 16.4217 12.2018 16.5243C12.2018 16.6269 12.1813 16.7285 12.1414 16.8233C12.1016 16.9181 12.0431 17.0042 11.9695 17.0768L9.23358 19.7712C9.15991 19.8437 9.07245 19.9013 8.97621 19.9405C8.87996 19.9798 8.7768 20 8.67262 20C8.56845 20 8.46529 19.9798 8.36904 19.9405C8.2728 19.9013 8.18535 19.8437 8.11169 19.7712C8.03802 19.6986 7.97959 19.6125 7.93973 19.5177C7.89987 19.4229 7.87935 19.3213 7.87935 19.2187C7.87936 19.1161 7.89988 19.0145 7.93975 18.9197C7.97962 18.8249 8.03806 18.7388 8.11173 18.6663L9.49337 17.3056H4.34358C3.192 17.3043 2.08796 16.8532 1.27366 16.0513C0.459362 15.2493 0.00131226 14.162 0 13.0279V6.97212C0 6.76492 0.0835762 6.5662 0.232346 6.41969C0.381113 6.27318 0.582888 6.19087 0.793276 6.19087Z" fill="#344054"/>
</svg>
