<svg width="21" height="29" viewBox="0 0 21 29" fill="none" xmlns="http://www.w3.org/2000/svg">
<path d="M17.9164 5.36792H9.98376V4.51718C9.98376 2.54422 8.35839 0.918945 6.38552 0.918945C4.41265 0.918945 2.78729 2.54431 2.78729 4.51718L2.78619 5.36792H2.32165C1.04498 5.36792 0 6.41288 0 7.68957V26.457C0 27.7337 1.04495 28.7786 2.32165 28.7786H17.9165C19.1932 28.7786 20.2382 27.7337 20.2382 26.457V7.68957C20.2382 6.4129 19.1931 5.36792 17.9164 5.36792ZM4.33415 4.51718C4.33415 3.39497 5.26326 2.46589 6.38544 2.46589C7.50762 2.46589 8.43673 3.395 8.43673 4.51718L8.43562 5.36792H7.0817V5.25206C7.0817 4.82614 6.733 4.47855 6.30818 4.47855C5.88226 4.47855 5.53466 4.82724 5.53466 5.25206L5.53356 5.36792H4.37274V4.51718H4.33415ZM7.08173 6.91606H8.43565V9.16045C8.43565 9.54776 8.12558 9.85671 7.7394 9.85671C7.35209 9.85671 7.04314 9.54663 7.04314 9.16045V6.91606H7.08173ZM18.69 26.458C18.69 26.884 18.3413 27.2316 17.9165 27.2316H2.36027C1.93434 27.2316 1.58675 26.8829 1.58675 26.458V7.68977C1.58675 7.26385 1.93544 6.91626 2.36027 6.91626H2.8248V7.61251C2.8248 8.03844 3.1735 8.38603 3.59832 8.38603C4.02424 8.38603 4.37184 8.03734 4.37184 7.61251L4.37294 6.91626H5.53376V9.16065C5.53376 10.3987 6.5401 11.405 7.77815 11.405C9.01621 11.405 10.0225 10.3987 10.0225 9.16065V6.91626H17.9939C18.4198 6.91626 18.7674 7.26495 18.7674 7.68977V26.458H18.69Z" fill="white"/>
<path d="M13.736 12.6234C14.886 12.6234 15.8334 11.676 15.8334 10.5261C15.8334 9.37607 14.886 8.42871 13.736 8.42871C12.586 8.42871 11.6387 9.37607 11.6387 10.5261C11.6387 11.676 12.5513 12.6234 13.736 12.6234ZM13.736 9.78123C14.1422 9.78123 14.4808 10.1199 14.4808 10.526C14.4808 10.9322 14.1422 11.2708 13.736 11.2708C13.3299 11.2708 12.9912 10.9322 12.9912 10.526C12.9575 10.1189 13.3299 9.78123 13.736 9.78123Z" fill="white"/>
<path d="M13.1266 13.3678C11.4692 13.639 10.2506 15.0928 10.1493 16.7511C10.1156 17.0898 10.3857 17.3599 10.7243 17.3599H16.7463C17.0849 17.3599 17.355 17.0888 17.3212 16.7511V16.6498C17.1524 14.5863 15.2576 12.9954 13.1266 13.3678ZM11.6718 16.0065C12.0104 15.1942 12.8217 14.653 13.7354 14.653C14.649 14.653 15.4266 15.1942 15.7989 16.0065H11.6718Z" fill="white"/>
<path d="M16.5254 23.8367H4.49031C4.06439 23.8367 3.7168 24.1854 3.7168 24.6102C3.7168 25.0361 4.06549 25.3837 4.49031 25.3837H16.5245C16.9505 25.3837 17.2981 25.035 17.2981 24.6102C17.2992 24.1854 16.9502 23.8367 16.5254 23.8367Z" fill="white"/>
<path d="M16.5254 19.8532H4.49031C4.06439 19.8532 3.7168 20.2019 3.7168 20.6267C3.7168 21.0526 4.06549 21.4002 4.49031 21.4002H16.5245C16.9505 21.4002 17.2981 21.0515 17.2981 20.6267C17.2992 20.2019 16.9502 19.8532 16.5254 19.8532Z" fill="white"/>
<path d="M4.49031 17.4167H8.08855C8.51447 17.4167 8.86206 17.068 8.86206 16.6432C8.86206 16.2173 8.51337 15.8697 8.08855 15.8697H4.49031C4.06439 15.8697 3.7168 16.2184 3.7168 16.6432C3.7168 17.0691 4.06439 17.4167 4.49031 17.4167Z" fill="white"/>
</svg>
