<svg width="21" height="29" viewBox="0 0 21 29" fill="none" xmlns="http://www.w3.org/2000/svg">
    <path d="M18.6781 5.36792H10.7455V4.51718C10.7455 2.54422 9.12011 0.918945 7.14724 0.918945C5.17437 0.918945 3.54901 2.54431 3.54901 4.51718L3.54791 5.36792H3.08337C1.8067 5.36792 0.761719 6.41288 0.761719 7.68957V26.457C0.761719 27.7337 1.80667 28.7786 3.08337 28.7786H18.6783C19.9549 28.7786 20.9999 27.7337 20.9999 26.457V7.68957C20.9999 6.4129 19.9548 5.36792 18.6781 5.36792ZM5.09587 4.51718C5.09587 3.39497 6.02498 2.46589 7.14716 2.46589C8.26934 2.46589 9.19845 3.395 9.19845 4.51718L9.19734 5.36792H7.84341V5.25206C7.84341 4.82614 7.49472 4.47855 7.0699 4.47855C6.64397 4.47855 6.29638 4.82724 6.29638 5.25206L6.29528 5.36792H5.13446V4.51718H5.09587ZM7.84344 6.91606H9.19737V9.16045C9.19737 9.54776 8.88729 9.85671 8.50111 9.85671C8.11381 9.85671 7.80486 9.54663 7.80486 9.16045V6.91606H7.84344ZM19.4517 26.458C19.4517 26.884 19.103 27.2316 18.6782 27.2316H3.12198C2.69606 27.2316 2.34847 26.8829 2.34847 26.458V7.68977C2.34847 7.26385 2.69716 6.91626 3.12198 6.91626H3.58652V7.61251C3.58652 8.03844 3.93522 8.38603 4.36004 8.38603C4.78596 8.38603 5.13355 8.03734 5.13355 7.61251L5.13466 6.91626H6.29548V9.16065C6.29548 10.3987 7.30182 11.405 8.53987 11.405C9.77793 11.405 10.7843 10.3987 10.7843 9.16065V6.91626H18.7556C19.1815 6.91626 19.5291 7.26495 19.5291 7.68977V26.458H19.4517Z"
          fill="#3E2C78"/>
    <path d="M14.4977 12.6234C15.6477 12.6234 16.5951 11.676 16.5951 10.5261C16.5951 9.37607 15.6477 8.42871 14.4977 8.42871C13.3478 8.42871 12.4004 9.37607 12.4004 10.5261C12.4004 11.676 13.313 12.6234 14.4977 12.6234ZM14.4977 9.78123C14.9039 9.78123 15.2425 10.1199 15.2425 10.526C15.2425 10.9322 14.9039 11.2708 14.4977 11.2708C14.0916 11.2708 13.753 10.9322 13.753 10.526C13.7192 10.1189 14.0916 9.78123 14.4977 9.78123Z"
          fill="#3E2C78"/>
    <path d="M13.8883 13.3678C12.2309 13.639 11.0123 15.0928 10.9111 16.7511C10.8773 17.0898 11.1474 17.3599 11.486 17.3599H17.508C17.8466 17.3599 18.1167 17.0888 18.083 16.7511V16.6498C17.9141 14.5863 16.0193 12.9954 13.8883 13.3678ZM12.4335 16.0065C12.7721 15.1942 13.5835 14.653 14.4971 14.653C15.4107 14.653 16.1883 15.1942 16.5607 16.0065H12.4335Z"
          fill="#3E2C78"/>
    <path d="M17.2871 23.8367H5.25203C4.82611 23.8367 4.47852 24.1854 4.47852 24.6102C4.47852 25.0361 4.82721 25.3837 5.25203 25.3837H17.2863C17.7122 25.3837 18.0598 25.035 18.0598 24.6102C18.0609 24.1854 17.7119 23.8367 17.2871 23.8367Z"
          fill="#3E2C78"/>
    <path d="M17.2871 19.8532H5.25203C4.82611 19.8532 4.47852 20.2019 4.47852 20.6267C4.47852 21.0526 4.82721 21.4002 5.25203 21.4002H17.2863C17.7122 21.4002 18.0598 21.0515 18.0598 20.6267C18.0609 20.2019 17.7119 19.8532 17.2871 19.8532Z"
          fill="#3E2C78"/>
    <path d="M5.25203 17.4167H8.85026C9.27619 17.4167 9.62378 17.068 9.62378 16.6432C9.62378 16.2173 9.27509 15.8697 8.85026 15.8697H5.25203C4.82611 15.8697 4.47852 16.2184 4.47852 16.6432C4.47852 17.0691 4.82611 17.4167 5.25203 17.4167Z"
          fill="#3E2C78"/>
</svg>