<svg width="26" height="26" viewBox="0 0 26 26" fill="none" xmlns="http://www.w3.org/2000/svg">
<path d="M12.9979 1.78717C13.2819 1.78717 13.5659 1.79131 13.6795 1.79752C14.1803 1.82857 14.1121 4.57388 14.6047 4.67243C15.0498 4.76142 16.7734 5.37611 17.1648 5.60584C17.1885 5.62033 17.2164 5.62654 17.2484 5.62654C17.7482 5.62654 19.1279 3.96976 19.6215 3.96976C19.6587 3.96976 19.6917 3.97907 19.7175 3.99977C19.8983 4.13844 20.6005 4.71691 20.7616 4.87732C21.1189 5.23226 19.322 7.27505 19.6256 7.67539C19.9003 8.03759 20.8432 9.60848 20.9877 10.04C21.0466 10.2139 21.4473 10.2511 21.9378 10.2511C22.2879 10.2511 22.6844 10.2325 23.0345 10.2325C23.5333 10.2325 23.936 10.2708 23.9742 10.4539C24.0207 10.6764 24.1921 11.5716 24.2107 11.7982C24.252 12.3001 21.5743 12.7078 21.5464 13.2108C21.5206 13.665 21.2387 15.476 21.0735 15.9002C20.8907 16.369 23.333 17.6967 23.0954 18.1406C22.9891 18.3414 22.544 19.1372 22.4149 19.3234C22.3777 19.3762 22.3065 19.399 22.2104 19.399C21.6487 19.399 20.2287 18.626 19.6639 18.626C19.575 18.626 19.5079 18.6446 19.4687 18.688C19.1609 19.0233 17.7761 20.2186 17.3816 20.4431C16.9459 20.6915 17.9568 23.2672 17.4942 23.4619C17.2846 23.5499 16.4316 23.8665 16.2137 23.9286C16.2013 23.9327 16.1878 23.9338 16.1755 23.9338C15.6932 23.9338 14.8712 21.5423 14.3848 21.5423C14.3776 21.5423 14.3703 21.5433 14.3631 21.5443C14.139 21.5795 13.57 21.5961 13.001 21.5961C12.432 21.5961 11.863 21.5795 11.6389 21.5443C11.6317 21.5433 11.6245 21.5423 11.6172 21.5423C11.1309 21.5423 10.3089 23.9338 9.82659 23.9338C9.81317 23.9338 9.80078 23.9317 9.78839 23.9286C9.57049 23.8665 8.71749 23.5498 8.50785 23.4619C8.04418 23.2673 9.0562 20.6927 8.61938 20.4431C8.2249 20.2175 6.83904 19.0233 6.53235 18.688C6.49207 18.6446 6.42495 18.626 6.33717 18.626C5.7723 18.626 4.35237 19.399 3.79059 19.399C3.69455 19.399 3.6233 19.3762 3.58612 19.3234C3.456 19.1372 3.01194 18.3414 2.90456 18.1406C2.66808 17.6967 5.10932 16.369 4.92653 15.9002C4.76131 15.4759 4.47939 13.665 4.45356 13.2108C4.42567 12.7078 1.74804 12.3001 1.78928 11.7982C1.80787 11.5716 1.98033 10.6764 2.02576 10.4539C2.06397 10.2697 2.46673 10.2325 2.9655 10.2325C3.31455 10.2325 3.71109 10.2511 4.0622 10.2511C4.55273 10.2511 4.9534 10.2149 5.01228 10.04C5.15685 9.60848 6.09969 8.03759 6.37437 7.67539C6.679 7.27492 4.88215 5.23109 5.23945 4.87732C5.40054 4.71692 6.10276 4.13843 6.28348 3.99977C6.31033 3.97907 6.34234 3.96976 6.37952 3.96976C6.87314 3.96976 8.25278 5.62654 8.75262 5.62654C8.78463 5.62654 8.81252 5.62033 8.83627 5.60584C9.22766 5.37611 10.9512 4.76141 11.3973 4.67243C11.8899 4.57412 11.8217 1.82984 12.3226 1.79752C12.43 1.79131 12.7139 1.78717 12.9979 1.78717ZM12.998 1.61062e-06C12.7863 1.61062e-06 12.4021 0.00207117 12.2059 0.0144893C11.7711 0.0413945 10.7157 0.269061 10.3058 1.78924C10.2077 2.1535 10.1447 2.56434 10.0848 2.96172C10.0734 3.03416 10.06 3.12108 10.0466 3.21111C9.6841 3.33219 9.28445 3.47603 8.92095 3.61885C8.85383 3.55986 8.78877 3.50295 8.73507 3.45535C7.96262 2.77339 7.29552 2.18352 6.3754 2.18352C5.93962 2.18352 5.52964 2.32322 5.18988 2.58607C5.05976 2.68748 4.24395 3.34771 3.98061 3.6085C3.67702 3.91066 3.04087 4.76235 3.69042 6.1687C3.84842 6.51124 4.06323 6.86515 4.27078 7.20872C4.31003 7.27288 4.35546 7.34946 4.40297 7.42914C4.20573 7.74787 3.98886 8.11523 3.79781 8.46294C3.71726 8.46087 3.63568 8.4588 3.55306 8.45776C3.35169 8.45259 3.15033 8.44742 2.96133 8.44742C2.54929 8.44742 2.24673 8.47018 1.9803 8.52192C0.64504 8.7796 0.337318 9.79065 0.27432 10.0949C0.272254 10.1063 0.0409354 11.2487 0.00686131 11.6533C-0.0365105 12.1801 0.0905092 13.1549 1.42989 13.7862C1.77068 13.9466 2.16205 14.0801 2.54001 14.2084C2.61127 14.2332 2.69698 14.2622 2.78476 14.2922C2.83845 14.6627 2.90764 15.0828 2.98406 15.4709C2.91488 15.5268 2.84775 15.5806 2.79095 15.6251C2.47599 15.8765 2.15069 16.1363 1.88426 16.4033C0.747276 17.5457 1.11596 18.5899 1.32764 18.9862C1.3328 18.9956 1.88632 20.0149 2.1197 20.3491C2.49145 20.8841 3.09971 21.1905 3.78748 21.1905C4.40295 21.1905 5.03497 20.9442 5.70413 20.6834C5.77435 20.6565 5.858 20.6234 5.94475 20.5902C6.22563 20.8407 6.54887 21.1159 6.85453 21.3622C6.83698 21.4512 6.82045 21.5361 6.806 21.6075C6.72648 22.0018 6.6449 22.4105 6.61289 22.7872C6.47554 24.3747 7.40908 24.9438 7.81699 25.1146C8.03902 25.2087 8.97359 25.5596 9.29371 25.6516C9.46617 25.7013 9.64482 25.7262 9.82554 25.7262C11.1236 25.7262 11.7391 24.5992 12.2813 23.6047C12.3174 23.5406 12.3587 23.4619 12.4031 23.3822C12.6096 23.3864 12.8162 23.3874 13 23.3874C13.1838 23.3874 13.3893 23.3853 13.5959 23.3822C13.6403 23.4619 13.6826 23.5395 13.7187 23.6047C14.2619 24.5992 14.8774 25.7262 16.1745 25.7262C16.3541 25.7262 16.5318 25.7003 16.7042 25.6516C17.0254 25.5595 17.96 25.2087 18.183 25.1146C18.5899 24.9438 19.5234 24.3736 19.3871 22.7862C19.3551 22.4095 19.2725 22.0018 19.194 21.6075C19.1796 21.5361 19.163 21.4502 19.1455 21.3622C19.4501 21.1159 19.7734 20.8407 20.0542 20.5902C20.141 20.6234 20.2246 20.6565 20.2949 20.6834C20.964 20.9442 21.596 21.1905 22.2115 21.1905C22.8993 21.1905 23.5065 20.8842 23.8793 20.3502C24.1137 20.0138 24.6662 18.9955 24.6714 18.9862C24.8831 18.592 25.2517 17.5468 24.1147 16.4054C23.8483 16.1373 23.523 15.8776 23.208 15.6251C23.1512 15.5806 23.0852 15.5268 23.0149 15.4709C23.0913 15.0828 23.1605 14.6627 23.2142 14.2922C23.303 14.2612 23.3877 14.2322 23.46 14.2084C23.838 14.0801 24.2294 13.9466 24.5701 13.7862C25.9085 13.1549 26.0365 12.1801 25.9932 11.6544C25.9591 11.2498 25.7278 10.1052 25.7247 10.0939C25.6627 9.79168 25.354 8.77961 24.0187 8.52192C23.7523 8.47018 23.4507 8.44742 23.0377 8.44742C22.8487 8.44742 22.6473 8.45259 22.4459 8.45776C22.3644 8.45983 22.2828 8.4619 22.2012 8.46294C22.0101 8.11523 21.7933 7.7489 21.596 7.42914C21.6435 7.34946 21.69 7.27288 21.7292 7.20872C21.9368 6.86618 22.1516 6.51124 22.3096 6.1687C22.5254 5.69993 22.9313 4.51296 22.0194 3.6085C21.755 3.34668 20.9403 2.68644 20.8091 2.58503C20.4694 2.32322 20.0594 2.18352 19.6246 2.18352C18.7045 2.18352 18.0374 2.77339 17.265 3.45535C17.2102 3.50295 17.1462 3.55986 17.0791 3.61885C16.7156 3.47708 16.3159 3.33324 15.9535 3.21215C15.939 3.12212 15.9256 3.03519 15.9152 2.96275C15.8543 2.56537 15.7924 2.15453 15.6932 1.79027C15.2832 0.270084 14.2278 0.0424117 13.7931 0.0155224C13.5938 0.00103478 13.2097 1.61062e-06 12.998 1.61062e-06Z" fill="white"/>
<path d="M12.9961 18.4813C9.90438 18.4813 7.38867 15.9605 7.38867 12.8621C7.38867 9.76379 9.90427 7.24292 12.9961 7.24292C16.088 7.24292 18.6036 9.76379 18.6036 12.8621C18.6036 15.9605 16.088 18.4813 12.9961 18.4813ZM12.9961 9.03007C10.8874 9.03007 9.17314 10.7489 9.17314 12.8621C9.17314 14.9753 10.8884 16.6942 12.9961 16.6942C15.1049 16.6942 16.8202 14.9753 16.8202 12.8621C16.8202 10.7489 15.1049 9.03007 12.9961 9.03007Z" fill="white"/>
</svg>
