<svg width="26" height="26" viewBox="0 0 26 26" fill="none" xmlns="http://www.w3.org/2000/svg">
	<path d="M12.9979 1.81867C13.2819 1.81867 13.5659 1.82281 13.6795 1.82902C14.1803 1.86006 14.1121 4.60537 14.6047 4.70392C15.0498 4.79292 16.7734 5.4076 17.1648 5.63734C17.1885 5.65182 17.2164 5.65803 17.2484 5.65803C17.7482 5.65803 19.1279 4.00126 19.6215 4.00126C19.6587 4.00126 19.6917 4.01057 19.7175 4.03127C19.8983 4.16993 20.6005 4.7484 20.7616 4.90881C21.1189 5.26375 19.322 7.30654 19.6256 7.70689C19.9003 8.06909 20.8432 9.63998 20.9877 10.0715C21.0466 10.2454 21.4473 10.2826 21.9378 10.2826C22.2879 10.2826 22.6844 10.264 23.0345 10.264C23.5333 10.264 23.936 10.3023 23.9742 10.4854C24.0207 10.7079 24.1921 11.6031 24.2107 11.8297C24.252 12.3316 21.5743 12.7393 21.5464 13.2422C21.5206 13.6965 21.2387 15.5075 21.0735 15.9317C20.8907 16.4005 23.333 17.7282 23.0954 18.1721C22.9891 18.3729 22.544 19.1687 22.4149 19.3549C22.3777 19.4077 22.3065 19.4305 22.2104 19.4305C21.6487 19.4305 20.2287 18.6575 19.6639 18.6575C19.575 18.6575 19.5079 18.6761 19.4687 18.7195C19.1609 19.0548 17.7761 20.2501 17.3816 20.4746C16.9459 20.723 17.9568 23.2987 17.4942 23.4934C17.2846 23.5814 16.4316 23.898 16.2137 23.9601C16.2013 23.9642 16.1878 23.9653 16.1755 23.9653C15.6932 23.9653 14.8712 21.5738 14.3848 21.5738C14.3776 21.5738 14.3703 21.5748 14.3631 21.5758C14.139 21.611 13.57 21.6276 13.001 21.6276C12.432 21.6276 11.863 21.611 11.6389 21.5758C11.6317 21.5748 11.6245 21.5738 11.6172 21.5738C11.1309 21.5738 10.3089 23.9653 9.82659 23.9653C9.81317 23.9653 9.80078 23.9632 9.78839 23.9601C9.57049 23.898 8.71749 23.5813 8.50785 23.4934C8.04418 23.2988 9.0562 20.7242 8.61938 20.4746C8.2249 20.249 6.83904 19.0548 6.53235 18.7195C6.49207 18.6761 6.42495 18.6575 6.33717 18.6575C5.7723 18.6575 4.35237 19.4305 3.79059 19.4305C3.69455 19.4305 3.6233 19.4077 3.58612 19.3549C3.456 19.1687 3.01194 18.3729 2.90456 18.1721C2.66808 17.7282 5.10932 16.4005 4.92653 15.9317C4.76131 15.5074 4.47939 13.6965 4.45356 13.2422C4.42567 12.7393 1.74804 12.3316 1.78928 11.8297C1.80787 11.6031 1.98033 10.7079 2.02576 10.4854C2.06397 10.3012 2.46673 10.264 2.9655 10.264C3.31455 10.264 3.71109 10.2826 4.0622 10.2826C4.55273 10.2826 4.9534 10.2464 5.01228 10.0715C5.15685 9.63998 6.09969 8.06909 6.37437 7.70689C6.679 7.30641 4.88215 5.26258 5.23945 4.90881C5.40054 4.74841 6.10276 4.16992 6.28348 4.03127C6.31033 4.01057 6.34234 4.00126 6.37952 4.00126C6.87314 4.00126 8.25278 5.65803 8.75262 5.65803C8.78463 5.65803 8.81252 5.65182 8.83627 5.63734C9.22766 5.4076 10.9512 4.79291 11.3973 4.70392C11.8899 4.60561 11.8217 1.86134 12.3226 1.82902C12.43 1.82281 12.7139 1.81867 12.9979 1.81867ZM12.998 0.0314958C12.7863 0.0314958 12.4021 0.0335653 12.2059 0.0459834C11.7711 0.0728886 10.7157 0.300555 10.3058 1.82073C10.2077 2.18499 10.1447 2.59583 10.0848 2.99321C10.0734 3.06565 10.06 3.15258 10.0466 3.24261C9.6841 3.36368 9.28445 3.50753 8.92095 3.65035C8.85383 3.59136 8.78877 3.53444 8.73507 3.48684C7.96262 2.80488 7.29552 2.21502 6.3754 2.21502C5.93962 2.21502 5.52964 2.35472 5.18988 2.61756C5.05976 2.71897 4.24395 3.3792 3.98061 3.63999C3.67702 3.94216 3.04087 4.79385 3.69042 6.2002C3.84842 6.54274 4.06323 6.89664 4.27078 7.24022C4.31003 7.30438 4.35546 7.38096 4.40297 7.46064C4.20573 7.77936 3.98886 8.14673 3.79781 8.49443C3.71726 8.49236 3.63568 8.49029 3.55306 8.48926C3.35169 8.48408 3.15033 8.47891 2.96133 8.47891C2.54929 8.47891 2.24673 8.50168 1.9803 8.55342C0.64504 8.81109 0.337318 9.82214 0.27432 10.1264C0.272254 10.1378 0.0409354 11.2802 0.00686131 11.6848C-0.0365105 12.2116 0.0905092 13.1864 1.42989 13.8177C1.77068 13.9781 2.16205 14.1116 2.54001 14.2399C2.61127 14.2647 2.69698 14.2937 2.78476 14.3237C2.83845 14.6942 2.90764 15.1143 2.98406 15.5024C2.91488 15.5583 2.84775 15.6121 2.79095 15.6566C2.47599 15.908 2.15069 16.1678 1.88426 16.4348C0.747276 17.5772 1.11596 18.6214 1.32764 19.0177C1.3328 19.0271 1.88632 20.0464 2.1197 20.3806C2.49145 20.9156 3.09971 21.2219 3.78748 21.2219C4.40295 21.2219 5.03497 20.9757 5.70413 20.7149C5.77435 20.688 5.858 20.6548 5.94475 20.6217C6.22563 20.8722 6.54887 21.1474 6.85453 21.3937C6.83698 21.4827 6.82045 21.5676 6.806 21.639C6.72648 22.0333 6.6449 22.442 6.61289 22.8187C6.47554 24.4062 7.40908 24.9753 7.81699 25.1461C8.03902 25.2402 8.97359 25.5911 9.29371 25.6831C9.46617 25.7328 9.64482 25.7577 9.82554 25.7577C11.1236 25.7577 11.7391 24.6307 12.2813 23.6362C12.3174 23.5721 12.3587 23.4934 12.4031 23.4137C12.6096 23.4179 12.8162 23.4189 13 23.4189C13.1838 23.4189 13.3893 23.4168 13.5959 23.4137C13.6403 23.4934 13.6826 23.571 13.7187 23.6362C14.2619 24.6307 14.8774 25.7577 16.1745 25.7577C16.3541 25.7577 16.5318 25.7318 16.7042 25.6831C17.0254 25.591 17.96 25.2402 18.183 25.1461C18.5899 24.9753 19.5234 24.4051 19.3871 22.8177C19.3551 22.441 19.2725 22.0333 19.194 21.639C19.1796 21.5676 19.163 21.4817 19.1455 21.3937C19.4501 21.1474 19.7734 20.8722 20.0542 20.6217C20.141 20.6548 20.2246 20.688 20.2949 20.7149C20.964 20.9756 21.596 21.2219 22.2115 21.2219C22.8993 21.2219 23.5065 20.9156 23.8793 20.3817C24.1137 20.0453 24.6662 19.027 24.6714 19.0177C24.8831 18.6235 25.2517 17.5783 24.1147 16.4368C23.8483 16.1688 23.523 15.9091 23.208 15.6566C23.1512 15.6121 23.0852 15.5583 23.0149 15.5024C23.0913 15.1143 23.1605 14.6942 23.2142 14.3237C23.303 14.2927 23.3877 14.2637 23.46 14.2399C23.838 14.1116 24.2294 13.9781 24.5701 13.8177C25.9085 13.1864 26.0365 12.2116 25.9932 11.6859C25.9591 11.2813 25.7278 10.1367 25.7247 10.1253C25.6627 9.82318 25.354 8.81111 24.0187 8.55342C23.7523 8.50168 23.4507 8.47891 23.0377 8.47891C22.8487 8.47891 22.6473 8.48408 22.4459 8.48926C22.3644 8.49133 22.2828 8.4934 22.2012 8.49443C22.0101 8.14673 21.7933 7.7804 21.596 7.46064C21.6435 7.38096 21.69 7.30438 21.7292 7.24022C21.9368 6.89768 22.1516 6.54274 22.3096 6.2002C22.5254 5.73142 22.9313 4.54445 22.0194 3.63999C21.755 3.37818 20.9403 2.71794 20.8091 2.61653C20.4694 2.35471 20.0594 2.21502 19.6246 2.21502C18.7045 2.21502 18.0374 2.80488 17.265 3.48684C17.2102 3.53444 17.1462 3.59136 17.0791 3.65035C16.7156 3.50857 16.3159 3.36474 15.9535 3.24364C15.939 3.15361 15.9256 3.06668 15.9152 2.99424C15.8543 2.59686 15.7924 2.18603 15.6932 1.82176C15.2832 0.301578 14.2278 0.0739059 13.7931 0.0470166C13.5938 0.0325289 13.2097 0.0314958 12.998 0.0314958Z" fill="#3E2C78"/>
	<path d="M12.9961 18.5128C9.90438 18.5128 7.38867 15.992 7.38867 12.8936C7.38867 9.79528 9.90427 7.27441 12.9961 7.27441C16.088 7.27441 18.6036 9.79528 18.6036 12.8936C18.6036 15.992 16.088 18.5128 12.9961 18.5128ZM12.9961 9.06156C10.8874 9.06156 9.17314 10.7804 9.17314 12.8936C9.17314 15.0068 10.8884 16.7257 12.9961 16.7257C15.1049 16.7257 16.8202 15.0068 16.8202 12.8936C16.8202 10.7804 15.1049 9.06156 12.9961 9.06156Z" fill="#3E2C78"/>
</svg>