<svg width="27" height="27" viewBox="0 0 27 27" fill="none" xmlns="http://www.w3.org/2000/svg">
<g clip-path="url(#clip0_2535_19151)">
<path d="M21.4481 10.3234C24.0754 10.3234 26.2131 8.18657 26.2131 5.55842C26.2131 2.93118 24.0763 0.793457 21.4481 0.793457C18.8209 0.793457 16.6832 2.93026 16.6832 5.55842C16.6832 5.90858 16.7232 6.24924 16.796 6.57934L9.27597 10.5354C8.40269 9.44061 7.06008 8.73502 5.55402 8.73502C2.92679 8.73502 0.789062 10.8718 0.789062 13.5C0.789062 16.1272 2.92587 18.2649 5.55402 18.2649C7.06435 18.2649 8.41008 17.5562 9.28326 16.4572L16.2663 20.1306C16.1946 20.4681 16.1555 20.8172 16.1555 21.1758C16.1555 23.9487 18.4115 26.2056 21.1843 26.2056C23.957 26.2056 26.213 23.9485 26.213 21.1758C26.213 18.4029 23.957 16.147 21.1843 16.147C19.6223 16.147 18.2237 16.8631 17.3009 17.9843L10.2493 14.2739C10.2904 14.0219 10.3178 13.7645 10.3178 13.4998C10.3178 13.2319 10.2904 12.9714 10.2482 12.7151L17.8779 8.70211C18.7512 9.69352 20.0263 10.3234 21.4481 10.3234ZM21.1845 18.5289C22.6441 18.5289 23.8317 19.7165 23.8317 21.1762C23.8317 22.6359 22.6442 23.8235 21.1845 23.8235C19.7248 23.8235 18.5372 22.6359 18.5372 21.1762C18.5372 19.7165 19.7248 18.5289 21.1845 18.5289ZM5.55388 15.8827C4.24079 15.8827 3.17135 14.8143 3.17135 13.5002C3.17135 12.1871 4.23974 11.1177 5.55388 11.1177C6.86697 11.1177 7.93641 12.1861 7.93641 13.5002C7.93536 14.8133 6.86697 15.8827 5.55388 15.8827ZM21.448 3.1768C22.7611 3.1768 23.8305 4.24519 23.8305 5.55934C23.8305 6.87243 22.7621 7.94187 21.448 7.94187C20.1349 7.94187 19.0654 6.87348 19.0654 5.55934C19.0665 4.24519 20.1349 3.1768 21.448 3.1768Z" fill="white"/>
</g>
<defs>
<clipPath id="clip0_2535_19151">
<rect width="27" height="27" fill="white"/>
</clipPath>
</defs>
</svg>
