<svg width="23" height="23" viewBox="0 0 23 23" fill="none" xmlns="http://www.w3.org/2000/svg">
<g clip-path="url(#clip0_3211_17623)">
<path d="M11.1787 0.560059C5.09417 0.560059 0.178711 5.47552 0.178711 11.5601C0.178711 17.6446 5.09417 22.5601 11.1787 22.5601C17.2633 22.5601 22.1787 17.6446 22.1787 11.5601C22.1787 5.47552 17.2633 0.560059 11.1787 0.560059ZM17.0773 14.5625C16.9444 14.8547 16.5193 15.0407 15.6159 15.2002C15.5893 15.2267 15.5628 15.3596 15.5628 15.3861C15.5362 15.4924 15.5362 15.5456 15.5096 15.6518C15.4831 15.8113 15.3502 15.9175 15.1908 15.9175C15.1376 15.9175 15.0314 15.9175 14.8985 15.891C14.7391 15.8644 14.5531 15.8378 14.314 15.8378C14.1811 15.8378 14.0217 15.8644 13.8889 15.8644C13.5966 15.9175 13.384 16.1035 13.0918 16.2895C12.6135 16.6084 12.029 16.7678 11.3647 16.7678H11.2319C10.4879 16.7678 10.0893 16.5818 9.71736 16.2895C9.42509 16.1035 9.21253 15.9441 8.92026 15.8644C8.78741 15.8378 8.62799 15.8378 8.49514 15.8378C8.22944 15.8378 8.04345 15.8644 7.88403 15.891C7.77775 15.9175 7.69803 15.9175 7.61832 15.9175C7.37919 15.9175 7.29948 15.7581 7.27291 15.6518C7.27291 15.5456 7.24634 15.4924 7.24634 15.3861C7.21977 15.333 7.1932 15.2267 7.1932 15.147C6.28982 14.9876 5.75842 14.8016 5.67871 14.5093C5.65214 14.4828 5.65214 14.4031 5.65214 14.3765C5.65214 14.2171 5.75842 14.0842 5.89127 14.0576C7.40576 13.7919 8.09659 12.2509 8.12316 12.1712C8.22944 12.0117 8.22944 11.8789 8.1763 11.8258C8.12316 11.6398 7.77774 11.5335 7.59175 11.4803C7.48547 11.4538 7.43233 11.4538 7.40576 11.4272C6.84779 11.1881 6.76808 10.9489 6.79465 10.7364C6.84779 10.391 7.37919 10.2316 7.64489 10.3113C7.83088 10.4175 7.9903 10.4707 8.14973 10.4707C8.20287 10.4707 8.25601 10.4441 8.30915 10.4441C8.30915 10.391 8.30915 10.2847 8.28258 10.205C8.22944 9.40788 8.14972 8.42479 8.442 7.84025C9.21253 6.1132 10.8333 6.00692 11.3116 6.00692H11.5507C12.029 6.00692 13.6497 6.13977 14.4734 7.84025C14.7391 8.42479 14.6594 9.38132 14.6062 10.205V10.4441C14.6062 10.4441 14.6594 10.4707 14.7125 10.4707C14.8454 10.4707 15.0048 10.4175 15.1908 10.3113C15.2971 10.2847 15.3768 10.2847 15.4299 10.2847C15.5362 10.2847 15.6159 10.2847 15.7222 10.3113C15.9613 10.4175 16.0676 10.6035 16.0676 10.7895C16.0676 11.0287 15.8816 11.2412 15.4831 11.4006C15.4299 11.4272 15.3768 11.4272 15.3236 11.4538C15.0845 11.5069 14.7657 11.6132 14.7125 11.7992C14.686 11.9055 14.686 11.9852 14.7657 12.1446C14.8188 12.3306 15.4831 13.7919 16.9444 14.0576C17.1038 14.0576 17.2367 14.2171 17.2367 14.3765C17.2367 14.4031 17.2101 14.4828 17.1835 14.5093L17.0773 14.5625Z" fill="white"/>
</g>
<defs>
<clipPath id="clip0_3211_17623">
<rect width="22" height="22" fill="white" transform="translate(0.178711 0.560059)"/>
</clipPath>
</defs>
</svg>
