<svg width="24" height="24" viewBox="0 0 24 24" fill="none" xmlns="http://www.w3.org/2000/svg">
<path opacity="0.12" fill-rule="evenodd" clip-rule="evenodd" d="M12 22C17.5228 22 22 17.5228 22 12C22 6.47715 17.5228 2 12 2C6.47715 2 2 6.47715 2 12C2 17.5228 6.47715 22 12 22ZM12 16C14.2091 16 16 14.2091 16 12C16 9.79086 14.2091 8 12 8C9.79086 8 8 9.79086 8 12C8 14.2091 9.79086 16 12 16Z" fill="#22272F"/>
<path fill-rule="evenodd" clip-rule="evenodd" d="M9.21346 8.1528L6.01098 4.95032C7.62517 3.57746 9.71538 2.75 12 2.75C14.2846 2.75 16.3748 3.57746 17.989 4.95032L14.7865 8.1528C14.0038 7.58488 13.041 7.25 12 7.25C10.959 7.25 9.99619 7.58488 9.21346 8.1528ZM8.1528 9.21346L4.95032 6.01098C3.57746 7.62517 2.75 9.71538 2.75 12C2.75 14.2846 3.57746 16.3748 4.95032 17.989L8.1528 14.7865C7.58488 14.0038 7.25 13.041 7.25 12C7.25 10.959 7.58488 9.99619 8.1528 9.21346ZM9.21346 15.8472L6.01098 19.0497C7.62517 20.4225 9.71538 21.25 12 21.25C14.2846 21.25 16.3748 20.4225 17.989 19.0497L14.7865 15.8472C14.0038 16.4151 13.041 16.75 12 16.75C10.959 16.75 9.99619 16.4151 9.21346 15.8472ZM15.8472 14.7865L19.0497 17.989C20.4225 16.3748 21.25 14.2846 21.25 12C21.25 9.71538 20.4225 7.62517 19.0497 6.01098L15.8472 9.21346C16.4151 9.99619 16.75 10.959 16.75 12C16.75 13.041 16.4151 14.0038 15.8472 14.7865ZM12 1.25C9.03168 1.25 6.34315 2.45406 4.3986 4.3986C2.45406 6.34315 1.25 9.03168 1.25 12C1.25 14.9683 2.45406 17.6569 4.3986 19.6014C6.34315 21.5459 9.03168 22.75 12 22.75C14.9683 22.75 17.6569 21.5459 19.6014 19.6014C21.5459 17.6569 22.75 14.9683 22.75 12C22.75 9.03168 21.5459 6.34315 19.6014 4.3986C17.6569 2.45406 14.9683 1.25 12 1.25ZM8.75 12C8.75 10.2051 10.2051 8.75 12 8.75C13.7949 8.75 15.25 10.2051 15.25 12C15.25 13.7949 13.7949 15.25 12 15.25C10.2051 15.25 8.75 13.7949 8.75 12Z" fill="#22272F"/>
</svg>
