<svg width="25" height="25" viewBox="0 0 25 25" fill="none" xmlns="http://www.w3.org/2000/svg">
<g id="Group 28100">
<path id="Vector" d="M4.78295 11.7201L18.6011 11.7201C18.7844 11.7201 18.9601 11.6478 19.0897 11.5192C19.2192 11.3906 19.292 11.2162 19.292 11.0343C19.292 10.8525 19.2192 10.6781 19.0897 10.5495C18.9601 10.4209 18.7844 10.3486 18.6011 10.3486L4.78295 10.3486C4.59971 10.3486 4.42397 10.4209 4.2944 10.5495C4.16483 10.6781 4.09204 10.8525 4.09204 11.0343C4.09204 11.2162 4.16483 11.3906 4.2944 11.5192C4.42397 11.6478 4.59971 11.7201 4.78295 11.7201ZM18.6011 13.7772L8.9284 13.7772C8.74516 13.7772 8.56943 13.8494 8.43986 13.978C8.31029 14.1066 8.2375 14.2811 8.2375 14.4629C8.2375 14.6448 8.31029 14.8192 8.43986 14.9478C8.56943 15.0764 8.74516 15.1486 8.9284 15.1486L18.6011 15.1486C18.7844 15.1486 18.9601 15.0764 19.0897 14.9478C19.2192 14.8192 19.292 14.6448 19.292 14.4629C19.292 14.2811 19.2192 14.1066 19.0897 13.978C18.9601 13.8494 18.7844 13.7772 18.6011 13.7772Z" fill="#98A2B3"/>
</g>
</svg>
