<svg width="20" height="20" viewBox="0 0 20 20" fill="none" xmlns="http://www.w3.org/2000/svg">
<g id="trash-2">
<path id="Icon" d="M2.5 5.33333H4.16667M4.16667 5.33333H17.5M4.16667 5.33333V17C4.16667 17.442 4.34226 17.866 4.65482 18.1785C4.96738 18.4911 5.39131 18.6667 5.83333 18.6667H14.1667C14.6087 18.6667 15.0326 18.4911 15.3452 18.1785C15.6577 17.866 15.8333 17.442 15.8333 17V5.33333H4.16667ZM6.66667 5.33333V3.66667C6.66667 3.22464 6.84226 2.80072 7.15482 2.48816C7.46738 2.17559 7.89131 2 8.33333 2H11.6667C12.1087 2 12.5326 2.17559 12.8452 2.48816C13.1577 2.80072 13.3333 3.22464 13.3333 3.66667V5.33333M8.33333 9.5V14.5M11.6667 9.5V14.5" stroke="#667085" stroke-width="1.66667" stroke-linecap="round" stroke-linejoin="round"/>
</g>
</svg>
