<svg width="30" height="31" viewBox="0 0 30 31" fill="none" xmlns="http://www.w3.org/2000/svg">
<g clip-path="url(#clip0_3211_17627)">
<path d="M14.8675 0.560059C6.72549 0.560059 0.112305 7.14563 0.112305 15.2975C0.112305 23.4494 6.72549 30.035 14.8675 30.035C23.0096 30.035 29.5872 23.4494 29.5872 15.2975C29.5872 7.14563 22.974 0.560059 14.8675 0.560059ZM20.5919 12.9481V13.3396C20.5919 17.1842 17.6408 21.6695 12.2365 21.6695C10.601 21.6695 9.07211 21.2067 7.79214 20.3524C8.00546 20.388 8.21879 20.388 8.46768 20.388C9.81876 20.388 11.0987 19.9252 12.0943 19.1421C10.7787 19.1065 9.71209 18.2877 9.35654 17.113C9.53432 17.1486 9.71209 17.1486 9.88987 17.1486C10.2099 17.1486 10.4232 17.113 10.6721 17.0774C9.32099 16.757 8.32546 15.6179 8.32546 14.1584C8.71656 14.3364 9.14322 14.4788 9.67654 14.5144C8.85878 13.9804 8.32546 13.0905 8.32546 12.0581C8.32546 11.5242 8.50323 11.0258 8.75211 10.5986C10.1743 12.3785 12.3431 13.5532 14.7609 13.66C14.7253 13.4464 14.6898 13.2328 14.6898 13.0193C14.6898 11.3818 16.0408 10.0646 17.6408 10.0646C18.4941 10.0646 19.2408 10.4206 19.8096 10.9902C20.4496 10.8478 21.1252 10.6342 21.6585 10.3138C21.4452 10.9902 20.983 11.5598 20.343 11.9157C20.9474 11.8801 21.5163 11.7021 22.014 11.4886C21.6229 12.0581 21.0896 12.5565 20.5563 13.0193L20.5919 12.9481Z" fill="white"/>
</g>
<defs>
<clipPath id="clip0_3211_17627">
<rect width="29.4749" height="29.4749" fill="white" transform="translate(0.112305 0.560059)"/>
</clipPath>
</defs>
</svg>
