<svg width="27" height="27" viewBox="0 0 27 27" fill="none" xmlns="http://www.w3.org/2000/svg">
<path d="M24.7862 26.6158H1.29622C0.593784 26.6158 0 26.0758 0 25.3734V13.4934C0 12.8184 0.567432 12.251 1.29622 12.251C2.025 12.251 2.59243 12.791 2.59243 13.4934V24.1584H23.5174V13.4934C23.5174 12.8184 24.0849 12.251 24.8136 12.251C25.5424 12.251 26.1099 12.791 26.1099 13.4934V25.3734C26.055 26.0484 25.4886 26.6158 24.7862 26.6158Z" fill="#98A2B3"/>
<path d="M18.982 5.74443L13.987 0.749428C13.5008 0.263212 12.6908 0.263212 12.1783 0.749428L7.12952 5.74443C6.88694 5.98701 6.75195 6.31186 6.75195 6.662C6.75195 7.01321 6.88695 7.30956 7.12952 7.55321C7.3721 7.79579 7.69695 7.93078 8.02074 7.93078C8.37195 7.93078 8.69574 7.79578 8.9383 7.55321L11.692 4.82567V17.6507C11.692 18.4069 12.2858 19.0007 13.042 19.0007C13.7983 19.0007 14.392 18.4069 14.392 17.6507V4.77194L17.1733 7.55321C17.6595 8.03943 18.4695 8.03943 18.9821 7.55321C19.2247 7.31063 19.3597 6.98578 19.3597 6.662C19.3597 6.31078 19.2246 5.987 18.982 5.74443Z" fill="#98A2B3"/>
</svg>
