<svg width="18" height="12" viewBox="0 0 18 12" fill="none" xmlns="http://www.w3.org/2000/svg">
<path fill-rule="evenodd" clip-rule="evenodd" d="M9.4164 7.96587C10.2766 7.96587 10.9742 7.26821 10.9742 6.40803C10.9742 5.5471 10.2766 4.85018 9.4164 4.85018C8.55547 4.85018 7.85855 5.5471 7.85855 6.40803C7.85855 7.26821 8.55547 7.96587 9.4164 7.96587ZM9.4164 9.52372C11.1368 9.52372 12.532 8.1284 12.532 6.4081C12.532 4.68697 11.1367 3.29248 9.4164 3.29248C7.69527 3.29248 6.30078 4.68704 6.30078 6.4081C6.30078 8.12849 7.69534 9.52372 9.4164 9.52372Z" fill="white"/>
<path fill-rule="evenodd" clip-rule="evenodd" d="M2.55633 6.40713C3.71489 8.64932 6.29914 10.3021 9.41628 10.3021C12.5327 10.3021 15.1178 8.64928 16.2757 6.40713C15.1178 4.1657 12.5328 2.51289 9.41628 2.51289C6.29914 2.51289 3.71476 4.16574 2.55633 6.40713ZM17.9841 6.40713C16.7373 9.5845 13.3715 11.8599 9.41628 11.8599C5.46048 11.8599 2.09539 9.58431 0.847656 6.40713C2.09527 3.23052 5.46029 0.955078 9.41628 0.955078C13.3713 0.955078 16.7372 3.23071 17.9841 6.40713Z" fill="white"/>
</svg>
