<svg width="31" height="31" viewBox="0 0 31 31" fill="none" xmlns="http://www.w3.org/2000/svg">
<g clip-path="url(#clip0_3211_17622)">
<path d="M13.8721 12.7344V17.0417L17.8186 14.8702L15.6498 13.6955L13.8721 12.7344Z" fill="white"/>
<path d="M15.3652 0.560059C7.25869 0.560059 0.645508 7.14563 0.645508 15.2975C0.645508 23.4494 7.25869 30.035 15.3652 30.035C23.4717 30.035 30.1204 23.4494 30.1204 15.2975C30.1204 7.14563 23.5072 0.560059 15.3652 0.560059ZM22.6895 15.5823C22.6895 16.8282 22.5472 18.0385 22.5472 18.0385C22.5472 18.0385 22.3695 19.0709 21.9428 19.5692C21.4095 20.1744 20.7695 20.1744 20.5206 20.21C18.494 20.388 15.4007 20.388 15.4007 20.388C15.4007 20.388 11.5964 20.3524 10.4231 20.21C10.0675 20.1744 9.39198 20.1744 8.8231 19.5692C8.39645 19.1065 8.21867 18.0385 8.21867 18.0385C8.21867 18.0385 8.07645 16.8282 8.07645 15.5823V14.4432C8.07645 13.1972 8.21867 11.9869 8.21867 11.9869C8.21867 11.9869 8.39645 10.9546 8.8231 10.4562C9.39198 9.85106 9.99641 9.85106 10.2809 9.81546C12.3075 9.63747 15.3296 9.63748 15.3296 9.63748H15.3652C15.3652 9.63748 18.4229 9.63747 20.4851 9.81546C20.734 9.85106 21.4095 9.85106 21.9073 10.4562C22.3339 10.919 22.5117 11.9869 22.5117 11.9869C22.5117 11.9869 22.6539 13.1972 22.6539 14.4432V15.5823H22.6895Z" fill="white"/>
</g>
<defs>
<clipPath id="clip0_3211_17622">
<rect width="29.4749" height="29.4749" fill="white" transform="translate(0.645508 0.560059)"/>
</clipPath>
</defs>
</svg>
