<svg width="36" height="36" viewBox="0 0 36 36" fill="none" xmlns="http://www.w3.org/2000/svg">
    <rect width="36" height="36" rx="6" fill="#D8D3E8"/>
    <path d="M14.7332 12.8317C14.4119 12.2266 13.6699 12.0013 13.0758 12.3285C12.4816 12.6557 12.2604 13.4114 12.5817 14.0166L18.0095 24.2408C18.3308 24.8459 19.0728 25.0712 19.6669 24.744C20.2611 24.4168 20.4823 23.6611 20.161 23.0559L14.7332 12.8317Z"
          fill="#854A9D"/>
    <path d="M19.2097 11.0954C18.8885 10.4903 18.1464 10.265 17.5523 10.5922C16.9582 10.9193 16.737 11.6751 17.0582 12.2802L22.4861 22.5045C22.8073 23.1096 23.5494 23.3349 24.1435 23.0077C24.7376 22.6805 24.9588 21.9247 24.6376 21.3196L19.2097 11.0954Z"
          fill="#3F53A4"/>
</svg>