<svg width="36" height="36" viewBox="0 0 36 36" fill="none" xmlns="http://www.w3.org/2000/svg">
    <rect width="36" height="36" rx="6" fill="#4E3797" fill-opacity="0.22"/>
    <path d="M21.3354 12.6133C19.8916 12.6133 19.2815 13.3223 18.276 13.3223C17.2448 13.3223 16.4584 12.6176 15.208 12.6176C13.9834 12.6176 12.6772 13.3867 11.8479 14.6973C10.6834 16.5449 10.8811 20.0254 12.7674 22.9902C13.442 24.0516 14.3444 25.2418 15.526 25.2547H15.5475C16.5744 25.2547 16.8795 24.5629 18.2932 24.5543H18.3147C19.7069 24.5543 19.9862 25.2504 21.0088 25.2504H21.0303C22.2119 25.2375 23.1616 23.9184 23.8362 22.8613C24.3217 22.1008 24.5022 21.7184 24.876 20.859C22.1475 19.7934 21.7092 15.8145 24.4077 14.2891C23.5827 13.2277 22.4268 12.6133 21.3354 12.6133Z"
          fill="black"/>
    <path d="M21.0168 8.75C20.1574 8.81016 19.1563 9.37305 18.5676 10.1078C18.0348 10.7738 17.5965 11.7621 17.7684 12.7203H17.8371C18.7524 12.7203 19.6891 12.1531 20.2348 11.427C20.7633 10.7352 21.1629 9.75547 21.0168 8.75Z"
          fill="black"/>
</svg>