<svg width="91" height="99" viewBox="0 0 91 99" fill="none" xmlns="http://www.w3.org/2000/svg">
<path d="M45.46 98.09C30.47 98.09 15.92 95.08 2.19 89.11L0.320007 88.31L0.430023 86.21C2.14002 52.79 17.9 21.94 43.7 1.42L45.46 0L47.22 1.42C73.02 21.88 88.78 52.79 90.49 86.21L90.6 88.31L88.73 89.11C75.01 95.08 60.45 98.09 45.46 98.09ZM6.33002 84.39C18.73 89.5 31.91 92.12 45.41 92.12C58.91 92.12 72.09 89.51 84.49 84.39C82.4 54.33 68.23 26.54 45.41 7.56C22.59 26.54 8.43002 54.33 6.33002 84.39Z" fill="url(#paint0_linear_519_107)"/>
<path d="M62.12 83.6502C62.29 83.6202 62.46 83.5901 62.63 83.5602C62.92 83.5101 63.21 83.4502 63.5 83.4002C64.8 83.1502 66.09 82.8802 67.37 82.5702C70.41 81.8602 72.85 81.1302 74.55 80.5802C75.48 80.2902 76.41 79.9902 77.33 79.6802C74.41 55.4102 63.11 33.0802 45.47 16.6602C42.82 19.1002 40.34 21.7202 37.97 24.4502L39.24 25.6402L40.78 27.2302L42.32 28.7602L43.86 30.3502L45.35 32.0002L46.84 33.5902L48.27 35.2902L49.7 36.9902L51.08 38.6902L52.4 40.4502L53.72 42.2102L54.99 43.9702L56.26 45.7902L57.47 47.6702L58.68 49.5502L59.84 51.4302L61 53.3602L62.05 55.2902L63.1 57.2802L64.15 59.2102L65.09 61.2002L66.03 63.2502L66.91 65.2402L67.79 67.2902L68.62 69.3402L69.45 71.3902L70.22 73.4902L70.77 75.1002L65.89 72.3902L65.7 71.8902L64.38 68.6502L62.95 65.4702L61.46 62.2902L59.86 59.1602L58.15 56.0902L56.39 53.0802L54.52 50.1202L52.54 47.2202L50.5 44.3802L48.41 41.6002L46.21 38.8702L43.95 36.2602L41.63 33.7002L39.2 31.2002L36.72 28.7602L35.29 27.4502C32.92 30.4102 30.77 33.4202 28.73 36.6002L29.45 37.1702L32.21 39.6102L34.91 42.1702L37.56 44.7302L40.15 47.3402L42.69 50.0702L45.12 52.8502L47.49 55.6902L49.8 58.5902L52 61.5502L54.15 64.5602L55.98 67.2402C55.29 66.9702 54.6 66.7402 53.9 66.5302L51.89 64.1102L49.19 60.9802L46.38 57.9102L43.51 54.9002L40.59 52.0002L37.61 49.1602L34.58 46.3802L31.44 43.6502L28.24 41.0402L26.7 39.8502C25.16 42.4602 23.72 45.1902 22.46 47.9802L25.11 49.8002L28.47 52.2402L31.56 54.6302L34.59 57.0702L37.57 59.6302L40.49 62.2402L43.36 64.9702L43.67 65.2802C42.05 65.3702 40.44 65.6002 38.84 65.9702L38.52 65.6602L35.71 63.1002L32.79 60.6002L29.81 58.1602L26.78 55.8302L23.69 53.5602L21.04 51.6802C20.1 53.9002 19.28 56.1102 18.5 58.3302L18.61 58.3902L19.99 59.0702L21.42 59.8102L22.8 60.5502L24.18 61.3502L25.56 62.1502L26.94 63.0002L28.26 63.8502L29.58 64.7002L30.9 65.6102L32.22 66.5202L33.49 67.4302L33.73 67.6202C32.78 68.0202 31.84 68.4802 30.91 68.9802L30.18 68.5702L27.75 67.2102L25.27 65.9002L22.79 64.6502L20.31 63.4602L17.77 62.2702L17.27 62.0402C16.55 64.4302 15.95 66.8702 15.4 69.3102L17.16 69.9902L19.86 71.0702L22.56 72.2102L24.37 73.0102L20.43 75.4702L19.04 74.8202L17.28 74.0802L15.52 73.3402L14.64 73.0002C14.26 75.2102 13.87 77.4802 13.6 79.7402C13.6 79.7402 13.6 79.7502 13.6 79.7602C17.96 81.3202 22.41 82.5201 26.94 83.3902C31.89 84.3902 37.81 85.2202 43.98 85.2602C50.82 85.3002 57.02 84.6002 62.17 83.6702L62.12 83.6502Z" fill="url(#paint1_linear_519_107)"/>
<path d="M42.08 74.54C41.31 75.43 40.41 76.2 39.43 76.79C38.85 77.14 37.28 78.31 36.62 77.7C36.52 77.61 36.48 77.46 36.44 77.34C35.91 75.11 36.83 73.26 38.07 71.53C38.81 70.49 39.64 69.55 40.55 68.68C40.68 68.56 41.13 68.06 41.31 68.04C41.33 68.04 41.3 68.1 41.25 68.16C41.21 68.22 41.17 68.28 41.16 68.31C40.78 68.97 38.09 73.81 38.06 74.68C38.02 75.62 40.14 75.02 40.7 74.59C41.04 74.33 41.02 73.82 41.03 73.37C41.05 72.55 40.6 71.82 41.32 71.17C41.81 70.74 42.81 70.34 43.39 70.72C44.8 71.64 42.72 73.81 42.08 74.54Z" fill="white"/>
<path d="M46.41 74.5299C45.61 75.5099 43.6 77.3899 42.58 78.5599C41.56 79.7299 39.45 81.8799 38.81 82.6399C38.18 83.3999 35.58 83.3399 35.58 83.3399C35.58 83.3399 37.7 81.5299 38.88 80.6399C40.07 79.7299 42.21 77.0299 43.07 76.0699C43.92 75.1099 45.4 73.1999 45.83 72.6499C46.25 72.1099 47.59 70.6499 47.59 70.6499C47.59 70.6499 48.35 72.1099 46.4 74.5199L46.41 74.5299Z" fill="white"/>
<path d="M51.46 70.0999C51.02 71.1899 49.35 69.6799 50.95 68.5599C52.56 67.4399 52.75 67.2099 52.69 67.9499L51.46 70.0999Z" fill="white"/>
<path d="M56.45 70.25C56.45 70.42 56.36 70.57 56.2 70.61C56.02 70.65 55.82 70.66 55.65 70.74C55.37 70.85 55.45 70.97 55.46 71.29C55.47 71.92 55.43 72.56 55.31 73.19C55.25 73.53 55.16 73.87 54.97 74.14C54.56 74.72 53.81 74.83 53.33 75.32C52.83 75.82 52.35 76.37 51.9 76.91C51.61 77.27 51.35 78.43 51.26 78.9C50.95 80.57 47.06 82.01 45.15 82.01C42.38 82.02 44.48 80.35 44.91 80.02C44.95 79.99 45.01 79.97 45.07 79.97L48.82 79.57C50.45 79.4 50.96 77.17 50.26 76.56C49.56 75.95 48.89 75.75 48.8 74.53C48.75 73.96 49.6 71.7 51.57 72.75C52.67 73.33 53.79 73.25 53.79 73.25V72.8L53.63 70.85C52.36 71.1 52.7 70.2 52.84 69.76C52.98 69.32 53.45 69.45 54.59 68.93C55.6 68.46 55.99 68.25 56.21 68.25L56.46 70.25H56.45Z" fill="white"/>
<defs>
<linearGradient id="paint0_linear_519_107" x1="21.27" y1="110.75" x2="89.19" y2="4.88" gradientUnits="userSpaceOnUse">
<stop offset="0.06" stop-color="#D75DFF"/>
<stop offset="0.53" stop-color="#00D7FF"/>
<stop offset="0.56" stop-color="#00DAF9"/>
<stop offset="1" stop-color="#00FFB0"/>
</linearGradient>
<linearGradient id="paint1_linear_519_107" x1="44.45" y1="105.59" x2="48.77" y2="-7.59984" gradientUnits="userSpaceOnUse">
<stop stop-color="#D75DFF"/>
<stop offset="0.06" stop-color="#CA64FF"/>
<stop offset="0.16" stop-color="#A877FF"/>
<stop offset="0.31" stop-color="#7196FF"/>
<stop offset="0.48" stop-color="#25C1FF"/>
<stop offset="0.56" stop-color="#00D7FF"/>
<stop offset="0.64" stop-color="#00E3E6"/>
<stop offset="0.76" stop-color="#00F2C8"/>
<stop offset="0.86" stop-color="#00FBB6"/>
<stop offset="0.94" stop-color="#00FFB0"/>
</linearGradient>
</defs>
</svg>
