<svg width="34" height="39" viewBox="0 0 34 39" fill="none" xmlns="http://www.w3.org/2000/svg">
<g clip-path="url(#clip0_801_3300)">
<path d="M14.8396 38.9972H21.0211C22.3882 38.9972 23.4948 37.9062 23.4948 36.5585C23.4948 35.2109 22.3882 34.1199 21.0211 34.1199H14.8396C13.4725 34.1199 12.3658 35.2109 12.3658 36.5585C12.3658 37.9062 13.4725 38.9972 14.8396 38.9972Z" fill="white"/>
<path d="M26.0011 21.3624C25.4885 21.1137 24.9623 20.8865 24.4252 20.6859C25.8221 18.9639 26.5816 16.8274 26.5816 14.624V9.74933C26.5816 6.26781 24.6965 3.04566 21.6369 1.30758C18.5773 -0.435859 14.807 -0.435859 11.7474 1.30758C8.68786 3.04834 6.80273 6.26781 6.80273 9.74933V14.624C6.80273 17.2097 7.84701 19.6885 9.69958 21.5175C11.5549 23.3465 14.0693 24.3733 16.6922 24.3733H17.9968C20.0067 24.3733 21.9895 24.8359 23.7878 25.721C27.4279 27.5179 29.0526 29.7293 29.0526 32.9033V36.5587C29.0526 37.9063 30.1593 38.9973 31.5263 38.9973C32.8934 38.9973 34 37.9063 34 36.5587V32.9033C34 27.8575 31.3066 23.9776 26.0011 21.3624ZM11.7474 14.624V9.74933C11.7474 7.05663 13.9608 4.87467 16.6922 4.87467C19.4236 4.87467 21.6369 7.05663 21.6369 9.74933V14.624C21.6369 17.3167 19.4236 19.4987 16.6922 19.4987C13.9608 19.4987 11.7474 17.3167 11.7474 14.624Z" fill="white"/>
<path d="M4.22045 23.8679C3.70238 23.3572 2.97817 23.0978 2.25124 23.162C1.51889 23.2261 0.854354 23.6058 0.436644 24.2021C-0.238745 25.2263 -0.0787132 26.5793 0.821805 27.4189L4.52966 31.0743L0.75942 34.7911C-0.0895628 35.604 -0.24417 36.8982 0.390533 37.8849C0.797394 38.5026 1.46465 38.909 2.20513 38.9839C2.94833 39.0588 3.68882 38.8021 4.21502 38.2806L8.72847 33.8392C9.47167 33.1065 9.88938 32.1144 9.88938 31.0769C9.88938 30.0394 9.47167 29.0474 8.72847 28.3147L4.22316 23.8679H4.22045Z" fill="white"/>
</g>
<defs>
<clipPath id="clip0_801_3300">
<rect width="34" height="39" fill="white"/>
</clipPath>
</defs>
</svg>
