<svg width="15" height="17" viewBox="0 0 15 17" fill="none" xmlns="http://www.w3.org/2000/svg">
<g clip-path="url(#clip0_915_5306)">
<path fill-rule="evenodd" clip-rule="evenodd" d="M10.8988 1.17452H8.91371V0.641626C8.91371 0.344033 8.68959 0.108727 8.42064 0.108727C8.1517 0.108727 7.92757 0.350954 7.92757 0.641626V1.17452H5.9425V0.641626C5.9425 0.344033 5.71837 0.108727 5.44943 0.108727C5.18048 0.108727 4.95636 0.350954 4.95636 0.641626V1.17452H3.47075C3.07374 1.17452 2.69593 1.34062 2.42058 1.64514C2.13883 1.94273 1.98515 2.35798 1.98515 2.78014V12.9537H1.49208C0.672432 12.9537 0.00646973 13.6734 0.00646973 14.5593C0.00646973 15.4451 0.672432 16.1649 1.49208 16.1649H13.3833C13.7804 16.1649 14.1582 15.9988 14.4335 15.6943C14.7153 15.3967 14.8689 14.9814 14.8689 14.5593V2.78014C14.8689 2.35105 14.7153 1.94273 14.4335 1.64514C14.1582 1.34062 13.774 1.17452 13.3833 1.17452H11.8977V0.641626C11.8913 0.344033 11.6736 0.101807 11.3983 0.101807C11.1229 0.101807 10.9052 0.344033 10.9052 0.634705V1.1676L10.8988 1.17452ZM11.3983 14.0264H1.48567C1.21032 14.0264 0.992606 14.2686 0.992606 14.5593C0.992606 14.85 1.21673 15.0922 1.48567 15.0922H11.9746C11.9169 14.9192 11.8913 14.7392 11.8913 14.5593C11.8913 14.2617 11.6672 14.0264 11.3983 14.0264ZM13.8764 5.45848H2.97128V12.9537H11.3983C12.2179 12.9537 12.8839 13.6734 12.8839 14.5593C12.8839 14.7046 12.9351 14.8361 13.0311 14.9399C13.1208 15.0437 13.2489 15.0991 13.3833 15.0991C13.5178 15.0991 13.6395 15.0437 13.7355 14.9399C13.8316 14.843 13.8828 14.7046 13.8828 14.5593V5.45848H13.8764ZM5.44943 9.74243C5.72478 9.74243 5.9425 9.98466 5.9425 10.2753C5.9425 10.566 5.71837 10.8082 5.44943 10.8082C5.18048 10.8082 4.95636 10.566 4.95636 10.2753C4.95636 9.98466 5.18048 9.74243 5.44943 9.74243ZM8.42064 9.74243C8.69599 9.74243 8.91371 9.98466 8.91371 10.2753C8.91371 10.566 8.68959 10.8082 8.42064 10.8082C8.1517 10.8082 7.92757 10.566 7.92757 10.2753C7.92757 9.98466 8.1517 9.74243 8.42064 9.74243ZM11.3919 9.74243C11.6672 9.74243 11.8849 9.98466 11.8849 10.2753C11.8849 10.566 11.6608 10.8082 11.3919 10.8082C11.1229 10.8082 10.8988 10.566 10.8988 10.2753C10.8988 9.98466 11.1229 9.74243 11.3919 9.74243ZM8.42064 7.59699C8.69599 7.59699 8.91371 7.83922 8.91371 8.12989C8.91371 8.42056 8.68959 8.66279 8.42064 8.66279C8.1517 8.66279 7.92757 8.42056 7.92757 8.12989C7.92757 7.83922 8.1517 7.59699 8.42064 7.59699ZM11.3919 7.59699C11.6672 7.59699 11.8849 7.83922 11.8849 8.12989C11.8849 8.42056 11.6608 8.66279 11.3919 8.66279C11.1229 8.66279 10.8988 8.42056 10.8988 8.12989C10.8988 7.83922 11.1229 7.59699 11.3919 7.59699ZM5.44302 7.59699C5.71837 7.59699 5.93609 7.83922 5.93609 8.12989C5.93609 8.42056 5.71197 8.66279 5.44302 8.66279C5.17408 8.66279 4.94996 8.42056 4.94996 8.12989C4.94996 7.83922 5.17408 7.59699 5.44302 7.59699ZM4.94996 2.24032H3.46435C3.32988 2.24032 3.20821 2.29569 3.11216 2.3995C3.01611 2.49639 2.96488 2.63481 2.96488 2.78014V4.38576H13.8636V2.78014C13.8636 2.63481 13.8124 2.50331 13.7163 2.3995C13.6267 2.29569 13.4986 2.24032 13.3641 2.24032H11.8785V2.77322C11.8785 3.07081 11.6544 3.30612 11.3855 3.30612C11.1165 3.30612 10.8924 3.06389 10.8924 2.77322V2.24032H8.90731V2.77322C8.90731 3.07081 8.68319 3.30612 8.41424 3.30612C8.14529 3.30612 7.92117 3.06389 7.92117 2.77322V2.24032H5.93609V2.77322C5.93609 3.07081 5.71197 3.30612 5.44302 3.30612C5.17408 3.30612 4.94996 3.06389 4.94996 2.77322V2.24032Z" fill="#D0D5DD"/>
</g>
<defs>
<clipPath id="clip0_915_5306">
<rect width="14.8689" height="16.07" fill="white" transform="translate(0 0.101807)"/>
</clipPath>
</defs>
</svg>
