<svg width="43" height="35" viewBox="0 0 43 35" fill="none" xmlns="http://www.w3.org/2000/svg">
<g clip-path="url(#clip0_801_3288)">
<path d="M35.4123 0H12.6462C10.6351 0 8.70425 0.789565 7.28233 2.19798C5.86041 3.60334 5.05846 5.51172 5.05846 7.5024V18.7514C3.71673 18.7514 2.43053 19.2788 1.48053 20.2147C0.530522 21.1506 0 22.4249 0 23.751V27.5007C0 29.4883 0.798867 31.3967 2.22387 32.8051C3.64579 34.2104 5.57664 35.003 7.59078 35.003H25.2954C27.3064 35.003 29.2373 34.2135 30.6623 32.8051C32.0842 31.3997 32.8862 29.4913 32.8862 27.5007V16.2516H37.9446C39.2863 16.2516 40.5726 15.7242 41.5226 14.7883C42.4726 13.8494 43.0031 12.5782 43.0031 11.2521V7.5024C43.0031 5.51476 42.2042 3.60639 40.7792 2.19798C39.3573 0.792614 37.4264 0 35.4123 0ZM7.58769 30.0004C6.91837 30.0004 6.27372 29.7383 5.79872 29.2688C5.32372 28.7993 5.05846 28.1652 5.05846 27.5007V23.751H17.7046V27.5007C17.7046 28.3542 17.8557 29.1987 18.1457 30.0004H7.58769ZM27.8246 7.49935V27.4976C27.8277 28.2049 27.5285 28.8847 26.998 29.3602C26.4675 29.8358 25.7581 30.0675 25.0425 29.9974C24.404 29.9181 23.8179 29.6072 23.3954 29.1225C22.9759 28.6408 22.7507 28.0219 22.7662 27.3848V23.7479C22.7662 22.4218 22.2326 21.1506 21.2856 20.2117C20.3356 19.2727 19.0494 18.7484 17.7077 18.7484H10.12V7.49935C10.12 6.83782 10.3853 6.20068 10.8603 5.73121C11.3353 5.26174 11.9768 4.99956 12.6492 4.99956H28.2688C27.9788 5.80132 27.8277 6.64881 27.8277 7.49935H27.8246ZM37.9415 11.249H32.8831V7.49935C32.8831 6.60613 33.3642 5.77998 34.1477 5.3349C34.9311 4.88982 35.8935 4.88982 36.6769 5.3349C37.4604 5.77998 37.9415 6.60613 37.9415 7.49935V11.249Z" fill="white"/>
</g>
<defs>
<clipPath id="clip0_801_3288">
<rect width="43" height="35" fill="white"/>
</clipPath>
</defs>
</svg>
