<svg width="13" height="20" viewBox="0 0 13 20" fill="none" xmlns="http://www.w3.org/2000/svg">
<g clip-path="url(#clip0_915_5300)">
<path fill-rule="evenodd" clip-rule="evenodd" d="M6.36888 0C3.09263 0 0.421326 3.02373 0.421326 6.7494C0.421326 8.93236 1.24379 10.8839 1.99148 12.6966C2.95668 15.0261 5.60759 18.8521 5.60759 18.8521L5.5872 18.8212C5.94745 19.4383 6.78351 19.4383 7.14376 18.8212L7.12337 18.8521C7.12337 18.8521 9.76748 15.0184 10.7395 12.6966C11.494 10.8916 12.3096 8.93236 12.3096 6.7494C12.3164 3.02373 9.65193 0 6.36888 0ZM6.36888 0.964201C9.18972 0.964201 11.4668 3.54826 11.4668 6.7494C11.4668 8.65467 10.7259 10.4751 9.97819 12.2801C9.11495 14.3473 6.46404 18.2581 6.46404 18.2581C6.46404 18.2658 6.45044 18.2735 6.44365 18.289C6.40286 18.3584 6.34169 18.3584 6.30091 18.289C6.30091 18.2812 6.28731 18.2658 6.28051 18.2581C6.28051 18.2581 3.62281 14.3473 2.76636 12.2801C2.01187 10.4751 1.27777 8.64695 1.27777 6.7494C1.27098 3.54826 3.54804 0.964201 6.36888 0.964201Z" fill="#D0D5DD"/>
<path fill-rule="evenodd" clip-rule="evenodd" d="M6.36886 3.13171C4.61518 3.13171 3.18097 4.75928 3.18097 6.74939C3.18097 8.7395 4.61518 10.3671 6.36886 10.3671C8.12254 10.3671 9.55675 8.7395 9.55675 6.74939C9.55675 4.75928 8.12254 3.13171 6.36886 3.13171ZM6.36886 4.09591C7.66712 4.09591 8.70709 5.2761 8.70709 6.74939C8.70709 8.22269 7.66712 9.40287 6.36886 9.40287C5.07059 9.40287 4.03062 8.22269 4.03062 6.74939C4.03062 5.2761 5.07059 4.09591 6.36886 4.09591Z" fill="#D0D5DD"/>
</g>
<defs>
<clipPath id="clip0_915_5300">
<rect width="11.8951" height="19.284" fill="white" transform="translate(0.421326)"/>
</clipPath>
</defs>
</svg>
