<svg width="44" height="44" viewBox="0 0 44 44" fill="none" xmlns="http://www.w3.org/2000/svg">
<g clip-path="url(#clip0_801_3295)">
<path d="M39.9352 31.884C41.5913 31.1646 42.8023 29.6957 43.1938 27.9324C43.4614 26.6509 43.264 25.3125 42.6317 24.1614C42.0028 23.0104 40.9824 22.1271 39.7546 21.662L23.3683 15.5087C21.8997 14.9465 20.2738 14.9766 18.8252 15.589C17.3766 16.2013 16.2257 17.349 15.6068 18.7944C14.9879 20.2399 14.9511 21.8661 15.5064 23.3383L21.6588 39.7404C22.0402 40.761 22.716 41.641 23.5992 42.2767C24.4824 42.9125 25.5329 43.2705 26.6202 43.3073H26.8042C27.858 43.3073 28.8918 43.0028 29.7817 42.4306C30.6716 41.8585 31.3741 41.0454 31.809 40.0817L31.8793 39.9379C32.3042 39.011 32.816 38.1243 33.4048 37.2912L39.3029 43.1902C39.8182 43.7055 40.5174 43.9966 41.2467 43.9966C41.976 43.9966 42.6752 43.7055 43.1904 43.1902C43.7056 42.6749 43.9967 41.9756 43.9967 41.2462C43.9967 40.5167 43.7056 39.8174 43.1904 39.3021L37.2923 33.4031C38.1253 32.8109 39.0119 32.3023 39.9386 31.8773L39.9319 31.884H39.9352ZM26.8075 37.8098L20.6551 21.4077C20.5916 21.227 20.615 21.0296 20.7254 20.8723C20.8358 20.715 21.0131 20.6247 21.2038 20.6247C21.2741 20.6247 21.3443 20.6347 21.4112 20.6582L37.8042 26.8115C32.9298 29.0265 29.0222 32.9347 26.8075 37.8098Z" fill="white"/>
<path d="M1.375 24.0612C1.375 24.7906 1.66606 25.4899 2.18127 26.0052C2.69647 26.5205 3.39568 26.8116 4.125 26.8116C4.85432 26.8116 5.55353 26.5205 6.06873 26.0052C6.58394 25.4899 6.875 24.7906 6.875 24.0612C6.875 19.5039 8.68491 15.1307 11.9066 11.9085C15.1283 8.68627 19.5009 6.87608 24.0575 6.87608C25.0411 6.87608 25.9477 6.35076 26.4395 5.50087C26.9313 4.65099 26.9313 3.60034 26.4395 2.75045C25.9477 1.90057 25.0411 1.37524 24.0575 1.37524C18.0423 1.37524 12.2713 3.76429 8.01916 8.02042C3.76703 12.2765 1.375 18.0451 1.375 24.0612Z" fill="white"/>
<path d="M6.875 35.7488C6.875 37.646 5.33607 39.1852 3.43917 39.1852C1.54227 39.1852 0 37.646 0 35.7488C0 33.8517 1.53893 32.3125 3.43583 32.3125C5.33273 32.3125 6.87165 33.8517 6.87165 35.7488" fill="white"/>
<path d="M39.1791 3.43635C39.1791 5.33354 37.6402 6.8727 35.7433 6.8727C33.8464 6.8727 32.3075 5.33354 32.3075 3.43635C32.3075 1.53916 33.8431 0 35.7433 0C37.6436 0 39.1791 1.53916 39.1791 3.43635Z" fill="white"/>
</g>
<defs>
<clipPath id="clip0_801_3295">
<rect width="44" height="44" fill="white"/>
</clipPath>
</defs>
</svg>
