<svg width="114" height="46" viewBox="0 0 114 46" fill="none" xmlns="http://www.w3.org/2000/svg">
<g clip-path="url(#clip0_1280_16247)">
<path d="M70.8721 9.08691V12.3019L73.8178 10.6811L72.199 9.80431L70.8721 9.08691Z" fill="white"/>
<path d="M71.9867 0C65.9361 0 61 4.91546 61 11C61 17.0845 65.9361 22 71.9867 22C78.0374 22 83 17.0845 83 11C83 4.91546 78.0639 0 71.9867 0ZM77.4536 11.2126C77.4536 12.1425 77.3474 13.0459 77.3474 13.0459C77.3474 13.0459 77.2147 13.8164 76.8963 14.1884C76.4982 14.6401 76.0205 14.6401 75.8347 14.6667C74.3221 14.7995 72.0133 14.7995 72.0133 14.7995C72.0133 14.7995 69.1737 14.7729 68.2979 14.6667C68.0326 14.6401 67.5283 14.6401 67.1037 14.1884C66.7853 13.843 66.6526 13.0459 66.6526 13.0459C66.6526 13.0459 66.5464 12.1425 66.5464 11.2126V10.3623C66.5464 9.43237 66.6526 8.52899 66.6526 8.52899C66.6526 8.52899 66.7853 7.75845 67.1037 7.38647C67.5283 6.93478 67.9795 6.93478 68.1918 6.90821C69.7045 6.77536 71.9602 6.77536 71.9602 6.77536H71.9867C71.9867 6.77536 74.269 6.77536 75.8082 6.90821C75.994 6.93478 76.4982 6.93478 76.8697 7.38647C77.1882 7.73188 77.3209 8.52899 77.3209 8.52899C77.3209 8.52899 77.427 9.43237 77.427 10.3623V11.2126H77.4536Z" fill="white"/>
</g>
<g clip-path="url(#clip1_1280_16247)">
<path d="M103 0C96.9155 0 92 4.91546 92 11C92 17.0845 96.9155 22 103 22C109.085 22 114 17.0845 114 11C114 4.91546 109.085 0 103 0ZM108.899 14.0024C108.766 14.2947 108.341 14.4807 107.437 14.6401C107.411 14.6667 107.384 14.7995 107.384 14.8261C107.357 14.9324 107.357 14.9855 107.331 15.0918C107.304 15.2512 107.171 15.3575 107.012 15.3575C106.959 15.3575 106.853 15.3575 106.72 15.3309C106.56 15.3043 106.374 15.2778 106.135 15.2778C106.002 15.2778 105.843 15.3043 105.71 15.3043C105.418 15.3575 105.205 15.5435 104.913 15.7295C104.435 16.0483 103.85 16.2077 103.186 16.2077H103.053C102.309 16.2077 101.911 16.0217 101.539 15.7295C101.246 15.5435 101.034 15.3841 100.742 15.3043C100.609 15.2778 100.449 15.2778 100.316 15.2778C100.051 15.2778 99.8647 15.3043 99.7053 15.3309C99.599 15.3575 99.5193 15.3575 99.4396 15.3575C99.2005 15.3575 99.1208 15.1981 99.0942 15.0918C99.0942 14.9855 99.0676 14.9324 99.0676 14.8261C99.0411 14.7729 99.0145 14.6667 99.0145 14.587C98.1111 14.4275 97.5797 14.2415 97.5 13.9493C97.4734 13.9227 97.4734 13.843 97.4734 13.8164C97.4734 13.657 97.5797 13.5242 97.7126 13.4976C99.2271 13.2319 99.9179 11.6908 99.9444 11.6111C100.051 11.4517 100.051 11.3188 99.9976 11.2657C99.9444 11.0797 99.599 10.9734 99.413 10.9203C99.3068 10.8937 99.2536 10.8937 99.2271 10.8672C98.6691 10.628 98.5894 10.3889 98.6159 10.1763C98.6691 9.83092 99.2005 9.6715 99.4662 9.75121C99.6522 9.85749 99.8116 9.91063 99.971 9.91063C100.024 9.91063 100.077 9.88406 100.13 9.88406C100.13 9.83092 100.13 9.72464 100.104 9.64493C100.051 8.84783 99.971 7.86473 100.263 7.28019C101.034 5.55314 102.655 5.44686 103.133 5.44686H103.372C103.85 5.44686 105.471 5.57971 106.295 7.28019C106.56 7.86473 106.481 8.82126 106.428 9.64493V9.88406C106.428 9.88406 106.481 9.91063 106.534 9.91063C106.667 9.91063 106.826 9.85749 107.012 9.75121C107.118 9.72464 107.198 9.72464 107.251 9.72464C107.357 9.72464 107.437 9.72464 107.543 9.75121C107.783 9.85749 107.889 10.0435 107.889 10.2295C107.889 10.4686 107.703 10.6812 107.304 10.8406C107.251 10.8671 107.198 10.8671 107.145 10.8937C106.906 10.9469 106.587 11.0531 106.534 11.2391C106.507 11.3454 106.507 11.4251 106.587 11.5845C106.64 11.7705 107.304 13.2319 108.766 13.4976C108.925 13.4976 109.058 13.657 109.058 13.8164C109.058 13.843 109.031 13.9227 109.005 13.9493L108.899 14.0024Z" fill="white"/>
</g>
<path d="M1.0662 37.248C1.0662 36.436 1.20154 35.694 1.4722 35.022C1.74287 34.35 2.12087 33.776 2.6062 33.3C3.09154 32.8147 3.67487 32.4367 4.3562 32.166C5.03754 31.8953 5.7842 31.76 6.5962 31.76C7.4082 31.76 8.1502 31.8953 8.8222 32.166C9.50354 32.4367 10.0869 32.8147 10.5722 33.3C11.0575 33.7853 11.4355 34.364 11.7062 35.036C11.9769 35.708 12.1122 36.4453 12.1122 37.248C12.1122 37.7707 12.0515 38.2187 11.9302 38.592C11.8182 38.9653 11.6595 39.2733 11.4542 39.516C11.2489 39.7587 11.0109 39.9407 10.7402 40.062C10.4789 40.174 10.1942 40.23 9.8862 40.23C9.47554 40.23 9.12554 40.1413 8.8362 39.964C8.5562 39.7773 8.35087 39.5347 8.2202 39.236H8.2062C8.04754 39.544 7.80954 39.7867 7.4922 39.964C7.1842 40.132 6.7922 40.216 6.3162 40.216C5.28954 40.216 4.6222 39.7587 4.3142 38.844C4.2582 38.6573 4.21154 38.452 4.1742 38.228C4.1462 37.9947 4.1322 37.6913 4.1322 37.318C4.1322 36.9447 4.1462 36.646 4.1742 36.422C4.21154 36.1887 4.2582 35.9787 4.3142 35.792C4.47287 35.3253 4.71554 34.98 5.0422 34.756C5.3782 34.532 5.78887 34.42 6.2742 34.42C6.6942 34.42 7.03487 34.4947 7.2962 34.644C7.56687 34.7933 7.76287 34.9707 7.8842 35.176H7.9122V34.686C7.9122 34.602 7.94954 34.56 8.0242 34.56H8.7662C8.8502 34.56 8.8922 34.602 8.8922 34.686V38.13C8.8922 38.55 8.9902 38.8533 9.1862 39.04C9.39154 39.2267 9.62487 39.32 9.8862 39.32C10.0542 39.32 10.2129 39.2873 10.3622 39.222C10.5115 39.1567 10.6422 39.0447 10.7542 38.886C10.8662 38.718 10.9549 38.5033 11.0202 38.242C11.0855 37.9713 11.1182 37.64 11.1182 37.248C11.1182 36.576 11.0109 35.96 10.7962 35.4C10.5815 34.8307 10.2782 34.3453 9.8862 33.944C9.4942 33.5427 9.0182 33.23 8.4582 33.006C7.90754 32.782 7.28687 32.67 6.5962 32.67C5.90554 32.67 5.2802 32.782 4.7202 33.006C4.1602 33.2207 3.6842 33.5287 3.2922 33.93C2.9002 34.3313 2.59687 34.8167 2.3822 35.386C2.16754 35.946 2.0602 36.5667 2.0602 37.248C2.0602 37.9387 2.16754 38.564 2.3822 39.124C2.59687 39.684 2.9002 40.1693 3.2922 40.58C3.6842 40.9813 4.1602 41.2893 4.7202 41.504C5.2802 41.728 5.90554 41.84 6.5962 41.84C7.2682 41.84 7.83754 41.7793 8.3042 41.658C8.7802 41.546 9.21887 41.392 9.6202 41.196C9.71354 41.1493 9.77887 41.168 9.8162 41.252L10.0402 41.812C10.0869 41.8867 10.0682 41.9473 9.9842 41.994C9.5082 42.246 9.0042 42.4327 8.4722 42.554C7.94954 42.6847 7.3242 42.75 6.5962 42.75C5.7842 42.75 5.03754 42.6147 4.3562 42.344C3.67487 42.0827 3.09154 41.7093 2.6062 41.224C2.12087 40.7387 1.74287 40.16 1.4722 39.488C1.20154 38.8067 1.0662 38.06 1.0662 37.248ZM5.2662 38.424C5.4622 39.0027 5.8822 39.292 6.5262 39.292C7.1702 39.292 7.59487 39.0027 7.8002 38.424C7.84687 38.2933 7.87487 38.1487 7.8842 37.99C7.90287 37.822 7.9122 37.598 7.9122 37.318C7.9122 37.038 7.90287 36.8187 7.8842 36.66C7.87487 36.492 7.84687 36.3427 7.8002 36.212C7.59487 35.6333 7.1702 35.344 6.5262 35.344C5.8822 35.344 5.4622 35.6333 5.2662 36.212C5.21954 36.3427 5.18687 36.492 5.1682 36.66C5.14954 36.8187 5.1402 37.038 5.1402 37.318C5.1402 37.598 5.14954 37.822 5.1682 37.99C5.18687 38.1487 5.21954 38.2933 5.2662 38.424ZM16.0983 41C16.0049 41 15.9583 40.9533 15.9583 40.86V32.726C15.9583 32.67 15.9303 32.642 15.8743 32.642H13.2703C13.1769 32.642 13.1303 32.5953 13.1303 32.502V31.62C13.1303 31.5267 13.1769 31.48 13.2703 31.48H19.8923C19.9856 31.48 20.0323 31.5267 20.0323 31.62V32.502C20.0323 32.5953 19.9856 32.642 19.8923 32.642H17.2883C17.2323 32.642 17.2043 32.67 17.2043 32.726V40.86C17.2043 40.9533 17.1576 41 17.0643 41H16.0983ZM24.9518 41C24.8585 41 24.8118 40.9533 24.8118 40.86V40.23H24.7978C24.6205 40.51 24.3778 40.734 24.0698 40.902C23.7712 41.07 23.4025 41.154 22.9638 41.154C22.2265 41.154 21.6525 40.9253 21.2418 40.468C20.8405 40.0013 20.6398 39.3853 20.6398 38.62V34.434C20.6398 34.3407 20.6865 34.294 20.7798 34.294H21.6758C21.7692 34.294 21.8158 34.3407 21.8158 34.434V38.34C21.8158 38.8907 21.9372 39.3153 22.1798 39.614C22.4225 39.9127 22.7958 40.062 23.2998 40.062C23.7572 40.062 24.1212 39.9127 24.3918 39.614C24.6718 39.3153 24.8118 38.914 24.8118 38.41V34.434C24.8118 34.3407 24.8585 34.294 24.9518 34.294H25.8478C25.9412 34.294 25.9878 34.3407 25.9878 34.434V40.86C25.9878 40.9533 25.9412 41 25.8478 41H24.9518ZM34.0527 41C33.9687 41 33.9127 40.9533 33.8847 40.86L32.3727 36.058H32.3447L30.8187 40.86C30.7907 40.9533 30.7347 41 30.6507 41H29.8387C29.7547 41 29.6987 40.9533 29.6707 40.86L27.5707 34.434C27.5427 34.3407 27.5754 34.294 27.6687 34.294H28.6207C28.7047 34.294 28.7654 34.3407 28.8027 34.434L30.2867 39.278H30.3147L31.8267 34.434C31.8547 34.3407 31.9107 34.294 31.9947 34.294H32.7227C32.8161 34.294 32.8767 34.3407 32.9047 34.434L34.4307 39.278H34.4587L35.9007 34.434C35.9194 34.3407 35.9801 34.294 36.0827 34.294H37.0347C37.1281 34.294 37.1607 34.3407 37.1327 34.434L35.0187 40.86C34.9907 40.9533 34.9347 41 34.8507 41H34.0527ZM42.7217 41C42.6283 41 42.5817 40.9533 42.5817 40.86V40.272H42.5677C42.409 40.524 42.1663 40.734 41.8397 40.902C41.513 41.07 41.093 41.154 40.5797 41.154C40.2623 41.154 39.9637 41.112 39.6837 41.028C39.413 40.944 39.175 40.818 38.9697 40.65C38.7737 40.482 38.615 40.272 38.4937 40.02C38.3817 39.768 38.3257 39.474 38.3257 39.138C38.3257 38.4287 38.5543 37.906 39.0117 37.57C39.4783 37.234 40.1223 37.066 40.9437 37.066H42.4697C42.5257 37.066 42.5537 37.038 42.5537 36.982V36.492C42.5537 36.0253 42.4417 35.6893 42.2177 35.484C41.9937 35.2787 41.569 35.176 40.9437 35.176C40.561 35.176 40.2437 35.2227 39.9917 35.316C39.7397 35.4 39.5157 35.512 39.3197 35.652C39.2357 35.7173 39.1703 35.7127 39.1237 35.638L38.7457 34.994C38.7083 34.9193 38.7177 34.854 38.7737 34.798C39.0257 34.602 39.343 34.4433 39.7257 34.322C40.1083 34.2007 40.5517 34.14 41.0557 34.14C42.0077 34.14 42.6843 34.3173 43.0857 34.672C43.487 35.0173 43.6877 35.6007 43.6877 36.422V40.86C43.6877 40.9533 43.641 41 43.5477 41H42.7217ZM40.8597 40.146C41.3917 40.146 41.807 40.034 42.1057 39.81C42.4043 39.5767 42.5537 39.25 42.5537 38.83V38.088C42.5537 38.032 42.5257 38.004 42.4697 38.004H41.1257C40.5377 38.004 40.113 38.0927 39.8517 38.27C39.5903 38.438 39.4597 38.7133 39.4597 39.096C39.4597 39.4413 39.581 39.7027 39.8237 39.88C40.0663 40.0573 40.4117 40.146 40.8597 40.146ZM46.0334 32.782C45.9401 32.782 45.8934 32.7353 45.8934 32.642V31.62C45.8934 31.5267 45.9401 31.48 46.0334 31.48H46.9854C47.0788 31.48 47.1254 31.5267 47.1254 31.62V32.642C47.1254 32.7353 47.0788 32.782 46.9854 32.782H46.0334ZM46.0614 41C45.9681 41 45.9214 40.9533 45.9214 40.86V34.434C45.9214 34.3407 45.9681 34.294 46.0614 34.294H46.9574C47.0508 34.294 47.0974 34.3407 47.0974 34.434V40.86C47.0974 40.9533 47.0508 41 46.9574 41H46.0614ZM53.5941 43.52C53.5008 43.52 53.4541 43.4733 53.4541 43.38V40.216H53.4401C53.2814 40.4867 53.0481 40.7107 52.7401 40.888C52.4414 41.0653 52.0401 41.154 51.5361 41.154C50.9481 41.154 50.4581 41.0187 50.0661 40.748C49.6741 40.4773 49.3941 40.076 49.2261 39.544C49.1328 39.2733 49.0674 38.9933 49.0301 38.704C49.0021 38.4147 48.9881 38.06 48.9881 37.64C48.9881 37.22 49.0021 36.87 49.0301 36.59C49.0674 36.3007 49.1328 36.0207 49.2261 35.75C49.3941 35.218 49.6741 34.8167 50.0661 34.546C50.4581 34.2753 50.9481 34.14 51.5361 34.14C52.0401 34.14 52.4414 34.2287 52.7401 34.406C53.0481 34.574 53.2814 34.7933 53.4401 35.064H53.4541V34.434C53.4541 34.3407 53.5008 34.294 53.5941 34.294H54.4901C54.5834 34.294 54.6301 34.3407 54.6301 34.434V43.38C54.6301 43.4733 54.5834 43.52 54.4901 43.52H53.5941ZM51.8161 40.062C52.5814 40.062 53.0761 39.7213 53.3001 39.04C53.3561 38.8813 53.3934 38.6947 53.4121 38.48C53.4401 38.256 53.4541 37.976 53.4541 37.64C53.4541 37.304 53.4401 37.0287 53.4121 36.814C53.3934 36.5993 53.3561 36.408 53.3001 36.24C53.0761 35.568 52.5814 35.232 51.8161 35.232C51.0694 35.232 50.5794 35.568 50.3461 36.24C50.2901 36.4267 50.2481 36.632 50.2201 36.856C50.2014 37.08 50.1921 37.3413 50.1921 37.64C50.1921 37.948 50.2014 38.214 50.2201 38.438C50.2481 38.662 50.2901 38.8627 50.3461 39.04C50.5794 39.7213 51.0694 40.062 51.8161 40.062ZM59.4193 31.62C59.4473 31.5267 59.5033 31.48 59.5873 31.48H60.4973C60.5906 31.48 60.6513 31.5267 60.6793 31.62L63.9413 40.86C63.9693 40.9533 63.9366 41 63.8433 41H62.8633C62.77 41 62.7093 40.9533 62.6813 40.86L61.9533 38.788H58.1033L57.3753 40.86C57.338 40.9533 57.2773 41 57.1933 41H56.2133C56.12 41 56.0873 40.9533 56.1153 40.86L59.4193 31.62ZM61.5473 37.64L60.0493 33.314H60.0213L58.5093 37.64H61.5473ZM64.9432 37.64C64.9432 37.2667 64.9618 36.9447 64.9992 36.674C65.0365 36.394 65.0878 36.1513 65.1532 35.946C65.3398 35.358 65.6665 34.91 66.1332 34.602C66.5998 34.294 67.1552 34.14 67.7992 34.14C68.3125 34.14 68.7605 34.2427 69.1432 34.448C69.5352 34.644 69.8525 34.9193 70.0952 35.274C70.1418 35.3487 70.1278 35.414 70.0532 35.47L69.4372 35.974C69.3625 36.03 69.2972 36.0253 69.2412 35.96C69.0452 35.7173 68.8398 35.5353 68.6252 35.414C68.4105 35.2927 68.1352 35.232 67.7992 35.232C67.4352 35.232 67.1225 35.3207 66.8612 35.498C66.5998 35.666 66.4132 35.9273 66.3012 36.282C66.2452 36.4593 66.2032 36.6553 66.1752 36.87C66.1565 37.0847 66.1472 37.3413 66.1472 37.64C66.1472 37.9387 66.1565 38.2 66.1752 38.424C66.2032 38.6387 66.2452 38.8347 66.3012 39.012C66.4132 39.3667 66.5998 39.6327 66.8612 39.81C67.1225 39.978 67.4352 40.062 67.7992 40.062C68.1352 40.062 68.4105 40.0013 68.6252 39.88C68.8398 39.7587 69.0452 39.5767 69.2412 39.334C69.2972 39.2687 69.3625 39.264 69.4372 39.32L70.0532 39.824C70.1278 39.88 70.1418 39.9453 70.0952 40.02C69.8525 40.3747 69.5352 40.6547 69.1432 40.86C68.7605 41.056 68.3125 41.154 67.7992 41.154C67.1552 41.154 66.5998 41 66.1332 40.692C65.6665 40.384 65.3398 39.936 65.1532 39.348C65.0878 39.1427 65.0365 38.9047 64.9992 38.634C64.9618 38.354 64.9432 38.0227 64.9432 37.64ZM75.8486 41C75.7553 41 75.7086 40.9533 75.7086 40.86V40.272H75.6946C75.536 40.524 75.2933 40.734 74.9666 40.902C74.64 41.07 74.22 41.154 73.7066 41.154C73.3893 41.154 73.0906 41.112 72.8106 41.028C72.54 40.944 72.302 40.818 72.0966 40.65C71.9006 40.482 71.742 40.272 71.6206 40.02C71.5086 39.768 71.4526 39.474 71.4526 39.138C71.4526 38.4287 71.6813 37.906 72.1386 37.57C72.6053 37.234 73.2493 37.066 74.0706 37.066H75.5966C75.6526 37.066 75.6806 37.038 75.6806 36.982V36.492C75.6806 36.0253 75.5686 35.6893 75.3446 35.484C75.1206 35.2787 74.696 35.176 74.0706 35.176C73.688 35.176 73.3706 35.2227 73.1186 35.316C72.8666 35.4 72.6426 35.512 72.4466 35.652C72.3626 35.7173 72.2973 35.7127 72.2506 35.638L71.8726 34.994C71.8353 34.9193 71.8446 34.854 71.9006 34.798C72.1526 34.602 72.47 34.4433 72.8526 34.322C73.2353 34.2007 73.6786 34.14 74.1826 34.14C75.1346 34.14 75.8113 34.3173 76.2126 34.672C76.614 35.0173 76.8146 35.6007 76.8146 36.422V40.86C76.8146 40.9533 76.768 41 76.6746 41H75.8486ZM73.9866 40.146C74.5186 40.146 74.934 40.034 75.2326 39.81C75.5313 39.5767 75.6806 39.25 75.6806 38.83V38.088C75.6806 38.032 75.6526 38.004 75.5966 38.004H74.2526C73.6646 38.004 73.24 38.0927 72.9786 38.27C72.7173 38.438 72.5866 38.7133 72.5866 39.096C72.5866 39.4413 72.708 39.7027 72.9506 39.88C73.1933 40.0573 73.5386 40.146 73.9866 40.146ZM83.2484 41C83.1551 41 83.1084 40.9533 83.1084 40.86V40.216H83.0944C82.9357 40.4867 82.7024 40.7107 82.3944 40.888C82.0957 41.0653 81.6944 41.154 81.1904 41.154C80.6024 41.154 80.1124 41.0187 79.7204 40.748C79.3284 40.4773 79.0484 40.076 78.8804 39.544C78.7871 39.2733 78.7217 38.9933 78.6844 38.704C78.6564 38.4147 78.6424 38.06 78.6424 37.64C78.6424 37.22 78.6564 36.87 78.6844 36.59C78.7217 36.3007 78.7871 36.0207 78.8804 35.75C79.0484 35.218 79.3284 34.8167 79.7204 34.546C80.1124 34.2753 80.6024 34.14 81.1904 34.14C81.6944 34.14 82.0957 34.2287 82.3944 34.406C82.7024 34.574 82.9357 34.7933 83.0944 35.064H83.1084V31.62C83.1084 31.5267 83.1551 31.48 83.2484 31.48H84.1444C84.2377 31.48 84.2844 31.5267 84.2844 31.62V40.86C84.2844 40.9533 84.2377 41 84.1444 41H83.2484ZM81.4704 40.062C82.2357 40.062 82.7304 39.7213 82.9544 39.04C83.0104 38.8813 83.0477 38.6947 83.0664 38.48C83.0944 38.256 83.1084 37.976 83.1084 37.64C83.1084 37.304 83.0944 37.0287 83.0664 36.814C83.0477 36.5993 83.0104 36.408 82.9544 36.24C82.7304 35.568 82.2357 35.232 81.4704 35.232C80.7237 35.232 80.2337 35.568 80.0004 36.24C79.9444 36.4267 79.9024 36.632 79.8744 36.856C79.8557 37.08 79.8464 37.3413 79.8464 37.64C79.8464 37.948 79.8557 38.214 79.8744 38.438C79.9024 38.662 79.9444 38.8627 80.0004 39.04C80.2337 39.7213 80.7237 40.062 81.4704 40.062ZM89.0876 41.154C88.4063 41.154 87.8323 41 87.3656 40.692C86.9083 40.3747 86.5863 39.922 86.3996 39.334C86.3249 39.1193 86.2689 38.8813 86.2316 38.62C86.1943 38.3587 86.1756 38.032 86.1756 37.64C86.1756 37.248 86.1896 36.9213 86.2176 36.66C86.2549 36.3893 86.3109 36.1513 86.3856 35.946C86.5723 35.358 86.8943 34.91 87.3516 34.602C87.8183 34.294 88.3736 34.14 89.0176 34.14C89.6616 34.14 90.2123 34.2987 90.6696 34.616C91.1363 34.924 91.4629 35.3673 91.6496 35.946C91.6869 36.058 91.7149 36.1747 91.7336 36.296C91.7616 36.408 91.7849 36.5387 91.8036 36.688C91.8223 36.8373 91.8363 37.01 91.8456 37.206C91.8549 37.3927 91.8596 37.612 91.8596 37.864C91.8596 37.9573 91.8083 38.004 91.7056 38.004H87.4636C87.4076 38.004 87.3796 38.032 87.3796 38.088C87.3796 38.2747 87.3889 38.4287 87.4076 38.55C87.4263 38.6713 87.4543 38.788 87.4916 38.9C87.6223 39.292 87.8323 39.586 88.1216 39.782C88.4109 39.9687 88.7656 40.062 89.1856 40.062C89.5869 40.062 89.9276 39.992 90.2076 39.852C90.4876 39.712 90.7209 39.5347 90.9076 39.32C90.9823 39.2453 91.0523 39.236 91.1176 39.292L91.6916 39.81C91.7569 39.866 91.7616 39.9313 91.7056 40.006C91.4349 40.342 91.0756 40.6173 90.6276 40.832C90.1889 41.0467 89.6756 41.154 89.0876 41.154ZM90.5716 37.066C90.6276 37.066 90.6556 37.038 90.6556 36.982C90.6556 36.674 90.6229 36.422 90.5576 36.226C90.4456 35.89 90.2543 35.6333 89.9836 35.456C89.7223 35.2693 89.4003 35.176 89.0176 35.176C88.6349 35.176 88.3083 35.2693 88.0376 35.456C87.7763 35.6333 87.5896 35.89 87.4776 36.226C87.4123 36.422 87.3796 36.674 87.3796 36.982C87.3796 37.038 87.4076 37.066 87.4636 37.066H90.5716ZM102.314 41C102.22 41 102.174 40.9533 102.174 40.86V36.94C102.174 36.3987 102.048 35.9787 101.796 35.68C101.553 35.3813 101.18 35.232 100.676 35.232C100.228 35.232 99.859 35.3813 99.5697 35.68C99.2803 35.9693 99.1357 36.366 99.1357 36.87V40.86C99.1357 40.9533 99.089 41 98.9957 41H98.0997C98.0063 41 97.9597 40.9533 97.9597 40.86V36.94C97.9597 36.3987 97.8337 35.9787 97.5817 35.68C97.339 35.3813 96.9657 35.232 96.4617 35.232C96.0043 35.232 95.631 35.3813 95.3417 35.68C95.0617 35.9693 94.9217 36.366 94.9217 36.87V40.86C94.9217 40.9533 94.875 41 94.7817 41H93.8857C93.7923 41 93.7457 40.9533 93.7457 40.86V34.434C93.7457 34.3407 93.7923 34.294 93.8857 34.294H94.7817C94.875 34.294 94.9217 34.3407 94.9217 34.434V35.05H94.9357C95.0943 34.7887 95.3323 34.574 95.6497 34.406C95.967 34.2287 96.3543 34.14 96.8117 34.14C97.269 34.14 97.661 34.2333 97.9877 34.42C98.3237 34.5973 98.585 34.854 98.7717 35.19H98.7857C99.019 34.8633 99.3083 34.6067 99.6537 34.42C100.008 34.2333 100.442 34.14 100.956 34.14C101.74 34.14 102.332 34.3687 102.734 34.826C103.144 35.2833 103.35 35.8947 103.35 36.66V40.86C103.35 40.9533 103.303 41 103.21 41H102.314ZM105.532 43.52C105.439 43.52 105.392 43.4733 105.392 43.38V42.568C105.392 42.4747 105.439 42.428 105.532 42.428H105.784C106.055 42.428 106.274 42.3533 106.442 42.204C106.61 42.064 106.769 41.8027 106.918 41.42L107.142 40.804L104.678 34.434C104.65 34.3407 104.687 34.294 104.79 34.294H105.77C105.854 34.294 105.91 34.3407 105.938 34.434L107.702 39.278H107.73L109.424 34.434C109.452 34.3407 109.508 34.294 109.592 34.294H110.544C110.647 34.294 110.684 34.3407 110.656 34.434L108.01 41.518C107.861 41.91 107.711 42.2367 107.562 42.498C107.422 42.7593 107.268 42.9647 107.1 43.114C106.941 43.2633 106.764 43.366 106.568 43.422C106.372 43.4873 106.148 43.52 105.896 43.52H105.532Z" fill="white"/>
<g clip-path="url(#clip2_1280_16247)">
<path d="M10.4873 0C4.68637 0 0 4.91546 0 11C0 17.0845 4.68637 22 10.4873 22C16.2883 22 21 17.0845 21 11C21 4.91546 16.2883 0 10.4873 0ZM8.20748 14.4275C8.20748 14.6667 8.15682 14.7464 7.92883 14.7464C7.54885 14.7198 7.21954 14.7198 6.83957 14.7464C6.66224 14.7464 6.56092 14.6932 6.56092 14.4541V9.35266C6.56092 9.16667 6.61158 9.06039 6.81423 9.06039H7.95416C8.13148 9.06039 8.20748 9.16667 8.20748 9.35266V14.4275ZM7.37153 8.21014C6.83957 8.21014 6.40893 7.75845 6.40893 7.22705C6.40893 6.64251 6.83957 6.19082 7.37153 6.19082C7.9035 6.19082 8.33414 6.61594 8.33414 7.20048C8.33414 7.78502 7.92883 8.21014 7.37153 8.21014ZM14.2871 14.7464C13.9578 14.7198 13.5778 14.7198 13.2485 14.7464C12.9952 14.7464 12.9445 14.6401 12.9445 14.4275C12.9698 13.5242 12.9445 12.6473 12.9445 11.7705C12.9445 11.6111 12.9445 11.4517 12.9192 11.2923C12.8179 10.7343 12.5899 10.442 12.0832 10.442C11.5259 10.4155 11.1966 10.6812 11.07 11.2391C11.0193 11.558 10.9686 11.8502 10.9686 12.1691V14.3744C10.9686 14.6401 10.918 14.7198 10.6647 14.7198C10.3353 14.6932 9.9807 14.6932 9.65139 14.7198C9.4234 14.7198 9.37274 14.6135 9.37274 14.401V9.45894C9.37274 9.17552 9.50784 9.03382 9.77805 9.03382H10.6647C10.842 9.03382 10.9433 9.1401 10.918 9.32609V9.37923C10.918 9.37923 10.8673 9.6715 10.9686 9.72464C11.0953 9.75121 11.1206 9.56522 11.1966 9.48551C11.5766 9.06039 12.0326 8.8744 12.5645 8.8744C13.5271 8.8744 14.2871 9.16667 14.5404 10.4155C14.5657 10.6812 14.5911 10.9203 14.5911 11.186C14.6164 12.2488 14.5911 13.3116 14.6164 14.401C14.6164 14.6401 14.5151 14.6932 14.3124 14.6932L14.2871 14.7464Z" fill="white"/>
</g>
<g clip-path="url(#clip3_1280_16247)">
<path d="M41.0133 0C34.9361 0 30 4.91546 30 11C30 17.0845 34.9361 22 41.0133 22C47.0905 22 52 17.0845 52 11C52 4.91546 47.0639 0 41.0133 0ZM45.2859 9.24638V9.53865C45.2859 12.4082 43.0832 15.756 39.0495 15.756C37.8287 15.756 36.6876 15.4106 35.7322 14.7729C35.8914 14.7995 36.0507 14.7995 36.2364 14.7995C37.2449 14.7995 38.2002 14.4541 38.9433 13.8696C37.9614 13.843 37.1653 13.2319 36.8999 12.3551C37.0326 12.3816 37.1653 12.3816 37.2979 12.3816C37.5368 12.3816 37.696 12.3551 37.8818 12.3285C36.8733 12.0894 36.1303 11.2391 36.1303 10.1498C36.4222 10.2826 36.7407 10.3889 37.1387 10.4155C36.5283 10.0169 36.1303 9.35266 36.1303 8.58213C36.1303 8.18357 36.263 7.81159 36.4487 7.49275C37.5103 8.82126 39.1291 9.69807 40.9337 9.77778C40.9071 9.61836 40.8806 9.45894 40.8806 9.29952C40.8806 8.07729 41.889 7.0942 43.0832 7.0942C43.7201 7.0942 44.2774 7.3599 44.7021 7.78502C45.1797 7.67874 45.684 7.51932 46.082 7.28019C45.9228 7.78502 45.5778 8.21014 45.1001 8.47585C45.5513 8.44928 45.9759 8.31643 46.3474 8.157C46.0555 8.58213 45.6574 8.95411 45.2593 9.29952L45.2859 9.24638Z" fill="white"/>
</g>
<defs>
<clipPath id="clip0_1280_16247">
<rect width="22" height="22" fill="white" transform="translate(61)"/>
</clipPath>
<clipPath id="clip1_1280_16247">
<rect width="22" height="22" fill="white" transform="translate(92)"/>
</clipPath>
<clipPath id="clip2_1280_16247">
<rect width="21" height="22" fill="white"/>
</clipPath>
<clipPath id="clip3_1280_16247">
<rect width="22" height="22" fill="white" transform="translate(30)"/>
</clipPath>
</defs>
</svg>
